SplineFontDB: 2.0
FontName: THKrub-Bold
FullName: TH Krub Bold
FamilyName: TH Krub
Weight: Bold
Copyright: Copyright (c) 2006 by Department of Intellectual Property (DIP), Ministry of Commerce and Software Industry Promotion Agency (Public Organization) (SIPA). All rights reserved.
Version: 1.1
ItalicAngle: 0
UnderlinePosition: -58
UnderlineWidth: 35
Ascent: 800
Descent: 200
Order2: 1
XUID: [1021 375 425136265 8769607]
FSType: 0
OS2Version: 3
OS2_WeightWidthSlopeOnly: 0
OS2_UseTypoMetrics: 1
CreationTime: 1154211420
ModificationTime: 1196153662
PfmFamily: 17
TTFWeight: 700
TTFWidth: 5
LineGap: 21
VLineGap: 0
Panose: 2 0 5 6 4 0 0 2 0 4
OS2TypoAscent: 0
OS2TypoAOffset: 1
OS2TypoDescent: 0
OS2TypoDOffset: 1
OS2TypoLinegap: 0
OS2WinAscent: -78
OS2WinAOffset: 1
OS2WinDescent: -208
OS2WinDOffset: 1
HheadAscent: 0
HheadAOffset: 1
HheadDescent: 170
HheadDOffset: 1
OS2SubXSize: 700
OS2SubYSize: 650
OS2SubXOff: 0
OS2SubYOff: 140
OS2SupXSize: 700
OS2SupYSize: 650
OS2SupXOff: 0
OS2SupYOff: 477
OS2StrikeYSize: 50
OS2StrikeYPos: 250
OS2FamilyClass: 2053
OS2Vendor: 'b513'
Lookup: 4 0 1 "'rlig' Required Ligatures in Latin lookup 0"  {"'rlig' Required Ligatures in Latin lookup 0 subtable"  } ['rlig' ('latn' <'dflt' > ) ]
Lookup: 4 0 0 "'frac' Diagonal Fractions in Latin lookup 1"  {"'frac' Diagonal Fractions in Latin lookup 1 subtable"  } ['frac' ('latn' <'dflt' > ) ]
Lookup: 4 0 0 "'ccmp' Glyph Composition/Decomposition in Latin lookup 2"  {"'ccmp' Glyph Composition/Decomposition in Latin lookup 2 subtable"  } ['ccmp' ('latn' <'dflt' > ) ]
Lookup: 6 0 0 "'liga' Standard Ligatures in Latin lookup 3"  {"'liga' Standard Ligatures in Latin lookup 3 subtable"  } ['liga' ('latn' <'dflt' > ) ]
Lookup: 6 0 0 "'liga' Standard Ligatures in Latin lookup 4"  {"'liga' Standard Ligatures in Latin lookup 4 subtable"  } ['liga' ('latn' <'dflt' > ) ]

StartChar: exclam
Encoding: 33 33 2
Width: 281
VWidth: 1473
Flags: W
HStem: 0 116<77 205> 696 20G<77 205>
VStem: 77 128<0 116 634.167 716> 97 87<225 306.833>
Fore
205 716 m 1,0,-1
 184 225 l 1,1,-1
 97 225 l 1,2,-1
 77 716 l 1,3,-1
 205 716 l 1,0,-1
77 0 m 1,4,-1
 77 116 l 1,5,-1
 205 116 l 1,6,-1
 205 0 l 1,7,-1
 77 0 l 1,4,-1
EndSplineSet
EndChar
StartChar: quotedbl
Encoding: 34 34 3
Width: 331
VWidth: 1473
Flags: W
HStem: 517 237<52 133 199 280>
VStem: 52 81<517 754> 199 81<517 754>
Fore
52 754 m 1,0,-1
 133 754 l 1,1,-1
 133 517 l 1,2,-1
 52 517 l 1,3,-1
 52 754 l 1,0,-1
199 754 m 1,4,-1
 280 754 l 1,5,-1
 280 517 l 1,6,-1
 199 517 l 1,7,-1
 199 754 l 1,4,-1
EndSplineSet
EndChar
StartChar: numbersign
Encoding: 35 35 4
Width: 530
VWidth: 1473
Flags: W
HStem: 0 21G<90 169.128 277 357.033> 211 60<25 122 205 309 392 480> 405 61<52 150 233 337 421 507>
VStem: 25 482<211 466 249 258>
Fore
480 211 m 1,0,-1
 386 211 l 1,1,-1
 354 0 l 1,2,-1
 277 0 l 1,3,-1
 309 211 l 1,4,-1
 199 211 l 1,5,-1
 166 0 l 1,6,-1
 90 0 l 1,7,-1
 122 211 l 1,8,-1
 25 211 l 1,9,-1
 25 271 l 1,10,-1
 128 271 l 1,11,-1
 150 405 l 1,12,-1
 52 405 l 1,13,-1
 52 466 l 1,14,-1
 155 466 l 1,15,-1
 187 689 l 1,16,-1
 265 689 l 1,17,-1
 233 466 l 1,18,-1
 343 466 l 1,19,-1
 374 689 l 1,20,-1
 452 689 l 1,21,-1
 421 466 l 1,22,-1
 507 466 l 1,23,-1
 507 405 l 1,24,-1
 412 405 l 1,25,-1
 392 271 l 1,26,-1
 480 271 l 1,27,-1
 480 211 l 1,0,-1
225 405 m 1,28,-1
 205 271 l 1,29,-1
 315 271 l 1,30,-1
 337 405 l 1,31,-1
 225 405 l 1,28,-1
EndSplineSet
EndChar
StartChar: dollar
Encoding: 36 36 5
Width: 623
VWidth: 1473
Flags: W
HStem: 0 68<249.018 286 339 393.579> 334 83<229.149 286> 651 69<237.615 286 339 405.663>
VStem: 62 90<488.629 612.463> 286 53<-133 0 68 321 417 650 720 828> 491 89<115.667 249.436>
Fore
286 828 m 1,0,-1
 339 828 l 1,1,-1
 339 720 l 1,2,3
 377 719 377 719 411 706.5 c 128,-1,4
 445 694 445 694 473 675 c 128,-1,5
 501 656 501 656 521 633 c 128,-1,6
 541 610 541 610 551 588 c 1,7,8
 550 588 550 588 541 580 c 128,-1,9
 532 572 532 572 521 562 c 128,-1,10
 510 552 510 552 500.5 544 c 128,-1,11
 491 536 491 536 488 535 c 1,12,13
 461 583 461 583 428 612.5 c 128,-1,14
 395 642 395 642 339 650 c 1,15,-1
 339 401 l 1,16,17
 382 389 382 389 424.5 373.5 c 128,-1,18
 467 358 467 358 501.5 333 c 128,-1,19
 536 308 536 308 558 271 c 128,-1,20
 580 234 580 234 580 181 c 0,21,22
 580 130 580 130 560.5 95 c 128,-1,23
 541 60 541 60 507 39.5 c 128,-1,24
 473 19 473 19 429.5 9.5 c 128,-1,25
 386 0 386 0 339 0 c 1,26,-1
 339 -133 l 1,27,-1
 286 -133 l 1,28,-1
 286 0 l 1,29,30
 203 3 203 3 135.5 45.5 c 128,-1,31
 68 88 68 88 32 164 c 1,32,-1
 100 215 l 1,33,34
 113 186 113 186 131 158.5 c 128,-1,35
 149 131 149 131 171.5 111 c 128,-1,36
 194 91 194 91 222 79.5 c 128,-1,37
 250 68 250 68 286 68 c 1,38,-1
 286 334 l 1,39,40
 246 346 246 346 205.5 361 c 128,-1,41
 165 376 165 376 133.5 398 c 128,-1,42
 102 420 102 420 82 454 c 128,-1,43
 62 488 62 488 62 536 c 0,44,45
 62 588 62 588 79 622.5 c 128,-1,46
 96 657 96 657 126 678.5 c 128,-1,47
 156 700 156 700 197.5 709.5 c 128,-1,48
 239 719 239 719 286 720 c 1,49,-1
 286 828 l 1,0,-1
286 651 m 1,50,51
 220 651 220 651 186 624.5 c 128,-1,52
 152 598 152 598 152 541 c 0,53,54
 152 510 152 510 161.5 489 c 128,-1,55
 171 468 171 468 188.5 455 c 128,-1,56
 206 442 206 442 230.5 433 c 128,-1,57
 255 424 255 424 286 417 c 1,58,-1
 286 651 l 1,50,51
339 68 m 1,59,60
 410 69 410 69 450.5 98 c 128,-1,61
 491 127 491 127 491 184 c 0,62,63
 491 221 491 221 478.5 243 c 128,-1,64
 466 265 466 265 445 279 c 128,-1,65
 424 293 424 293 397 302 c 128,-1,66
 370 311 370 311 339 321 c 1,67,-1
 339 68 l 1,59,60
EndSplineSet
EndChar
StartChar: percent
Encoding: 37 37 6
Width: 879
VWidth: 1473
Flags: W
HStem: 0 69<575.956 696.692> 256 68<589.602 695.768> 390 70<195.475 288.857> 645 71<181.258 302.939>
VStem: 81 69<518.899 613.652> 336 69<505.969 612.633>
Fore
242 716 m 128,-1,1
 275 716 275 716 305.5 702.5 c 128,-1,2
 336 689 336 689 358 667 c 128,-1,3
 380 645 380 645 392.5 615.5 c 128,-1,4
 405 586 405 586 405 552 c 256,5,6
 405 519 405 519 392.5 489.5 c 128,-1,7
 380 460 380 460 358 437.5 c 128,-1,8
 336 415 336 415 305.5 402.5 c 128,-1,9
 275 390 275 390 242 390 c 128,-1,10
 209 390 209 390 179.5 402.5 c 128,-1,11
 150 415 150 415 128 437.5 c 128,-1,12
 106 460 106 460 93.5 489.5 c 128,-1,13
 81 519 81 519 81 552 c 256,14,15
 81 586 81 586 93.5 615.5 c 128,-1,16
 106 645 106 645 128 667 c 128,-1,17
 150 689 150 689 179.5 702.5 c 128,-1,0
 209 716 209 716 242 716 c 128,-1,1
242 645 m 128,-1,19
 203 645 203 645 176 618.5 c 128,-1,20
 149 592 149 592 150 552 c 0,21,22
 149 514 149 514 176 487 c 128,-1,23
 203 460 203 460 242 460 c 128,-1,24
 281 460 281 460 308.5 487 c 128,-1,25
 336 514 336 514 336 552 c 0,26,27
 336 592 336 592 308.5 618.5 c 128,-1,18
 281 645 281 645 242 645 c 128,-1,19
635 324 m 0,28,29
 669 324 669 324 698.5 311.5 c 128,-1,30
 728 299 728 299 750 277 c 128,-1,31
 772 255 772 255 785 225.5 c 128,-1,32
 798 196 798 196 798 162 c 0,33,34
 798 130 798 130 785 100.5 c 128,-1,35
 772 71 772 71 750 49 c 128,-1,36
 728 27 728 27 698.5 13.5 c 128,-1,37
 669 0 669 0 635 0 c 0,38,39
 603 0 603 0 573.5 13.5 c 128,-1,40
 544 27 544 27 521.5 49 c 128,-1,41
 499 71 499 71 486 100.5 c 128,-1,42
 473 130 473 130 473 162 c 0,43,44
 473 196 473 196 486 225.5 c 128,-1,45
 499 255 499 255 521.5 277 c 128,-1,46
 544 299 544 299 573.5 311.5 c 128,-1,47
 603 324 603 324 635 324 c 0,28,29
635 256 m 0,48,49
 597 256 597 256 569.5 228 c 128,-1,50
 542 200 542 200 544 162 c 0,51,52
 542 124 542 124 569.5 96.5 c 128,-1,53
 597 69 597 69 635 69 c 0,54,55
 675 69 675 69 703 96.5 c 128,-1,56
 731 124 731 124 729 162 c 0,57,58
 731 200 731 200 703 228 c 128,-1,59
 675 256 675 256 635 256 c 0,48,49
280 -10 m 1,60,-1
 205 -10 l 1,61,-1
 600 726 l 1,62,-1
 676 726 l 1,63,-1
 280 -10 l 1,60,-1
EndSplineSet
EndChar
StartChar: ampersand
Encoding: 38 38 7
Width: 702
VWidth: 1473
Flags: W
HStem: -10 75<194.69 362.159 578.362 629> 650 76<246.966 330.471>
VStem: 41 89<106.507 256.392> 152 78<511.571 629.603> 359 80<503.219 616.346> 519 76<244.438 324>
Fore
417 124 m 1,0,1
 399 141 399 141 376.5 167.5 c 128,-1,2
 354 194 354 194 331.5 224.5 c 128,-1,3
 309 255 309 255 288.5 285 c 128,-1,4
 268 315 268 315 252 340 c 1,5,6
 193 306 193 306 161.5 269.5 c 128,-1,7
 130 233 130 233 130 171 c 0,8,9
 130 119 130 119 167.5 92 c 128,-1,10
 205 65 205 65 261 65 c 0,11,12
 324 65 324 65 361.5 85 c 128,-1,13
 399 105 399 105 417 124 c 1,0,1
277 443 m 1,14,15
 320 470 320 470 339.5 504 c 128,-1,16
 359 538 359 538 359 575 c 0,17,18
 359 586 359 586 357 598.5 c 128,-1,19
 355 611 355 611 347.5 623 c 128,-1,20
 340 635 340 635 327.5 642.5 c 128,-1,21
 315 650 315 650 295 650 c 0,22,23
 259 650 259 650 244.5 625.5 c 128,-1,24
 230 601 230 601 230 569 c 0,25,26
 230 535 230 535 243 504 c 128,-1,27
 256 473 256 473 277 443 c 1,14,15
595 324 m 1,28,29
 592 268 592 268 572 214.5 c 128,-1,30
 552 161 552 161 520 113 c 1,31,32
 550 93 550 93 577.5 80.5 c 128,-1,33
 605 68 605 68 644 65 c 1,34,-1
 629 -10 l 1,35,36
 580 -7 580 -7 541 13.5 c 128,-1,37
 502 34 502 34 467 68 c 1,38,39
 427 29 427 29 371 9.5 c 128,-1,40
 315 -10 315 -10 258 -10 c 0,41,42
 217 -10 217 -10 177 1.5 c 128,-1,43
 137 13 137 13 107.5 36 c 128,-1,44
 78 59 78 59 59.5 94.5 c 128,-1,45
 41 130 41 130 41 175 c 0,46,47
 41 243 41 243 78.5 297.5 c 128,-1,48
 116 352 116 352 208 404 c 1,49,50
 183 442 183 442 167.5 487 c 128,-1,51
 152 532 152 532 152 576 c 0,52,53
 152 648 152 648 191 687 c 128,-1,54
 230 726 230 726 298 726 c 0,55,56
 359 726 359 726 399 687 c 128,-1,57
 439 648 439 648 439 582 c 0,58,59
 439 510 439 510 406.5 462 c 128,-1,60
 374 414 374 414 320 376 c 1,61,62
 362 317 362 317 394 267 c 128,-1,63
 426 217 426 217 471 168 c 1,64,65
 492 197 492 197 505.5 243 c 128,-1,66
 519 289 519 289 519 336 c 1,67,-1
 595 324 l 1,28,29
EndSplineSet
EndChar
StartChar: quotesingle
Encoding: 39 39 8
Width: 235
VWidth: 1473
Flags: W
VStem: 74 88<517 754 517 754 517 517>
Fore
74 754 m 1,0,-1
 162 754 l 1,1,-1
 162 517 l 1,2,-1
 74 517 l 1,3,-1
 74 754 l 1,0,-1
EndSplineSet
EndChar
StartChar: parenleft
Encoding: 40 40 9
Width: 397
VWidth: 1473
Flags: W
VStem: 87 101.5<167.891 267.5 267.5 339.951 339.951 342.843 341.397 435.774 434.329 437.218 437.218 509 509 609.089>
Fore
331 874 m 1,0,1
 286 819 286 819 256.5 758 c 128,-1,2
 227 697 227 697 210.5 634.5 c 128,-1,3
 194 572 194 572 188.5 509 c 128,-1,4
 183 446 183 446 183 389 c 0,5,6
 183 330 183 330 188.5 267.5 c 128,-1,7
 194 205 194 205 210.5 142.5 c 128,-1,8
 227 80 227 80 256.5 18 c 128,-1,9
 286 -44 286 -44 331 -99 c 1,10,-1
 217 -99 l 1,11,12
 175 -44 175 -44 149.5 18 c 128,-1,13
 124 80 124 80 108.5 142.5 c 128,-1,14
 93 205 93 205 87 267.5 c 128,-1,15
 81 330 81 330 81 389 c 0,16,17
 81 446 81 446 87 509 c 128,-1,18
 93 572 93 572 108.5 634.5 c 128,-1,19
 124 697 124 697 149.5 758 c 128,-1,20
 175 819 175 819 217 874 c 1,21,-1
 331 874 l 1,0,1
EndSplineSet
EndChar
StartChar: parenright
Encoding: 41 41 10
Width: 397
VWidth: 1473
Flags: W
VStem: 211 100<171.797 267.5 267.5 342.843 342.843 342.843 342.843 434.329 434.329 434.329 434.329 509 509 605.176>
Fore
66 -99 m 1,0,1
 113 -44 113 -44 142 18 c 128,-1,2
 171 80 171 80 188 142.5 c 128,-1,3
 205 205 205 205 211 267.5 c 128,-1,4
 217 330 217 330 217 389 c 0,5,6
 217 446 217 446 211 509 c 128,-1,7
 205 572 205 572 188 634.5 c 128,-1,8
 171 697 171 697 142 758 c 128,-1,9
 113 819 113 819 66 874 c 1,10,-1
 181 874 l 1,11,12
 222 819 222 819 248 758 c 128,-1,13
 274 697 274 697 289.5 634.5 c 128,-1,14
 305 572 305 572 311 509 c 128,-1,15
 317 446 317 446 317 389 c 0,16,17
 317 330 317 330 311 267.5 c 128,-1,18
 305 205 305 205 289.5 142.5 c 128,-1,19
 274 80 274 80 248 18 c 128,-1,20
 222 -44 222 -44 181 -99 c 1,21,-1
 66 -99 l 1,0,1
EndSplineSet
EndChar
StartChar: asterisk
Encoding: 42 42 11
Width: 736
VWidth: 1473
Flags: W
HStem: 604 460<320 471 320 320>
VStem: 128 480<852 857 852 852>
Fore
408 869 m 1,0,-1
 579 944 l 1,1,-1
 608 857 l 1,2,-1
 423 807 l 1,3,-1
 547 666 l 1,4,-1
 471 604 l 1,5,-1
 371 766 l 1,6,-1
 268 604 l 1,7,-1
 192 659 l 1,8,-1
 318 807 l 1,9,-1
 128 852 l 1,10,-1
 161 941 l 1,11,-1
 334 869 l 1,12,-1
 320 1064 l 1,13,-1
 420 1064 l 1,14,-1
 408 869 l 1,0,-1
EndSplineSet
EndChar
StartChar: plus
Encoding: 43 43 12
Width: 751
VWidth: 1473
Flags: W
HStem: 270 79<74 329 423 678> 569 20G<329 423>
VStem: 329 94<29 270 349 589>
Fore
329 589 m 1,0,-1
 423 589 l 1,1,-1
 423 349 l 1,2,-1
 678 349 l 1,3,-1
 678 270 l 1,4,-1
 423 270 l 1,5,-1
 423 29 l 1,6,-1
 329 29 l 1,7,-1
 329 270 l 1,8,-1
 74 270 l 1,9,-1
 74 349 l 1,10,-1
 329 349 l 1,11,-1
 329 589 l 1,0,-1
EndSplineSet
EndChar
StartChar: comma
Encoding: 44 44 13
Width: 315
VWidth: 1473
Flags: W
HStem: -171 287<141 149>
VStem: 93 129<0 116>
Fore
222 116 m 1,0,-1
 222 0 l 1,1,-1
 149 -171 l 1,2,-1
 91 -171 l 1,3,-1
 141 0 l 1,4,-1
 93 0 l 1,5,-1
 93 116 l 1,6,-1
 222 116 l 1,0,-1
EndSplineSet
EndChar
StartChar: hyphen
Encoding: 45 45 14
Width: 490
VWidth: 1473
Flags: W
HStem: 299 88<62 429 62 429 62 62>
Fore
62 299 m 1,0,-1
 62 387 l 1,1,-1
 429 387 l 1,2,-1
 429 299 l 1,3,-1
 62 299 l 1,0,-1
EndSplineSet
EndChar
StartChar: period
Encoding: 46 46 15
Width: 315
VWidth: 1473
Flags: W
HStem: 0 116<93 222>
VStem: 93 129<0 116>
Fore
93 0 m 1,0,-1
 93 116 l 1,1,-1
 222 116 l 1,2,-1
 222 0 l 1,3,-1
 93 0 l 1,0,-1
EndSplineSet
EndChar
StartChar: slash
Encoding: 47 47 16
Width: 331
VWidth: 1473
Flags: W
VStem: 0 361<-56 829 406.191 868.381>
Fore
100 -56 m 1,0,-1
 0 -56 l 1,1,-1
 267 829 l 1,2,-1
 361 829 l 1,3,-1
 100 -56 l 1,0,-1
EndSplineSet
EndChar
StartChar: zero
Encoding: 48 48 17
Width: 626
VWidth: 1473
Flags: W
HStem: -7 72<220.608 406.817> 601 74<221.029 407.98>
VStem: 52 92<212.314 461.984> 483 92<212.314 449.052>
Fore
314 -7 m 256,0,1
 243 -7 243 -7 193 15.5 c 128,-1,2
 143 38 143 38 111.5 81.5 c 128,-1,3
 80 125 80 125 66 187 c 128,-1,4
 52 249 52 249 52 327 c 0,5,6
 52 494 52 494 111.5 584.5 c 128,-1,7
 171 675 171 675 314 675 c 0,8,9
 385 675 385 675 435 651.5 c 128,-1,10
 485 628 485 628 516 583.5 c 128,-1,11
 547 539 547 539 561 474.5 c 128,-1,12
 575 410 575 410 575 327 c 0,13,14
 575 249 575 249 561 187 c 128,-1,15
 547 125 547 125 515 81.5 c 128,-1,16
 483 38 483 38 434 15.5 c 128,-1,17
 385 -7 385 -7 314 -7 c 256,0,1
314 65 m 256,18,19
 368 65 368 65 401.5 80.5 c 128,-1,20
 435 96 435 96 453 128.5 c 128,-1,21
 471 161 471 161 477 210 c 128,-1,22
 483 259 483 259 483 327 c 0,23,24
 483 401 483 401 477 453 c 128,-1,25
 471 505 471 505 453 538.5 c 128,-1,26
 435 572 435 572 401.5 586.5 c 128,-1,27
 368 601 368 601 314 601 c 256,28,29
 259 601 259 601 226 586.5 c 128,-1,30
 193 572 193 572 174.5 538.5 c 128,-1,31
 156 505 156 505 150 453 c 128,-1,32
 144 401 144 401 144 327 c 0,33,34
 144 259 144 259 150 210 c 128,-1,35
 156 161 156 161 174.5 128.5 c 128,-1,36
 193 96 193 96 226 80.5 c 128,-1,37
 259 65 259 65 314 65 c 256,18,19
EndSplineSet
EndChar
StartChar: one
Encoding: 49 49 18
Width: 475
VWidth: 1473
Flags: W
HStem: 0 68<66 197 283 410 66 410 66 66>
VStem: 197 86<68 573>
Fore
66 0 m 1,0,-1
 66 68 l 1,1,-1
 197 68 l 1,2,-1
 197 573 l 1,3,-1
 74 544 l 1,4,-1
 74 608 l 1,5,-1
 228 672 l 1,6,-1
 283 672 l 1,7,-1
 283 68 l 1,8,-1
 410 68 l 1,9,-1
 410 0 l 1,10,-1
 66 0 l 1,0,-1
EndSplineSet
EndChar
StartChar: two
Encoding: 50 50 19
Width: 558
VWidth: 1473
Flags: W
HStem: 0 72<137 488> 604 72<211.339 369.368>
VStem: 59 78<72 92.7577 92.7577 99.6093 99.6093 113.5 120.5 152.875> 66 81<491.238 579.262> 407 92<421.402 564.814>
Fore
66 491 m 1,0,1
 82 582 82 582 145.5 629 c 128,-1,2
 209 676 209 676 295 676 c 0,3,4
 396 676 396 676 447.5 622.5 c 128,-1,5
 499 569 499 569 499 482 c 0,6,7
 499 401 499 401 448.5 345 c 128,-1,8
 398 289 398 289 303 247 c 0,9,10
 245 222 245 222 211 199.5 c 128,-1,11
 177 177 177 177 160.5 155.5 c 128,-1,12
 144 134 144 134 140.5 113.5 c 128,-1,13
 137 93 137 93 137 72 c 1,14,-1
 488 72 l 1,15,-1
 488 0 l 1,16,-1
 59 0 l 1,17,-1
 59 55 l 2,18,19
 59 88 59 88 63.5 120.5 c 128,-1,20
 68 153 68 153 88 185 c 128,-1,21
 108 217 108 217 149 249 c 128,-1,22
 190 281 190 281 264 312 c 0,23,24
 314 333 314 333 342.5 354.5 c 128,-1,25
 371 376 371 376 385 397 c 128,-1,26
 399 418 399 418 403 440.5 c 128,-1,27
 407 463 407 463 407 486 c 0,28,29
 407 538 407 538 381 571 c 128,-1,30
 355 604 355 604 289 604 c 0,31,32
 242 604 242 604 203 577.5 c 128,-1,33
 164 551 164 551 147 477 c 1,34,-1
 66 491 l 1,0,1
EndSplineSet
EndChar
StartChar: three
Encoding: 51 51 20
Width: 584
VWidth: 1473
Flags: W
HStem: -10 73<203.16 378.572> 320 72<190 360.605> 605 71<208.228 373.552>
VStem: 405 93<433.333 574.013> 426 93<112.447 253.52>
Fore
119 166 m 1,0,1
 161 102 161 102 204 82.5 c 128,-1,2
 247 63 247 63 293 63 c 0,3,4
 367 63 367 63 396.5 101.5 c 128,-1,5
 426 140 426 140 426 190 c 0,6,7
 426 264 426 264 386 292 c 128,-1,8
 346 320 346 320 252 320 c 2,9,-1
 190 320 l 1,10,-1
 190 392 l 1,11,-1
 242 392 l 2,12,13
 331 392 331 392 368 418.5 c 128,-1,14
 405 445 405 445 405 511 c 0,15,16
 405 554 405 554 378.5 579.5 c 128,-1,17
 352 605 352 605 284 605 c 0,18,19
 247 605 247 605 211 587 c 128,-1,20
 175 569 175 569 140 524 c 1,21,-1
 81 573 l 1,22,23
 128 629 128 629 181 652.5 c 128,-1,24
 234 676 234 676 290 676 c 0,25,26
 385 676 385 676 441.5 638.5 c 128,-1,27
 498 601 498 601 498 517 c 0,28,29
 498 449 498 449 470.5 411.5 c 128,-1,30
 443 374 443 374 395 358 c 1,31,32
 417 352 417 352 439 340.5 c 128,-1,33
 461 329 461 329 478.5 309 c 128,-1,34
 496 289 496 289 507.5 261 c 128,-1,35
 519 233 519 233 519 193 c 0,36,37
 519 97 519 97 468.5 43.5 c 128,-1,38
 418 -10 418 -10 290 -10 c 0,39,40
 127 -10 127 -10 52 124 c 1,41,-1
 119 166 l 1,0,1
EndSplineSet
EndChar
StartChar: four
Encoding: 52 52 21
Width: 545
VWidth: 1473
Flags: W
HStem: 0 21G<343 429> 131 74<124 343 429 530>
VStem: 343 86<0 131 205 575>
Fore
29 202 m 1,0,-1
 323 672 l 1,1,-1
 429 672 l 1,2,-1
 429 205 l 1,3,-1
 530 205 l 1,4,-1
 530 131 l 1,5,-1
 429 131 l 1,6,-1
 429 0 l 1,7,-1
 343 0 l 1,8,-1
 343 131 l 1,9,-1
 29 131 l 1,10,-1
 29 202 l 1,0,-1
124 205 m 1,11,-1
 343 205 l 1,12,-1
 343 575 l 1,13,-1
 336 575 l 1,14,-1
 124 205 l 1,11,-1
EndSplineSet
EndChar
StartChar: five
Encoding: 53 53 22
Width: 608
VWidth: 1473
Flags: W
HStem: -10 73<219.944 389.099> 379 73<249.634 400.983> 600 72<203 492>
VStem: 66 476<116 224 -69.1369 52.1619> 449 93<120.965 328.255>
Fore
90 303 m 1,0,-1
 121 672 l 1,1,-1
 492 672 l 1,2,-1
 492 600 l 1,3,-1
 203 600 l 1,4,-1
 184 402 l 1,5,6
 215 432 215 432 249 442 c 128,-1,7
 283 452 283 452 318 452 c 0,8,9
 367 452 367 452 407.5 439 c 128,-1,10
 448 426 448 426 478 398.5 c 128,-1,11
 508 371 508 371 525 327.5 c 128,-1,12
 542 284 542 284 542 224 c 0,13,14
 542 159 542 159 523 114 c 128,-1,15
 504 69 504 69 469.5 42 c 128,-1,16
 435 15 435 15 387.5 2.5 c 128,-1,17
 340 -10 340 -10 283 -10 c 0,18,19
 252 -10 252 -10 219.5 -2 c 128,-1,20
 187 6 187 6 158.5 21.5 c 128,-1,21
 130 37 130 37 105.5 61 c 128,-1,22
 81 85 81 85 66 116 c 1,23,-1
 130 161 l 1,24,25
 158 105 158 105 197 84 c 128,-1,26
 236 63 236 63 289 63 c 0,27,28
 380 63 380 63 414.5 103 c 128,-1,29
 449 143 449 143 449 220 c 0,30,31
 449 309 449 309 417 344 c 128,-1,32
 385 379 385 379 308 379 c 0,33,34
 265 379 265 379 218.5 359 c 128,-1,35
 172 339 172 339 153 296 c 1,36,-1
 90 303 l 1,0,-1
EndSplineSet
EndChar
StartChar: six
Encoding: 54 54 23
Width: 601
VWidth: 1473
Flags: W
HStem: -10 75<243.659 416.719> 345 72<249.412 416.278> 605 71<236.604 369.148>
VStem: 66 95<145.326 369.503 336 425.311> 457 93<105.472 276.401>
Fore
466 557 m 1,0,1
 438 582 438 582 401 593.5 c 128,-1,2
 364 605 364 605 326 605 c 0,3,4
 275 605 275 605 243 590.5 c 128,-1,5
 211 576 211 576 191.5 543.5 c 128,-1,6
 172 511 172 511 165 459.5 c 128,-1,7
 158 408 158 408 158 336 c 1,8,9
 192 374 192 374 238 395.5 c 128,-1,10
 284 417 284 417 340 417 c 0,11,12
 402 417 402 417 442 400 c 128,-1,13
 482 383 482 383 506 353.5 c 128,-1,14
 530 324 530 324 540 284.5 c 128,-1,15
 550 245 550 245 550 197 c 0,16,17
 550 100 550 100 492.5 45 c 128,-1,18
 435 -10 435 -10 323 -10 c 0,19,20
 183 -10 183 -10 124.5 67 c 128,-1,21
 66 144 66 144 66 309 c 0,22,23
 66 485 66 485 126 580.5 c 128,-1,24
 186 676 186 676 327 676 c 0,25,26
 371 676 371 676 421 662 c 128,-1,27
 471 648 471 648 505 622 c 1,28,-1
 466 557 l 1,0,1
324 345 m 0,29,30
 287 345 287 345 257 331.5 c 128,-1,31
 227 318 227 318 205.5 299.5 c 128,-1,32
 184 281 184 281 172.5 263.5 c 128,-1,33
 161 246 161 246 161 237 c 0,34,35
 161 183 161 183 172 149 c 128,-1,36
 183 115 183 115 204 96 c 128,-1,37
 225 77 225 77 255.5 71 c 128,-1,38
 286 65 286 65 324 65 c 0,39,40
 402 65 402 65 429.5 97.5 c 128,-1,41
 457 130 457 130 457 208 c 0,42,43
 457 277 457 277 429.5 311 c 128,-1,44
 402 345 402 345 324 345 c 0,29,30
EndSplineSet
EndChar
StartChar: seven
Encoding: 55 55 24
Width: 499
VWidth: 1473
Flags: W
HStem: 0 21G<84 195.296> 600 72<44 370>
VStem: 44 426<611 672>
Fore
44 672 m 1,0,-1
 470 672 l 1,1,-1
 470 611 l 1,2,-1
 186 0 l 1,3,-1
 84 0 l 1,4,-1
 370 600 l 1,5,-1
 44 600 l 1,6,-1
 44 672 l 1,0,-1
EndSplineSet
EndChar
StartChar: eight
Encoding: 56 56 25
Width: 623
VWidth: 1473
Flags: W
HStem: -10 73<209.561 412.936> 607 71<221.136 401.164>
VStem: 66 93<108.352 228.673> 91 92<444.811 570.356> 440 92<443.689 570.356> 464 93<108.516 226.895>
Fore
532 501 m 0,0,1
 532 457 532 457 499 417 c 128,-1,2
 466 377 466 377 404 355 c 1,3,4
 491 317 491 317 524 273.5 c 128,-1,5
 557 230 557 230 557 178 c 0,6,7
 557 87 557 87 497.5 38.5 c 128,-1,8
 438 -10 438 -10 312 -10 c 256,9,10
 187 -10 187 -10 126.5 38.5 c 128,-1,11
 66 87 66 87 66 178 c 0,12,13
 66 230 66 230 99.5 273.5 c 128,-1,14
 133 317 133 317 220 355 c 1,15,16
 156 377 156 377 123.5 417 c 128,-1,17
 91 457 91 457 91 501 c 0,18,19
 91 586 91 586 148.5 632 c 128,-1,20
 206 678 206 678 312 678 c 256,21,22
 418 678 418 678 475 632 c 128,-1,23
 532 586 532 586 532 501 c 0,0,1
312 63 m 0,24,25
 386 63 386 63 425 92 c 128,-1,26
 464 121 464 121 464 178 c 0,27,28
 464 205 464 205 455 225 c 128,-1,29
 446 245 446 245 428 260 c 128,-1,30
 410 275 410 275 381 290 c 128,-1,31
 352 305 352 305 312 321 c 1,32,33
 271 305 271 305 241.5 290 c 128,-1,34
 212 275 212 275 193.5 260 c 128,-1,35
 175 245 175 245 167 225 c 128,-1,36
 159 205 159 205 159 178 c 0,37,38
 159 63 159 63 312 63 c 0,24,25
312 387 m 1,39,40
 374 404 374 404 407 432.5 c 128,-1,41
 440 461 440 461 440 504 c 0,42,43
 440 607 440 607 312 607 c 0,44,45
 183 607 183 607 183 504 c 0,46,47
 183 421 183 421 312 387 c 1,39,40
EndSplineSet
EndChar
StartChar: nine
Encoding: 57 57 26
Width: 599
VWidth: 1473
Flags: W
HStem: -9 72<230.843 362.165> 250 74<183.315 352.068> 604 74<182.193 353.472>
VStem: 52 92<390.994 564.05> 442 91<263.767 333 340.691 523.174>
Fore
122 112 m 1,0,1
 149 87 149 87 192.5 75 c 128,-1,2
 236 63 236 63 274 63 c 0,3,4
 324 63 324 63 356.5 78 c 128,-1,5
 389 93 389 93 408 125.5 c 128,-1,6
 427 158 427 158 434.5 209.5 c 128,-1,7
 442 261 442 261 442 333 c 1,8,9
 408 295 408 295 362.5 272.5 c 128,-1,10
 317 250 317 250 261 250 c 0,11,12
 199 250 199 250 159 267 c 128,-1,13
 119 284 119 284 95 313.5 c 128,-1,14
 71 343 71 343 61.5 383.5 c 128,-1,15
 52 424 52 424 52 470 c 0,16,17
 52 567 52 567 109 622.5 c 128,-1,18
 166 678 166 678 277 678 c 0,19,20
 417 678 417 678 475 601 c 128,-1,21
 533 524 533 524 533 359 c 0,22,23
 533 271 533 271 523 202.5 c 128,-1,24
 513 134 513 134 484 87 c 128,-1,25
 455 40 455 40 405 15.5 c 128,-1,26
 355 -9 355 -9 274 -9 c 0,27,28
 252 -9 252 -9 225.5 -5 c 128,-1,29
 199 -1 199 -1 173 6 c 128,-1,30
 147 13 147 13 123 23.5 c 128,-1,31
 99 34 99 34 81 47 c 1,32,-1
 122 112 l 1,0,1
275 324 m 0,33,34
 314 324 314 324 344 337.5 c 128,-1,35
 374 351 374 351 395.5 368.5 c 128,-1,36
 417 386 417 386 428.5 403.5 c 128,-1,37
 440 421 440 421 440 430 c 0,38,39
 440 486 440 486 428.5 520 c 128,-1,40
 417 554 417 554 395.5 572.5 c 128,-1,41
 374 591 374 591 344 597.5 c 128,-1,42
 314 604 314 604 275 604 c 0,43,44
 197 604 197 604 170.5 571 c 128,-1,45
 144 538 144 538 144 460 c 0,46,47
 144 392 144 392 170.5 358 c 128,-1,48
 197 324 197 324 275 324 c 0,33,34
EndSplineSet
EndChar
StartChar: colon
Encoding: 58 58 27
Width: 331
VWidth: 1473
Flags: W
HStem: 0 122<99 233> 364 122<99 233>
VStem: 99 134<0 122 364 486>
Fore
99 0 m 1,0,-1
 99 122 l 1,1,-1
 233 122 l 1,2,-1
 233 0 l 1,3,-1
 99 0 l 1,0,-1
99 364 m 1,4,-1
 99 486 l 1,5,-1
 233 486 l 1,6,-1
 233 364 l 1,7,-1
 99 364 l 1,4,-1
EndSplineSet
EndChar
StartChar: semicolon
Encoding: 59 59 28
Width: 331
VWidth: 1473
Flags: W
HStem: 364 122<99 233>
VStem: 99 134<0 122 364 486>
Fore
233 122 m 1,0,-1
 233 0 l 1,1,-1
 156 -180 l 1,2,-1
 96 -180 l 1,3,-1
 150 0 l 1,4,-1
 99 0 l 1,5,-1
 99 122 l 1,6,-1
 233 122 l 1,0,-1
99 364 m 1,7,-1
 99 486 l 1,8,-1
 233 486 l 1,9,-1
 233 364 l 1,10,-1
 99 364 l 1,7,-1
EndSplineSet
EndChar
StartChar: less
Encoding: 60 60 29
Width: 715
VWidth: 1473
Flags: W
HStem: -7 21G<624.09 669>
Fore
669 -7 m 1,0,-1
 47 270 l 1,1,-1
 47 351 l 1,2,-1
 669 628 l 1,3,-1
 669 536 l 1,4,-1
 143 311 l 1,5,-1
 669 84 l 1,6,-1
 669 -7 l 1,0,-1
EndSplineSet
EndChar
StartChar: equal
Encoding: 61 61 30
Width: 715
VWidth: 1473
Flags: W
HStem: 159 78<47 669> 398 78<47 669>
VStem: 47 622<159 237 398 476 159 476 159 159>
Fore
669 398 m 1,0,-1
 47 398 l 1,1,-1
 47 476 l 1,2,-1
 669 476 l 1,3,-1
 669 398 l 1,0,-1
669 159 m 1,4,-1
 47 159 l 1,5,-1
 47 237 l 1,6,-1
 669 237 l 1,7,-1
 669 159 l 1,4,-1
EndSplineSet
EndChar
StartChar: greater
Encoding: 62 62 31
Width: 715
VWidth: 1473
Flags: W
HStem: -7 21G<47 93.2454>
Fore
47 84 m 1,0,-1
 573 311 l 1,1,-1
 47 536 l 1,2,-1
 47 628 l 1,3,-1
 669 358 l 1,4,-1
 669 262 l 1,5,-1
 47 -7 l 1,6,-1
 47 84 l 1,0,-1
EndSplineSet
EndChar
StartChar: question
Encoding: 63 63 32
Width: 508
VWidth: 1473
Flags: W
HStem: 0 122<153 301> 787 87<183.807 329.91>
VStem: 153 148<0 122> 177 107<262 408.286> 365 108<607.728 751.395>
Fore
34 726 m 1,0,1
 59 794 59 794 121.5 834 c 128,-1,2
 184 874 184 874 262 874 c 0,3,4
 306 874 306 874 344.5 861.5 c 128,-1,5
 383 849 383 849 411.5 824.5 c 128,-1,6
 440 800 440 800 456.5 763 c 128,-1,7
 473 726 473 726 473 679 c 0,8,9
 473 620 473 620 443.5 579 c 128,-1,10
 414 538 414 538 378.5 501 c 128,-1,11
 343 464 343 464 313.5 423 c 128,-1,12
 284 382 284 382 284 320 c 2,13,-1
 284 262 l 1,14,-1
 177 262 l 1,15,-1
 177 320 l 2,16,17
 177 377 177 377 206.5 422 c 128,-1,18
 236 467 236 467 271 509 c 128,-1,19
 306 551 306 551 335.5 595 c 128,-1,20
 365 639 365 639 365 695 c 0,21,22
 365 729 365 729 338 758 c 128,-1,23
 311 787 311 787 261 787 c 0,24,25
 202 787 202 787 170 753.5 c 128,-1,26
 138 720 138 720 124 682 c 1,27,-1
 34 726 l 1,0,1
153 0 m 1,28,-1
 153 122 l 1,29,-1
 301 122 l 1,30,-1
 301 0 l 1,31,-1
 153 0 l 1,28,-1
EndSplineSet
EndChar
StartChar: at
Encoding: 64 64 33
Width: 808
VWidth: 1473
Flags: W
HStem: -10 65<303.337 510.215> 150 65<302.097 408.428 514.082 598.165> 505 67<361.851 471.857> 670 64<303.34 533.65>
VStem: 52 70<237.747 482.128> 211 76<250.024 377.74> 687 70<351.748 532.744>
Fore
355 215 m 0,0,1
 386 215 386 215 410.5 234 c 128,-1,2
 435 253 435 253 451 283.5 c 128,-1,3
 467 314 467 314 476 350.5 c 128,-1,4
 485 387 485 387 485 421 c 0,5,6
 485 458 485 458 473 481.5 c 128,-1,7
 461 505 461 505 432 505 c 0,8,9
 392 505 392 505 364.5 488 c 128,-1,10
 337 471 337 471 320 443 c 128,-1,11
 303 415 303 415 295 379 c 128,-1,12
 287 343 287 343 287 305 c 0,13,14
 287 258 287 258 302 236.5 c 128,-1,15
 317 215 317 215 355 215 c 0,0,1
551 551 m 1,16,-1
 619 551 l 1,17,-1
 520 295 l 2,18,19
 514 278 514 278 513.5 267 c 128,-1,20
 513 256 513 256 513 245 c 0,21,22
 513 218 513 218 541 218 c 0,23,24
 570 218 570 218 596.5 234 c 128,-1,25
 623 250 623 250 643 279 c 128,-1,26
 663 308 663 308 675 346.5 c 128,-1,27
 687 385 687 385 687 427 c 0,28,29
 687 488 687 488 666 532.5 c 128,-1,30
 645 577 645 577 610 608 c 128,-1,31
 575 639 575 639 526 654.5 c 128,-1,32
 477 670 477 670 421 670 c 0,33,34
 354 670 354 670 298 646.5 c 128,-1,35
 242 623 242 623 203.5 581 c 128,-1,36
 165 539 165 539 143.5 482.5 c 128,-1,37
 122 426 122 426 122 358 c 0,38,39
 122 292 122 292 144 236 c 128,-1,40
 166 180 166 180 206 140 c 128,-1,41
 246 100 246 100 301.5 77.5 c 128,-1,42
 357 55 357 55 423 55 c 0,43,44
 499 55 499 55 562 81.5 c 128,-1,45
 625 108 625 108 669 174 c 1,46,-1
 741 174 l 1,47,48
 717 131 717 131 683.5 97 c 128,-1,49
 650 63 650 63 608 39 c 128,-1,50
 566 15 566 15 518.5 2.5 c 128,-1,51
 471 -10 471 -10 423 -10 c 0,52,53
 343 -10 343 -10 275.5 19.5 c 128,-1,54
 208 49 208 49 158.5 100.5 c 128,-1,55
 109 152 109 152 80.5 220.5 c 128,-1,56
 52 289 52 289 52 365 c 256,57,58
 52 442 52 442 81 509 c 128,-1,59
 110 576 110 576 160.5 626 c 128,-1,60
 211 676 211 676 278 705 c 128,-1,61
 345 734 345 734 420 734 c 0,62,63
 491 734 491 734 552.5 711 c 128,-1,64
 614 688 614 688 660 647.5 c 128,-1,65
 706 607 706 607 731.5 550.5 c 128,-1,66
 757 494 757 494 757 426 c 0,67,68
 757 367 757 367 736.5 317 c 128,-1,69
 716 267 716 267 683 230 c 128,-1,70
 650 193 650 193 609.5 171.5 c 128,-1,71
 569 150 569 150 530 150 c 0,72,73
 504 150 504 150 484 166.5 c 128,-1,74
 464 183 464 183 463 208 c 1,75,-1
 461 208 l 1,76,77
 436 183 436 183 408 166.5 c 128,-1,78
 380 150 380 150 342 150 c 0,79,80
 309 150 309 150 285 162.5 c 128,-1,81
 261 175 261 175 244.5 196 c 128,-1,82
 228 217 228 217 219.5 243.5 c 128,-1,83
 211 270 211 270 211 299 c 0,84,85
 211 354 211 354 225.5 403 c 128,-1,86
 240 452 240 452 268 489.5 c 128,-1,87
 296 527 296 527 339 549.5 c 128,-1,88
 382 572 382 572 436 572 c 0,89,90
 470 572 470 572 496.5 553.5 c 128,-1,91
 523 535 523 535 530 498 c 1,92,-1
 551 551 l 1,16,-1
EndSplineSet
EndChar
StartChar: A
Encoding: 65 65 34
Width: 682
VWidth: 1473
Flags: W
HStem: 0 21G<29 142.529 540.368 653> 193 80<222 461> 695 20G<276.867 406.105>
Fore
461 273 m 1,0,-1
 342 619 l 1,1,-1
 222 273 l 1,2,-1
 461 273 l 1,0,-1
284 715 m 1,3,-1
 399 715 l 1,4,-1
 653 0 l 1,5,-1
 547 0 l 1,6,-1
 483 193 l 1,7,-1
 199 193 l 1,8,-1
 136 0 l 1,9,-1
 29 0 l 1,10,-1
 284 715 l 1,3,-1
EndSplineSet
EndChar
StartChar: B
Encoding: 66 66 35
Width: 629
VWidth: 1473
Flags: W
HStem: 0 77<189 433.093> 359 74<189 370.401> 635 81<189 417.305>
VStem: 88 497<172 250 0 221 1.53064e-18 1.53064e-18> 88 101<77 359 433 635> 440 104<473.647 599.579> 482 103<128.072 259.816>
Fore
457 399 m 1,0,1
 485 393 485 393 508.5 375 c 128,-1,2
 532 357 532 357 549 332.5 c 128,-1,3
 566 308 566 308 575.5 279 c 128,-1,4
 585 250 585 250 585 221 c 0,5,6
 585 172 585 172 571.5 131.5 c 128,-1,7
 558 91 558 91 529.5 61.5 c 128,-1,8
 501 32 501 32 454.5 16 c 128,-1,9
 408 0 408 0 340 0 c 2,10,-1
 88 0 l 1,11,-1
 88 716 l 1,12,-1
 343 716 l 2,13,14
 399 716 399 716 437.5 702.5 c 128,-1,15
 476 689 476 689 499.5 666.5 c 128,-1,16
 523 644 523 644 533.5 613.5 c 128,-1,17
 544 583 544 583 544 550 c 0,18,19
 544 491 544 491 519.5 451.5 c 128,-1,20
 495 412 495 412 457 399 c 1,0,1
189 635 m 1,21,-1
 189 433 l 1,22,-1
 314 433 l 2,23,24
 385 433 385 433 412.5 466 c 128,-1,25
 440 499 440 499 440 550 c 0,26,27
 440 592 440 592 418 613.5 c 128,-1,28
 396 635 396 635 343 635 c 2,29,-1
 189 635 l 1,21,-1
326 77 m 2,30,31
 407 77 407 77 444.5 106.5 c 128,-1,32
 482 136 482 136 482 221 c 0,33,34
 482 256 482 256 474.5 282.5 c 128,-1,35
 467 309 467 309 448 326 c 128,-1,36
 429 343 429 343 395.5 351 c 128,-1,37
 362 359 362 359 311 359 c 2,38,-1
 189 359 l 1,39,-1
 189 77 l 1,40,-1
 326 77 l 2,30,31
EndSplineSet
EndChar
StartChar: C
Encoding: 67 67 36
Width: 558
VWidth: 1473
Flags: W
HStem: -10 79<238.632 403.17> 591 21G<466 496.143> 644 79<238.632 403.17>
VStem: 59 100<225.695 487.359>
Fore
59 357 m 256,0,1
 59 454 59 454 72 523 c 128,-1,2
 85 592 85 592 117 637 c 128,-1,3
 149 682 149 682 201 702.5 c 128,-1,4
 253 723 253 723 330 723 c 0,5,6
 379 723 379 723 434 707.5 c 128,-1,7
 489 692 489 692 529 661 c 1,8,-1
 483 591 l 1,9,10
 449 620 449 620 411 632 c 128,-1,11
 373 644 373 644 329 644 c 0,12,13
 277 644 277 644 244 629 c 128,-1,14
 211 614 211 614 192.5 580.5 c 128,-1,15
 174 547 174 547 166.5 492.5 c 128,-1,16
 159 438 159 438 159 357 c 256,17,18
 159 275 159 275 166.5 220.5 c 128,-1,19
 174 166 174 166 192.5 132.5 c 128,-1,20
 211 99 211 99 244 84 c 128,-1,21
 277 69 277 69 329 69 c 0,22,23
 373 69 373 69 411 81 c 128,-1,24
 449 93 449 93 483 122 c 1,25,-1
 529 52 l 1,26,27
 489 21 489 21 434 5.5 c 128,-1,28
 379 -10 379 -10 330 -10 c 0,29,30
 253 -10 253 -10 201 10.5 c 128,-1,31
 149 31 149 31 117 76 c 128,-1,32
 85 121 85 121 72 190 c 128,-1,33
 59 259 59 259 59 357 c 256,0,1
EndSplineSet
EndChar
StartChar: D
Encoding: 68 68 37
Width: 687
VWidth: 1473
Flags: W
HStem: 0 77<192 425.26> 639 77<192 425.26>
VStem: 88 104<77 639> 523 106<220.654 483.98>
Fore
192 639 m 1,0,-1
 192 77 l 1,1,-1
 326 77 l 2,2,3
 387 77 387 77 426.5 91.5 c 128,-1,4
 466 106 466 106 487 137.5 c 128,-1,5
 508 169 508 169 515.5 221 c 128,-1,6
 523 273 523 273 523 348 c 0,7,8
 523 430 523 430 515.5 485.5 c 128,-1,9
 508 541 508 541 487 575.5 c 128,-1,10
 466 610 466 610 426.5 624.5 c 128,-1,11
 387 639 387 639 326 639 c 2,12,-1
 192 639 l 1,0,-1
88 0 m 1,13,-1
 88 716 l 1,14,-1
 326 716 l 2,15,16
 483 716 483 716 556 624 c 128,-1,17
 629 532 629 532 629 348 c 0,18,19
 629 174 629 174 556 87 c 128,-1,20
 483 0 483 0 326 0 c 2,21,-1
 88 0 l 1,13,-1
EndSplineSet
EndChar
StartChar: E
Encoding: 69 69 38
Width: 539
VWidth: 1473
Flags: W
HStem: 0 77<192 505> 336 76<192 466> 639 77<192 510>
VStem: 88 104<77 336 412 639>
Fore
192 77 m 1,0,-1
 505 77 l 1,1,-1
 505 0 l 1,2,-1
 88 0 l 1,3,-1
 88 716 l 1,4,-1
 510 716 l 1,5,-1
 510 639 l 1,6,-1
 192 639 l 1,7,-1
 192 412 l 1,8,-1
 466 412 l 1,9,-1
 466 336 l 1,10,-1
 192 336 l 1,11,-1
 192 77 l 1,0,-1
EndSplineSet
EndChar
StartChar: F
Encoding: 70 70 39
Width: 539
VWidth: 1473
Flags: W
HStem: 0 21G<88 192> 336 76<192 466> 639 77<192 510>
VStem: 88 104<0 336 412 639>
Fore
192 0 m 1,0,-1
 88 0 l 1,1,-1
 88 716 l 1,2,-1
 510 716 l 1,3,-1
 510 639 l 1,4,-1
 192 639 l 1,5,-1
 192 412 l 1,6,-1
 466 412 l 1,7,-1
 466 336 l 1,8,-1
 192 336 l 1,9,-1
 192 0 l 1,0,-1
EndSplineSet
EndChar
StartChar: G
Encoding: 71 71 40
Width: 640
VWidth: 1473
Flags: W
HStem: -10 79<252.47 396.28> 303 79<394.018 468> 591 21G<481 511.143> 644 79<252.47 417.483>
VStem: 74 100<225.695 487.359> 468 99<122 303>
Fore
468 303 m 1,0,-1
 438 303 l 2,1,2
 410 303 410 303 393.5 300.5 c 128,-1,3
 377 298 377 298 368 296.5 c 128,-1,4
 359 295 359 295 355.5 296.5 c 128,-1,5
 352 298 352 298 348 306 c 0,6,7
 340 321 340 321 338.5 347 c 128,-1,8
 337 373 337 373 342 382 c 1,9,-1
 567 382 l 1,10,-1
 567 80 l 1,11,12
 538 49 538 49 482.5 19.5 c 128,-1,13
 427 -10 427 -10 345 -10 c 0,14,15
 268 -10 268 -10 216 10.5 c 128,-1,16
 164 31 164 31 132 76 c 128,-1,17
 100 121 100 121 87 190 c 128,-1,18
 74 259 74 259 74 357 c 256,19,20
 74 454 74 454 87 523 c 128,-1,21
 100 592 100 592 132 637 c 128,-1,22
 164 682 164 682 216 702.5 c 128,-1,23
 268 723 268 723 345 723 c 0,24,25
 393 723 393 723 448.5 707.5 c 128,-1,26
 504 692 504 692 544 661 c 1,27,-1
 498 591 l 1,28,29
 464 620 464 620 425.5 632 c 128,-1,30
 387 644 387 644 343 644 c 0,31,32
 292 644 292 644 258.5 629 c 128,-1,33
 225 614 225 614 207 580.5 c 128,-1,34
 189 547 189 547 181.5 492.5 c 128,-1,35
 174 438 174 438 174 357 c 256,36,37
 174 275 174 275 181.5 220.5 c 128,-1,38
 189 166 189 166 207 132.5 c 128,-1,39
 225 99 225 99 258.5 84 c 128,-1,40
 292 69 292 69 343 69 c 0,41,42
 365 69 365 69 400 81 c 128,-1,43
 435 93 435 93 468 122 c 1,44,-1
 468 303 l 1,0,-1
EndSplineSet
EndChar
StartChar: H
Encoding: 72 72 41
Width: 671
VWidth: 1473
Flags: W
HStem: 0 21G<88 192 480 583> 336 76<192 480> 696 20G<88 192 480 583>
VStem: 88 104<0 336 412 716> 480 103<0 336 412 716>
Fore
480 412 m 1,0,-1
 480 716 l 1,1,-1
 583 716 l 1,2,-1
 583 0 l 1,3,-1
 480 0 l 1,4,-1
 480 336 l 1,5,-1
 192 336 l 1,6,-1
 192 0 l 1,7,-1
 88 0 l 1,8,-1
 88 716 l 1,9,-1
 192 716 l 1,10,-1
 192 412 l 1,11,-1
 480 412 l 1,0,-1
EndSplineSet
EndChar
StartChar: I
Encoding: 73 73 42
Width: 406
VWidth: 1473
Flags: W
HStem: 0 69<29 150 252 373> 647 69<34 150 252 377>
VStem: 150 102<69 647>
Fore
252 69 m 1,0,-1
 373 69 l 1,1,-1
 373 0 l 1,2,-1
 29 0 l 1,3,-1
 29 69 l 1,4,-1
 150 69 l 1,5,-1
 150 647 l 1,6,-1
 34 647 l 1,7,-1
 34 716 l 1,8,-1
 377 716 l 1,9,-1
 377 647 l 1,10,-1
 252 647 l 1,11,-1
 252 69 l 1,0,-1
EndSplineSet
EndChar
StartChar: J
Encoding: 74 74 43
Width: 487
VWidth: 1473
Flags: W
HStem: -10 79<114.978 247.209> 696 20G<296 399>
VStem: 296 103<211.391 257.266 257.266 716>
Fore
399 323 m 2,0,1
 399 225 399 225 390.5 161 c 128,-1,2
 382 97 382 97 359.5 59 c 128,-1,3
 337 21 337 21 298 5.5 c 128,-1,4
 259 -10 259 -10 199 -10 c 0,5,6
 150 -10 150 -10 102.5 5.5 c 128,-1,7
 55 21 55 21 15 52 c 1,8,-1
 60 122 l 1,9,10
 94 93 94 93 125 81 c 128,-1,11
 156 69 156 69 200 69 c 0,12,13
 230 69 230 69 248.5 78.5 c 128,-1,14
 267 88 267 88 278 115.5 c 128,-1,15
 289 143 289 143 292.5 192.5 c 128,-1,16
 296 242 296 242 296 323 c 2,17,-1
 296 716 l 1,18,-1
 399 716 l 1,19,-1
 399 323 l 2,0,1
EndSplineSet
EndChar
StartChar: K
Encoding: 75 75 44
Width: 639
VWidth: 1473
Flags: W
HStem: 0 21G<88 192 449.046 585> 696 20G<88 192 433.961 582>
VStem: 88 497<0 0 412 716> 88 104<0 280 412 716>
Fore
88 0 m 1,0,-1
 88 716 l 1,1,-1
 192 716 l 1,2,-1
 192 412 l 1,3,-1
 451 716 l 1,4,-1
 582 716 l 1,5,-1
 318 415 l 1,6,-1
 585 0 l 1,7,-1
 461 0 l 1,8,-1
 253 348 l 1,9,-1
 192 280 l 1,10,-1
 192 0 l 1,11,-1
 88 0 l 1,0,-1
EndSplineSet
EndChar
StartChar: L
Encoding: 76 76 45
Width: 524
VWidth: 1473
Flags: W
HStem: 0 77<192 510> 696 20G<88 192>
VStem: 88 104<77 716>
Fore
192 77 m 1,0,-1
 510 77 l 1,1,-1
 510 0 l 1,2,-1
 88 0 l 1,3,-1
 88 716 l 1,4,-1
 192 716 l 1,5,-1
 192 77 l 1,0,-1
EndSplineSet
EndChar
StartChar: M
Encoding: 77 77 46
Width: 857
VWidth: 1473
Flags: W
HStem: 0 21G<88 189 370.681 486.353 669 769> 696 20G<88 246.321 610.712 769>
VStem: 88 101<0 595> 669 100<0 595>
Fore
617 716 m 1,0,-1
 769 716 l 1,1,-1
 769 0 l 1,2,-1
 669 0 l 1,3,-1
 669 595 l 1,4,-1
 480 0 l 1,5,-1
 377 0 l 1,6,-1
 189 595 l 1,7,-1
 189 0 l 1,8,-1
 88 0 l 1,9,-1
 88 716 l 1,10,-1
 240 716 l 1,11,-1
 429 118 l 1,12,-1
 617 716 l 1,0,-1
EndSplineSet
EndChar
StartChar: N
Encoding: 78 78 47
Width: 701
VWidth: 1473
Flags: W
HStem: 0 21G<88 192 484.815 613> 696 20G<88 235.42 510 613>
VStem: 88 104<0 595> 510 103<169 716>
Fore
88 0 m 1,0,-1
 88 716 l 1,1,-1
 225 716 l 1,2,-1
 510 169 l 1,3,-1
 510 716 l 1,4,-1
 613 716 l 1,5,-1
 613 0 l 1,6,-1
 495 0 l 1,7,-1
 192 595 l 1,8,-1
 192 0 l 1,9,-1
 88 0 l 1,0,-1
EndSplineSet
EndChar
StartChar: O
Encoding: 79 79 48
Width: 695
VWidth: 1473
Flags: W
HStem: -9 84<254.524 439.367> 639 81<253.999 440.331>
VStem: 59 106<223.408 485.631> 530 106<233.66 472.749>
Fore
348 75 m 256,0,1
 399 75 399 75 433.5 90 c 128,-1,2
 468 105 468 105 489.5 138 c 128,-1,3
 511 171 511 171 520.5 222.5 c 128,-1,4
 530 274 530 274 530 349 c 0,5,6
 530 432 530 432 520.5 487 c 128,-1,7
 511 542 511 542 489.5 576 c 128,-1,8
 468 610 468 610 433.5 624.5 c 128,-1,9
 399 639 399 639 348 639 c 256,10,11
 296 639 296 639 260.5 624.5 c 128,-1,12
 225 610 225 610 204 576 c 128,-1,13
 183 542 183 542 174 487 c 128,-1,14
 165 432 165 432 165 349 c 0,15,16
 165 274 165 274 174 222.5 c 128,-1,17
 183 171 183 171 204 138 c 128,-1,18
 225 105 225 105 260.5 90 c 128,-1,19
 296 75 296 75 348 75 c 256,0,1
348 -9 m 0,20,21
 192 -9 192 -9 125.5 84 c 128,-1,22
 59 177 59 177 59 349 c 0,23,24
 59 533 59 533 124.5 626.5 c 128,-1,25
 190 720 190 720 348 720 c 0,26,27
 426 720 426 720 481 696.5 c 128,-1,28
 536 673 536 673 570.5 626.5 c 128,-1,29
 605 580 605 580 620.5 510 c 128,-1,30
 636 440 636 440 636 349 c 0,31,32
 636 264 636 264 620.5 197 c 128,-1,33
 605 130 605 130 570.5 84 c 128,-1,34
 536 38 536 38 481 14.5 c 128,-1,35
 426 -9 426 -9 348 -9 c 0,20,21
EndSplineSet
EndChar
StartChar: P
Encoding: 80 80 49
Width: 629
VWidth: 1473
Flags: W
HStem: 0 21G<88 192> 265 77<192 427.76> 639 77<192 429.111>
VStem: 88 104<0 265 342 639> 482 103<393.634 588.573>
Fore
192 639 m 1,0,-1
 192 342 l 1,1,-1
 311 342 l 2,2,3
 404 342 404 342 443 373.5 c 128,-1,4
 482 405 482 405 482 488 c 0,5,6
 482 575 482 575 444.5 607 c 128,-1,7
 407 639 407 639 326 639 c 2,8,-1
 192 639 l 1,0,-1
192 265 m 1,9,-1
 192 0 l 1,10,-1
 88 0 l 1,11,-1
 88 716 l 1,12,-1
 326 716 l 2,13,14
 399 716 399 716 448.5 702 c 128,-1,15
 498 688 498 688 528 660 c 128,-1,16
 558 632 558 632 571.5 589.5 c 128,-1,17
 585 547 585 547 585 488 c 0,18,19
 585 435 585 435 569.5 393.5 c 128,-1,20
 554 352 554 352 519.5 323.5 c 128,-1,21
 485 295 485 295 429.5 280 c 128,-1,22
 374 265 374 265 296 265 c 2,23,-1
 192 265 l 1,9,-1
EndSplineSet
EndChar
StartChar: Q
Encoding: 81 81 50
Width: 754
VWidth: 1473
Flags: W
HStem: -9 84<284.024 465.061> 639 81<283.761 469.96>
VStem: 88 106<223.408 483.562> 560 106<233.66 472.749>
Fore
377 75 m 256,0,1
 429 75 429 75 463.5 90 c 128,-1,2
 498 105 498 105 519.5 138 c 128,-1,3
 541 171 541 171 550.5 222.5 c 128,-1,4
 560 274 560 274 560 349 c 0,5,6
 560 432 560 432 550.5 487 c 128,-1,7
 541 542 541 542 519.5 576 c 128,-1,8
 498 610 498 610 463.5 624.5 c 128,-1,9
 429 639 429 639 377 639 c 256,10,11
 326 639 326 639 290.5 624.5 c 128,-1,12
 255 610 255 610 233.5 576 c 128,-1,13
 212 542 212 542 203 487 c 128,-1,14
 194 432 194 432 194 349 c 0,15,16
 194 274 194 274 203 222.5 c 128,-1,17
 212 171 212 171 233.5 138 c 128,-1,18
 255 105 255 105 290.5 90 c 128,-1,19
 326 75 326 75 377 75 c 256,0,1
377 -9 m 0,20,21
 221 -9 221 -9 154.5 84 c 128,-1,22
 88 177 88 177 88 349 c 0,23,24
 88 533 88 533 154 626.5 c 128,-1,25
 220 720 220 720 377 720 c 0,26,27
 455 720 455 720 510.5 696.5 c 128,-1,28
 566 673 566 673 600.5 626.5 c 128,-1,29
 635 580 635 580 650.5 510 c 128,-1,30
 666 440 666 440 666 349 c 0,31,32
 666 264 666 264 650.5 197 c 128,-1,33
 635 130 635 130 600.5 84 c 128,-1,34
 566 38 566 38 510.5 14.5 c 128,-1,35
 455 -9 455 -9 377 -9 c 0,20,21
445 215 m 1,36,-1
 666 -53 l 1,37,-1
 563 -77 l 1,38,-1
 368 193 l 1,39,-1
 445 215 l 1,36,-1
EndSplineSet
EndChar
StartChar: R
Encoding: 82 82 51
Width: 643
VWidth: 1473
Flags: W
HStem: 0 21G<88 192 452.481 582> 324 77<192 323> 625 91<192 435.758>
VStem: 88 104<0 324 401 625> 479 106<440.36 585.958>
Fore
326 716 m 2,0,1
 399 716 399 716 448.5 702.5 c 128,-1,2
 498 689 498 689 528 662.5 c 128,-1,3
 558 636 558 636 571.5 598 c 128,-1,4
 585 560 585 560 585 510 c 0,5,6
 585 430 585 430 539.5 383.5 c 128,-1,7
 494 337 494 337 427 329 c 1,8,-1
 582 0 l 1,9,-1
 461 0 l 1,10,-1
 323 324 l 1,11,-1
 192 324 l 1,12,-1
 192 0 l 1,13,-1
 88 0 l 1,14,-1
 88 716 l 1,15,-1
 326 716 l 2,0,1
192 401 m 1,16,-1
 340 401 l 2,17,18
 399 401 399 401 439 425 c 128,-1,19
 479 449 479 449 479 510 c 0,20,21
 479 575 479 575 441.5 600 c 128,-1,22
 404 625 404 625 326 625 c 2,23,-1
 192 625 l 1,24,-1
 192 401 l 1,16,-1
EndSplineSet
EndChar
StartChar: S
Encoding: 83 83 52
Width: 657
VWidth: 1473
Flags: W
HStem: -9 84<289.587 443.544> 636 83<231.899 409.529>
VStem: 59 99<142.653 204.07> 81 103<476.493 591.317> 495 103<121.623 237.802>
Fore
158 233 m 1,0,1
 169 186 169 186 190.5 155.5 c 128,-1,2
 212 125 212 125 239.5 107.5 c 128,-1,3
 267 90 267 90 298.5 82.5 c 128,-1,4
 330 75 330 75 361 75 c 0,5,6
 417 75 417 75 456 105.5 c 128,-1,7
 495 136 495 136 495 178 c 256,8,9
 495 221 495 221 464 247 c 128,-1,10
 433 273 433 273 387.5 292.5 c 128,-1,11
 342 312 342 312 288 329 c 128,-1,12
 234 346 234 346 188.5 371 c 128,-1,13
 143 396 143 396 112 434.5 c 128,-1,14
 81 473 81 473 81 532 c 0,15,16
 81 616 81 616 141.5 667.5 c 128,-1,17
 202 719 202 719 317 719 c 0,18,19
 414 719 414 719 482 669 c 128,-1,20
 550 619 550 619 579 523 c 1,21,-1
 485 504 l 1,22,23
 463 573 463 573 424 604.5 c 128,-1,24
 385 636 385 636 317 636 c 0,25,26
 255 636 255 636 219.5 606 c 128,-1,27
 184 576 184 576 184 532 c 0,28,29
 184 492 184 492 215 467.5 c 128,-1,30
 246 443 246 443 291.5 424 c 128,-1,31
 337 405 337 405 391 387.5 c 128,-1,32
 445 370 445 370 490.5 345 c 128,-1,33
 536 320 536 320 567 283 c 128,-1,34
 598 246 598 246 598 189 c 0,35,36
 598 103 598 103 536 47 c 128,-1,37
 474 -9 474 -9 359 -9 c 0,38,39
 234 -9 234 -9 163.5 44 c 128,-1,40
 93 97 93 97 59 212 c 1,41,-1
 158 233 l 1,0,1
EndSplineSet
EndChar
StartChar: T
Encoding: 84 84 53
Width: 545
VWidth: 1473
Flags: W
HStem: 0 21G<221 324> 639 77<15 221 324 530>
VStem: 221 103<0 639>
Fore
324 0 m 1,0,-1
 221 0 l 1,1,-1
 221 639 l 1,2,-1
 15 639 l 1,3,-1
 15 716 l 1,4,-1
 530 716 l 1,5,-1
 530 639 l 1,6,-1
 324 639 l 1,7,-1
 324 0 l 1,0,-1
EndSplineSet
EndChar
StartChar: U
Encoding: 85 85 54
Width: 724
VWidth: 1473
Flags: W
HStem: -9 83<276.289 447.199> 696 20G<88 192 533 636>
VStem: 88 104<222.031 716> 533 103<222.031 716>
Fore
533 716 m 1,0,-1
 636 716 l 1,1,-1
 636 301 l 2,2,3
 636 215 636 215 623 155.5 c 128,-1,4
 610 96 610 96 578.5 60 c 128,-1,5
 547 24 547 24 493.5 7.5 c 128,-1,6
 440 -9 440 -9 362 -9 c 256,7,8
 284 -9 284 -9 231 7.5 c 128,-1,9
 178 24 178 24 146.5 60 c 128,-1,10
 115 96 115 96 101.5 155.5 c 128,-1,11
 88 215 88 215 88 301 c 2,12,-1
 88 716 l 1,13,-1
 192 716 l 1,14,-1
 192 301 l 2,15,16
 192 225 192 225 201.5 181 c 128,-1,17
 211 137 211 137 230.5 112.5 c 128,-1,18
 250 88 250 88 283.5 81 c 128,-1,19
 317 74 317 74 362 74 c 256,20,21
 408 74 408 74 440.5 81 c 128,-1,22
 473 88 473 88 493.5 112.5 c 128,-1,23
 514 137 514 137 523.5 181 c 128,-1,24
 533 225 533 225 533 301 c 2,25,-1
 533 716 l 1,0,-1
EndSplineSet
EndChar
StartChar: V
Encoding: 86 86 55
Width: 652
VWidth: 1473
Flags: W
HStem: 0 21G<267.156 386.788> 696 20G<29 144.038 508.026 623>
Fore
514 716 m 1,0,-1
 623 716 l 1,1,-1
 380 0 l 1,2,-1
 274 0 l 1,3,-1
 29 716 l 1,4,-1
 138 716 l 1,5,-1
 327 90 l 1,6,-1
 514 716 l 1,0,-1
EndSplineSet
EndChar
StartChar: W
Encoding: 87 87 56
Width: 833
VWidth: 1473
Flags: W
HStem: 0 21G<155.369 281.568 552.432 678.603> 696 20G<29 140.881 362.209 471.791 692.152 804>
Fore
467 716 m 1,0,-1
 610 119 l 1,1,-1
 695 716 l 1,2,-1
 804 716 l 1,3,-1
 675 0 l 1,4,-1
 557 0 l 1,5,-1
 417 613 l 1,6,-1
 277 0 l 1,7,-1
 159 0 l 1,8,-1
 29 716 l 1,9,-1
 138 716 l 1,10,-1
 224 119 l 1,11,-1
 367 716 l 1,12,-1
 467 716 l 1,0,-1
EndSplineSet
EndChar
StartChar: X
Encoding: 88 88 57
Width: 617
VWidth: 1473
Flags: W
HStem: 0 21G<15 143.563 470.148 603> 696 20G<29 157.897 450.241 579>
Fore
29 716 m 1,0,-1
 147 716 l 1,1,-1
 305 426 l 1,2,-1
 461 716 l 1,3,-1
 579 716 l 1,4,-1
 365 355 l 1,5,-1
 603 0 l 1,6,-1
 483 0 l 1,7,-1
 305 277 l 1,8,-1
 131 0 l 1,9,-1
 15 0 l 1,10,-1
 246 355 l 1,11,-1
 29 716 l 1,0,-1
EndSplineSet
EndChar
StartChar: Y
Encoding: 89 89 58
Width: 623
VWidth: 1473
Flags: W
HStem: 0 21G<259 362> 696 20G<29 155.794 467.265 594>
VStem: 259 103<0 280>
Fore
362 0 m 1,0,-1
 259 0 l 1,1,-1
 259 280 l 1,2,-1
 29 716 l 1,3,-1
 146 716 l 1,4,-1
 312 377 l 1,5,-1
 477 716 l 1,6,-1
 594 716 l 1,7,-1
 362 280 l 1,8,-1
 362 0 l 1,0,-1
EndSplineSet
EndChar
StartChar: Z
Encoding: 90 90 59
Width: 583
VWidth: 1473
Flags: W
HStem: 0 77<177 524> 638 78<59 407>
VStem: 62 462<0 77 638 716 77 638 1.53064e-18 1.53064e-18>
Fore
407 638 m 1,0,-1
 59 638 l 1,1,-1
 59 716 l 1,2,-1
 517 716 l 1,3,-1
 517 633 l 1,4,-1
 177 77 l 1,5,-1
 524 77 l 1,6,-1
 524 0 l 1,7,-1
 62 0 l 1,8,-1
 62 77 l 1,9,-1
 407 638 l 1,0,-1
EndSplineSet
EndChar
StartChar: bracketleft
Encoding: 91 91 60
Width: 397
VWidth: 1473
Flags: W
HStem: -87 59<206 327> 803 59<206 327>
VStem: 105 101<-28 803> 105 222<-87 -28 803 862 -87 862 862 862>
Fore
327 862 m 1,0,-1
 327 803 l 1,1,-1
 206 803 l 1,2,-1
 206 -28 l 1,3,-1
 327 -28 l 1,4,-1
 327 -87 l 1,5,-1
 105 -87 l 1,6,-1
 105 862 l 1,7,-1
 327 862 l 1,0,-1
EndSplineSet
EndChar
StartChar: backslash
Encoding: 92 92 61
Width: 331
VWidth: 1473
Flags: W
HStem: -12 21G<240.108 346>
VStem: -15 361<-12 874 384.486 846.873>
Fore
-15 874 m 1,0,-1
 81 874 l 1,1,-1
 346 -12 l 1,2,-1
 246 -12 l 1,3,-1
 -15 874 l 1,0,-1
EndSplineSet
EndChar
StartChar: bracketright
Encoding: 93 93 62
Width: 397
VWidth: 1473
Flags: W
HStem: -87 59<71 192> 803 59<71 192>
VStem: 71 222<-87 -28 803 862 -87 862 -87 -87> 192 101<-28 803>
Fore
71 -87 m 1,0,-1
 71 -28 l 1,1,-1
 192 -28 l 1,2,-1
 192 803 l 1,3,-1
 71 803 l 1,4,-1
 71 862 l 1,5,-1
 293 862 l 1,6,-1
 293 -87 l 1,7,-1
 71 -87 l 1,0,-1
EndSplineSet
EndChar
StartChar: asciicircum
Encoding: 94 94 63
Width: 671
VWidth: 1473
Flags: W
HStem: 331 478<380 608 380 380>
Fore
380 809 m 1,0,-1
 608 331 l 1,1,-1
 505 331 l 1,2,-1
 333 698 l 1,3,-1
 166 331 l 1,4,-1
 63 331 l 1,5,-1
 290 809 l 1,6,-1
 380 809 l 1,0,-1
EndSplineSet
EndChar
StartChar: underscore
Encoding: 95 95 64
Width: 699
VWidth: 1473
Flags: W
HStem: -175 85<0 700>
Fore
0 -175 m 1,0,-1
 0 -90 l 1,1,-1
 700 -90 l 1,2,-1
 700 -175 l 1,3,-1
 0 -175 l 1,0,-1
EndSplineSet
EndChar
StartChar: grave
Encoding: 96 96 65
Width: 248
VWidth: 1473
Flags: W
HStem: 647 154<100 194 100 100>
Fore
100 801 m 1,0,-1
 194 647 l 1,1,-1
 122 647 l 1,2,-1
 -15 801 l 1,3,-1
 100 801 l 1,0,-1
EndSplineSet
EndChar
StartChar: a
Encoding: 97 97 66
Width: 559
VWidth: 1473
Flags: W
HStem: -12 69<140.375 258.088> 284 70<228.573 370> 526 68<204.831 317.476>
VStem: 29 92<78.796 208.105> 370 96<153 284 354 454.553>
Fore
29 474 m 1,0,1
 44 494 44 494 68.5 514.5 c 128,-1,2
 93 535 93 535 124 552.5 c 128,-1,3
 155 570 155 570 191 582 c 128,-1,4
 227 594 227 594 262 594 c 0,5,6
 357 594 357 594 411.5 554 c 128,-1,7
 466 514 466 514 466 411 c 2,8,-1
 466 175 l 2,9,10
 466 119 466 119 474.5 78 c 128,-1,11
 483 37 483 37 496 12 c 1,12,13
 489 7 489 7 477.5 3.5 c 128,-1,14
 466 0 466 0 454 -2 c 128,-1,15
 442 -4 442 -4 431 -5.5 c 128,-1,16
 420 -7 420 -7 414 -7 c 256,17,18
 408 -7 408 -7 401.5 -5 c 128,-1,19
 395 -3 395 -3 390 7 c 0,20,21
 387 15 387 15 386 25 c 128,-1,22
 385 35 385 35 382 46 c 128,-1,23
 379 57 379 57 377 71 c 1,24,25
 355 49 355 49 336 33.5 c 128,-1,26
 317 18 317 18 295.5 8.5 c 128,-1,27
 274 -1 274 -1 248 -6.5 c 128,-1,28
 222 -12 222 -12 189 -12 c 0,29,30
 121 -12 121 -12 75 35 c 128,-1,31
 29 82 29 82 29 156 c 0,32,33
 29 215 29 215 48.5 252 c 128,-1,34
 68 289 68 289 110 310 c 128,-1,35
 152 331 152 331 216.5 340 c 128,-1,36
 281 349 281 349 373 354 c 1,37,-1
 373 423 l 2,38,39
 373 454 373 454 362 474.5 c 128,-1,40
 351 495 351 495 335.5 506 c 128,-1,41
 320 517 320 517 302 521.5 c 128,-1,42
 284 526 284 526 271 526 c 0,43,44
 215 526 215 526 176.5 498.5 c 128,-1,45
 138 471 138 471 102 427 c 0,46,47
 99 423 99 423 90 426 c 128,-1,48
 81 429 81 429 70 437 c 128,-1,49
 59 445 59 445 48 455.5 c 128,-1,50
 37 466 37 466 29 474 c 1,0,1
370 284 m 1,51,52
 277 283 277 283 227 270.5 c 128,-1,53
 177 258 177 258 153.5 239 c 128,-1,54
 130 220 130 220 125.5 194.5 c 128,-1,55
 121 169 121 169 121 143 c 0,56,57
 121 105 121 105 138 81 c 128,-1,58
 155 57 155 57 200 57 c 0,59,60
 247 57 247 57 286.5 83 c 128,-1,61
 326 109 326 109 370 153 c 1,62,-1
 370 284 l 1,51,52
EndSplineSet
Substitution2: "Single Substitution lookup 27 subtable" uni0E38
Substitution2: "Single Substitution lookup 27 subtable" uni0E38
EndChar
StartChar: b
Encoding: 98 98 67
Width: 611
VWidth: 1473
Flags: W
HStem: -12 69<300.479 420.797> 526 68<298.922 420.187> 789 20G<103 196>
VStem: 103 93<164 180 180 457 544 809> 474 96<127.626 426.004>
Fore
196 164 m 1,0,1
 228 118 228 118 271.5 87.5 c 128,-1,2
 315 57 315 57 355 57 c 0,3,4
 421 57 421 57 447.5 114 c 128,-1,5
 474 171 474 171 474 283 c 0,6,7
 474 345 474 345 470.5 391.5 c 128,-1,8
 467 438 467 438 453.5 467 c 128,-1,9
 440 496 440 496 416 511 c 128,-1,10
 392 526 392 526 352 526 c 0,11,12
 314 526 314 526 274 506 c 128,-1,13
 234 486 234 486 196 457 c 1,14,-1
 196 164 l 1,0,1
196 544 m 1,15,16
 237 569 237 569 280 581.5 c 128,-1,17
 323 594 323 594 370 594 c 0,18,19
 483 594 483 594 526.5 514.5 c 128,-1,20
 570 435 570 435 570 295 c 0,21,22
 570 134 570 134 515.5 61 c 128,-1,23
 461 -12 461 -12 359 -12 c 0,24,25
 329 -12 329 -12 306.5 -6.5 c 128,-1,26
 284 -1 284 -1 264.5 9 c 128,-1,27
 245 19 245 19 226.5 36 c 128,-1,28
 208 53 208 53 186 75 c 1,29,-1
 183 46 l 2,30,31
 181 34 181 34 179 23.5 c 128,-1,32
 177 13 177 13 174 7 c 0,33,34
 166 -4 166 -4 153 -4 c 0,35,36
 141 -4 141 -4 114.5 -1.5 c 128,-1,37
 88 1 88 1 77 7 c 1,38,39
 80 16 80 16 84 34 c 128,-1,40
 88 52 88 52 92.5 75.5 c 128,-1,41
 97 99 97 99 100 126 c 128,-1,42
 103 153 103 153 103 180 c 2,43,-1
 103 809 l 1,44,-1
 196 809 l 1,45,-1
 196 544 l 1,15,16
EndSplineSet
Substitution2: "Single Substitution lookup 27 subtable" uni0E39
Substitution2: "Single Substitution lookup 27 subtable" uni0E39
EndChar
StartChar: c
Encoding: 99 99 68
Width: 533
VWidth: 1473
Flags: W
HStem: -10 67<212.644 321.933> 526 68<209.325 323.257>
VStem: 41 96<151.762 431.738>
Fore
41 292 m 256,0,1
 41 432 41 432 95.5 513 c 128,-1,2
 150 594 150 594 274 594 c 0,3,4
 346 594 346 594 399 560 c 128,-1,5
 452 526 452 526 492 474 c 1,6,7
 485 466 485 466 474 455.5 c 128,-1,8
 463 445 463 445 452.5 437 c 128,-1,9
 442 429 442 429 433 426 c 128,-1,10
 424 423 424 423 420 427 c 0,11,12
 402 449 402 449 386 467.5 c 128,-1,13
 370 486 370 486 352 499.5 c 128,-1,14
 334 513 334 513 313.5 519.5 c 128,-1,15
 293 526 293 526 265 526 c 0,16,17
 243 526 243 526 220 521 c 128,-1,18
 197 516 197 516 179 492 c 128,-1,19
 161 468 161 468 149 421 c 128,-1,20
 137 374 137 374 137 292 c 256,21,22
 137 209 137 209 149 162 c 128,-1,23
 161 115 161 115 179 92 c 128,-1,24
 197 69 197 69 220 63 c 128,-1,25
 243 57 243 57 265 57 c 0,26,27
 293 57 293 57 313.5 64 c 128,-1,28
 334 71 334 71 352 84 c 128,-1,29
 370 97 370 97 386 115.5 c 128,-1,30
 402 134 402 134 420 156 c 0,31,32
 424 161 424 161 433 158 c 128,-1,33
 442 155 442 155 452.5 146.5 c 128,-1,34
 463 138 463 138 474 128 c 128,-1,35
 485 118 485 118 492 109 c 1,36,37
 452 57 452 57 399 23.5 c 128,-1,38
 346 -10 346 -10 274 -10 c 0,39,40
 150 -10 150 -10 95.5 71 c 128,-1,41
 41 152 41 152 41 292 c 256,0,1
EndSplineSet
Substitution2: "Single Substitution lookup 27 subtable" uni0E3A
Substitution2: "Single Substitution lookup 27 subtable" uni0E3A
EndChar
StartChar: d
Encoding: 100 100 69
Width: 611
VWidth: 1473
Flags: W
HStem: -12 69<190.203 294.063> 526 68<191.974 323.045> 789 20G<415 508>
VStem: 41 96<127.626 422.929> 415 93<164 457 551 809>
Fore
415 457 m 1,0,1
 386 486 386 486 347.5 506 c 128,-1,2
 309 526 309 526 259 526 c 0,3,4
 220 526 220 526 195.5 511 c 128,-1,5
 171 496 171 496 157.5 467 c 128,-1,6
 144 438 144 438 140.5 391.5 c 128,-1,7
 137 345 137 345 137 283 c 0,8,9
 137 171 137 171 163.5 114 c 128,-1,10
 190 57 190 57 256 57 c 0,11,12
 287 57 287 57 310 65.5 c 128,-1,13
 333 74 333 74 350.5 88 c 128,-1,14
 368 102 368 102 383.5 121.5 c 128,-1,15
 399 141 399 141 415 164 c 1,16,-1
 415 457 l 1,0,1
415 809 m 1,17,-1
 508 809 l 1,18,-1
 508 180 l 2,19,20
 508 153 508 153 511 126 c 128,-1,21
 514 99 514 99 518.5 75.5 c 128,-1,22
 523 52 523 52 527.5 34 c 128,-1,23
 532 16 532 16 535 7 c 1,24,25
 523 1 523 1 496.5 -1.5 c 128,-1,26
 470 -4 470 -4 458 -4 c 0,27,28
 445 -4 445 -4 438 7 c 0,29,30
 435 13 435 13 432.5 23.5 c 128,-1,31
 430 34 430 34 429 46 c 2,32,-1
 426 75 l 1,33,34
 404 53 404 53 385.5 36 c 128,-1,35
 367 19 367 19 347 9 c 128,-1,36
 327 -1 327 -1 305 -6.5 c 128,-1,37
 283 -12 283 -12 252 -12 c 0,38,39
 150 -12 150 -12 95.5 61 c 128,-1,40
 41 134 41 134 41 295 c 0,41,42
 41 435 41 435 88.5 514.5 c 128,-1,43
 136 594 136 594 249 594 c 0,44,45
 278 594 278 594 300.5 591 c 128,-1,46
 323 588 323 588 341 582.5 c 128,-1,47
 359 577 359 577 377 569 c 128,-1,48
 395 561 395 561 415 551 c 1,49,-1
 415 809 l 1,17,-1
EndSplineSet
EndChar
StartChar: e
Encoding: 101 101 70
Width: 565
VWidth: 1473
Flags: W
HStem: -13 78<228.417 381.525> 267 69<137 423> 526 68<202.178 365.12>
VStem: 41 483<106 289 333 442.289> 41 96<170.224 267 336 445.289>
Fore
423 336 m 1,0,1
 423 433 423 433 390.5 479.5 c 128,-1,2
 358 526 358 526 281 526 c 0,3,4
 215 526 215 526 176 482 c 128,-1,5
 137 438 137 438 137 336 c 1,6,-1
 423 336 l 1,0,1
137 267 m 1,7,8
 137 208 137 208 149.5 169 c 128,-1,9
 162 130 162 130 182.5 107 c 128,-1,10
 203 84 203 84 229 74.5 c 128,-1,11
 255 65 255 65 280 65 c 0,12,13
 342 65 342 65 381 85 c 128,-1,14
 420 105 420 105 452 152 c 0,15,16
 455 156 455 156 464 153 c 128,-1,17
 473 150 473 150 484 143 c 128,-1,18
 495 136 495 136 506 125.5 c 128,-1,19
 517 115 517 115 524 106 c 1,20,21
 485 55 485 55 423 21 c 128,-1,22
 361 -13 361 -13 289 -13 c 0,23,24
 169 -13 169 -13 105 62 c 128,-1,25
 41 137 41 137 41 289 c 2,26,-1
 41 292 l 2,27,28
 41 449 41 449 104.5 521.5 c 128,-1,29
 168 594 168 594 280 594 c 0,30,31
 355 594 355 594 401.5 568 c 128,-1,32
 448 542 448 542 472 498 c 128,-1,33
 496 454 496 454 504.5 394 c 128,-1,34
 513 334 513 334 513 267 c 1,35,-1
 137 267 l 1,7,8
EndSplineSet
EndChar
StartChar: f
Encoding: 102 102 71
Width: 312
VWidth: 1473
Flags: W
HStem: 0 21G<93 189> 514 68<12 93 189 293> 744 77<205.102 298.519>
VStem: 12 314.5<514 758.5 514 618> 93 96<0 514 582 728.01>
Fore
318 810 m 1,0,1
 323 801 323 801 325 786.5 c 128,-1,2
 327 772 327 772 326.5 758.5 c 128,-1,3
 326 745 326 745 322 735.5 c 128,-1,4
 318 726 318 726 312 729 c 0,5,6
 281 744 281 744 243 744 c 0,7,8
 225 744 225 744 207 728.5 c 128,-1,9
 189 713 189 713 189 673 c 2,10,-1
 189 582 l 1,11,-1
 293 582 l 1,12,-1
 293 514 l 1,13,-1
 189 514 l 1,14,-1
 189 0 l 1,15,-1
 93 0 l 1,16,-1
 93 514 l 1,17,-1
 12 514 l 1,18,-1
 12 582 l 1,19,-1
 93 582 l 1,20,-1
 93 664 l 2,21,22
 93 741 93 741 132 781 c 128,-1,23
 171 821 171 821 246 821 c 0,24,25
 281 821 281 821 318 810 c 1,0,1
EndSplineSet
EndChar
StartChar: g
Encoding: 103 103 72
Width: 559
VWidth: 1473
Flags: W
HStem: -206 68<154.944 401.43> 28 75<167.139 344.594> 197 69<197.5 223.5 227.5 246.113 246.113 253.725 249.919 327.498> 526 68<198.766 342.925> 544 78<497.163 533>
VStem: 22 90<-105.305 -6.12433> 47 83<123.088 183.665> 50 97<319.7 475.136> 390 98<303.464 459.633> 452 90<-102.087 -12.4695>
Fore
401 558 m 1,0,1
 424 583 424 583 458 602.5 c 128,-1,2
 492 622 492 622 523 622 c 0,3,4
 541 622 541 622 541 604 c 0,5,6
 541 594 541 594 540 583 c 128,-1,7
 539 572 539 572 538 563 c 0,8,9
 536 552 536 552 533 544 c 1,10,11
 504 544 504 544 485 537 c 128,-1,12
 466 530 466 530 448 516 c 1,13,14
 468 491 468 491 478 464.5 c 128,-1,15
 488 438 488 438 488 395 c 0,16,17
 488 342 488 342 470 303 c 128,-1,18
 452 264 452 264 421 239.5 c 128,-1,19
 390 215 390 215 349 203.5 c 128,-1,20
 308 192 308 192 262 192 c 0,21,22
 245 192 245 192 223.5 197 c 128,-1,23
 202 202 202 202 180 211 c 1,24,25
 152 199 152 199 141 185 c 128,-1,26
 130 171 130 171 130 155 c 0,27,28
 130 130 130 130 166 116.5 c 128,-1,29
 202 103 202 103 295 103 c 0,30,31
 426 103 426 103 484 63.5 c 128,-1,32
 542 24 542 24 542 -47 c 0,33,34
 542 -80 542 -80 529 -108.5 c 128,-1,35
 516 -137 516 -137 485 -159 c 128,-1,36
 454 -181 454 -181 403 -193.5 c 128,-1,37
 352 -206 352 -206 277 -206 c 256,38,39
 202 -206 202 -206 152.5 -194.5 c 128,-1,40
 103 -183 103 -183 74.5 -163.5 c 128,-1,41
 46 -144 46 -144 34 -119 c 128,-1,42
 22 -94 22 -94 22 -69 c 0,43,44
 22 -31 22 -31 42.5 0.5 c 128,-1,45
 63 32 63 32 125 55 c 1,46,-1
 125 57 l 1,47,48
 84 65 84 65 65.5 87.5 c 128,-1,49
 47 110 47 110 47 136 c 0,50,51
 47 174 47 174 68.5 201 c 128,-1,52
 90 228 90 228 125 240 c 1,53,54
 96 256 96 256 73 296.5 c 128,-1,55
 50 337 50 337 50 383 c 0,56,57
 50 480 50 480 112.5 537 c 128,-1,58
 175 594 175 594 281 594 c 0,59,60
 324 594 324 594 356.5 580 c 128,-1,61
 389 566 389 566 401 558 c 1,0,1
262 28 m 0,62,63
 184 28 184 28 148 5 c 128,-1,64
 112 -18 112 -18 112 -56 c 0,65,66
 112 -99 112 -99 154.5 -118.5 c 128,-1,67
 197 -138 197 -138 267 -138 c 0,68,69
 354 -138 354 -138 403 -118.5 c 128,-1,70
 452 -99 452 -99 452 -53 c 0,71,72
 452 -35 452 -35 447 -19.5 c 128,-1,73
 442 -4 442 -4 423 6 c 128,-1,74
 404 16 404 16 365.5 22 c 128,-1,75
 327 28 327 28 262 28 c 0,62,63
147 390 m 0,76,77
 147 354 147 354 159 328 c 128,-1,78
 171 302 171 302 188.5 287.5 c 128,-1,79
 206 273 206 273 227.5 266 c 128,-1,80
 249 259 249 259 268 259 c 0,81,82
 317 259 317 259 353.5 287 c 128,-1,83
 390 315 390 315 390 390 c 0,84,85
 390 467 390 467 353.5 496.5 c 128,-1,86
 317 526 317 526 268 526 c 0,87,88
 221 526 221 526 184 493 c 128,-1,89
 147 460 147 460 147 390 c 0,76,77
EndSplineSet
EndChar
StartChar: h
Encoding: 104 104 73
Width: 637
VWidth: 1473
Flags: W
HStem: 0 21G<93 189 448 545> 526 68<283.168 418.083> 789 20G<93 189>
VStem: 93 452<429 492 0 398 1.53064e-18 1.53064e-18> 93 96<0 429 505 809> 448 97<0 494.021>
Fore
93 0 m 1,0,-1
 93 809 l 1,1,-1
 189 809 l 1,2,-1
 189 505 l 1,3,4
 224 548 224 548 277 571 c 128,-1,5
 330 594 330 594 373 594 c 0,6,7
 464 594 464 594 504.5 543 c 128,-1,8
 545 492 545 492 545 398 c 2,9,-1
 545 0 l 1,10,-1
 448 0 l 1,11,-1
 448 390 l 2,12,13
 448 464 448 464 426.5 495 c 128,-1,14
 405 526 405 526 359 526 c 0,15,16
 317 526 317 526 269.5 496.5 c 128,-1,17
 222 467 222 467 189 429 c 1,18,-1
 189 0 l 1,19,-1
 93 0 l 1,0,-1
EndSplineSet
EndChar
StartChar: i
Encoding: 105 105 74
Width: 263
VWidth: 1473
Flags: W
HStem: 0 21G<84 180> 562 20G<84 180> 710 99<84 180>
VStem: 84 96<0 582 710 809>
Fore
180 0 m 1,0,-1
 84 0 l 1,1,-1
 84 582 l 1,2,-1
 180 582 l 1,3,-1
 180 0 l 1,0,-1
84 710 m 1,4,-1
 84 809 l 1,5,-1
 180 809 l 1,6,-1
 180 710 l 1,7,-1
 84 710 l 1,4,-1
EndSplineSet
EndChar
StartChar: j
Encoding: 106 106 75
Width: 248
VWidth: 1473
Flags: W
HStem: -205.5 83.5<-7.36865 20.123 6.3772 59.2578> 562 20G<77 172> 710 99<77 172>
VStem: 77 95<-111.682 582 710 809>
Fore
-63 -99 m 0,0,1
 -53 -105 -53 -105 -26 -113.5 c 128,-1,2
 1 -122 1 -122 22 -122 c 0,3,4
 46 -122 46 -122 61.5 -112 c 128,-1,5
 77 -102 77 -102 77 -71 c 2,6,-1
 77 582 l 1,7,-1
 172 582 l 1,8,-1
 172 -63 l 2,9,10
 172 -134 172 -134 131.5 -170 c 128,-1,11
 91 -206 91 -206 31 -206 c 0,12,13
 24 -206 24 -206 9 -205.5 c 128,-1,14
 -6 -205 -6 -205 -21.5 -204 c 128,-1,15
 -37 -203 -37 -203 -50 -201.5 c 128,-1,16
 -63 -200 -63 -200 -69 -197 c 1,17,18
 -78 -186 -78 -186 -81 -167.5 c 128,-1,19
 -84 -149 -84 -149 -83 -132 c 128,-1,20
 -82 -115 -82 -115 -77 -104.5 c 128,-1,21
 -72 -94 -72 -94 -63 -99 c 0,0,1
77 710 m 1,22,-1
 77 809 l 1,23,-1
 172 809 l 1,24,-1
 172 710 l 1,25,-1
 77 710 l 1,22,-1
EndSplineSet
EndChar
StartChar: k
Encoding: 107 107 76
Width: 586
VWidth: 1473
Flags: W
HStem: 0 21G<93 186 419.282 561> 562 20G<388.506 533> 789 20G<93 186>
VStem: 93 468<0 0 343 809> 93 93<0 227 343 809>
Fore
93 0 m 1,0,-1
 93 809 l 1,1,-1
 186 809 l 1,2,-1
 186 343 l 1,3,-1
 407 582 l 1,4,-1
 533 582 l 1,5,-1
 277 321 l 1,6,-1
 561 0 l 1,7,-1
 436 0 l 1,8,-1
 217 262 l 1,9,-1
 186 227 l 1,10,-1
 186 0 l 1,11,-1
 93 0 l 1,0,-1
EndSplineSet
EndChar
StartChar: l
Encoding: 108 108 77
Width: 263
VWidth: 1473
Flags: W
HStem: 0 21G<84 180> 789 20G<84 180>
VStem: 84 96<0 809>
Fore
84 809 m 1,0,-1
 180 809 l 1,1,-1
 180 0 l 1,2,-1
 84 0 l 1,3,-1
 84 809 l 1,0,-1
EndSplineSet
EndChar
StartChar: m
Encoding: 109 109 78
Width: 947
VWidth: 1473
Flags: W
HStem: 0 21G<93 189 426 522 757 854> 519 75<300.687 405.491 602.352 735.459>
VStem: 93 96<0 414 508 582> 426 96<0 414> 757 97<0 501.764>
Fore
93 0 m 1,0,-1
 93 582 l 1,1,-1
 189 582 l 1,2,-1
 189 508 l 1,3,4
 233 555 233 555 279.5 574.5 c 128,-1,5
 326 594 326 594 359 594 c 0,6,7
 477 594 477 594 501 502 c 1,8,9
 541 548 541 548 586 571 c 128,-1,10
 631 594 631 594 694 594 c 0,11,12
 770 594 770 594 812 553.5 c 128,-1,13
 854 513 854 513 854 435 c 2,14,-1
 854 0 l 1,15,-1
 757 0 l 1,16,-1
 757 442 l 2,17,18
 757 491 757 491 731.5 505 c 128,-1,19
 706 519 706 519 679 519 c 0,20,21
 629 519 629 519 588.5 488 c 128,-1,22
 548 457 548 457 522 414 c 1,23,-1
 522 0 l 1,24,-1
 426 0 l 1,25,-1
 426 442 l 2,26,27
 426 480 426 480 405.5 499.5 c 128,-1,28
 385 519 385 519 346 519 c 0,29,30
 327 519 327 519 305 510.5 c 128,-1,31
 283 502 283 502 261.5 487.5 c 128,-1,32
 240 473 240 473 221 454 c 128,-1,33
 202 435 202 435 189 414 c 1,34,-1
 189 0 l 1,35,-1
 93 0 l 1,0,-1
EndSplineSet
EndChar
StartChar: n
Encoding: 110 110 79
Width: 652
VWidth: 1473
Flags: W
HStem: 0 21G<93 189 463 560> 519 75<282.593 427.061>
VStem: 93 467<414 445 0 398 1.53064e-18 1.53064e-18> 93 96<0 414 505 582> 463 97<0 479.872>
Fore
93 0 m 1,0,-1
 93 582 l 1,1,-1
 189 582 l 1,2,-1
 189 505 l 1,3,4
 224 554 224 554 279 574 c 128,-1,5
 334 594 334 594 387 594 c 0,6,7
 421 594 421 594 453 580.5 c 128,-1,8
 485 567 485 567 508.5 542 c 128,-1,9
 532 517 532 517 546 481 c 128,-1,10
 560 445 560 445 560 398 c 2,11,-1
 560 0 l 1,12,-1
 463 0 l 1,13,-1
 463 390 l 2,14,15
 463 464 463 464 434 491.5 c 128,-1,16
 405 519 405 519 359 519 c 0,17,18
 317 519 317 519 269.5 490 c 128,-1,19
 222 461 222 461 189 414 c 1,20,-1
 189 0 l 1,21,-1
 93 0 l 1,0,-1
EndSplineSet
EndChar
StartChar: o
Encoding: 111 111 80
Width: 574
VWidth: 1473
Flags: W
HStem: -12 69<202.662 371.926> 526 68<202.662 371.926>
VStem: 41 96<152.507 430.511> 438 95<152.507 430.511>
Fore
287 526 m 256,0,1
 202 526 202 526 169.5 468.5 c 128,-1,2
 137 411 137 411 137 292 c 256,3,4
 137 172 137 172 169.5 114.5 c 128,-1,5
 202 57 202 57 287 57 c 256,6,7
 373 57 373 57 405.5 114.5 c 128,-1,8
 438 172 438 172 438 292 c 256,9,10
 438 411 438 411 405.5 468.5 c 128,-1,11
 373 526 373 526 287 526 c 256,0,1
287 594 m 0,12,13
 357 594 357 594 403 573 c 128,-1,14
 449 552 449 552 478.5 513 c 128,-1,15
 508 474 508 474 520.5 418 c 128,-1,16
 533 362 533 362 533 292 c 256,17,18
 533 221 533 221 520.5 165 c 128,-1,19
 508 109 508 109 478.5 69 c 128,-1,20
 449 29 449 29 403 8.5 c 128,-1,21
 357 -12 357 -12 287 -12 c 0,22,23
 220 -12 220 -12 172.5 8.5 c 128,-1,24
 125 29 125 29 96.5 69 c 128,-1,25
 68 109 68 109 54.5 165 c 128,-1,26
 41 221 41 221 41 292 c 256,27,28
 41 362 41 362 54.5 418 c 128,-1,29
 68 474 68 474 96.5 513 c 128,-1,30
 125 552 125 552 172.5 573 c 128,-1,31
 220 594 220 594 287 594 c 0,12,13
EndSplineSet
EndChar
StartChar: p
Encoding: 112 112 81
Width: 606
VWidth: 1473
Flags: W
HStem: -206 21G<103 196> -12 68<256.023 399.474> 524 70<273.066 422.712>
VStem: 103 93<-206 16 103 405.3 405.3 418> 474 96<145.814 412.961>
Fore
196 103 m 1,0,1
 222 82 222 82 251 69 c 128,-1,2
 280 56 280 56 308 56 c 0,3,4
 401 56 401 56 437.5 115 c 128,-1,5
 474 174 474 174 474 299 c 0,6,7
 474 361 474 361 470 403.5 c 128,-1,8
 466 446 466 446 453 472.5 c 128,-1,9
 440 499 440 499 416.5 511.5 c 128,-1,10
 393 524 393 524 355 524 c 0,11,12
 293 524 293 524 257.5 494 c 128,-1,13
 222 464 222 464 196 418 c 1,14,-1
 196 103 l 1,0,1
87 567 m 1,15,16
 100 570 100 570 115 575 c 0,17,18
 141 582 141 582 165 582 c 0,19,20
 178 582 178 582 187 568.5 c 128,-1,21
 196 555 196 555 196 523 c 2,22,-1
 196 507 l 1,23,-1
 197 507 l 1,24,25
 231 558 231 558 275.5 576 c 128,-1,26
 320 594 320 594 367 594 c 0,27,28
 418 594 418 594 456 577.5 c 128,-1,29
 494 561 494 561 519.5 525 c 128,-1,30
 545 489 545 489 557.5 431 c 128,-1,31
 570 373 570 373 570 287 c 0,32,33
 570 147 570 147 505 67.5 c 128,-1,34
 440 -12 440 -12 326 -12 c 0,35,36
 253 -12 253 -12 196 16 c 1,37,-1
 196 -206 l 1,38,-1
 103 -206 l 1,39,-1
 103 386 l 2,40,41
 103 399 103 399 102.5 425 c 128,-1,42
 102 451 102 451 99.5 478 c 128,-1,43
 97 505 97 505 94 530 c 128,-1,44
 91 555 91 555 87 567 c 1,15,16
EndSplineSet
EndChar
StartChar: q
Encoding: 113 113 82
Width: 611
VWidth: 1473
Flags: W
HStem: -206 21G<415 508> -12 68<195.567 306.527> 524 70<190.945 333.483>
VStem: 41 486<287 567 287 567 276.587 287> 41 99<135.633 244.512 190.072 455.147> 415 93<-206 31 118 407.587 407.587 418>
Fore
420 514 m 1,0,1
 423 582 423 582 446 582 c 0,2,3
 471 582 471 582 498 575 c 0,4,5
 513 570 513 570 527 567 c 1,6,7
 523 555 523 555 519.5 532.5 c 128,-1,8
 516 510 516 510 513.5 483.5 c 128,-1,9
 511 457 511 457 509.5 431 c 128,-1,10
 508 405 508 405 508 386 c 2,11,-1
 508 -206 l 1,12,-1
 415 -206 l 1,13,-1
 415 31 l 1,14,15
 368 4 368 4 328.5 -4 c 128,-1,16
 289 -12 289 -12 264 -12 c 0,17,18
 149 -12 149 -12 95 67.5 c 128,-1,19
 41 147 41 147 41 287 c 0,20,21
 41 448 41 448 92 521 c 128,-1,22
 143 594 143 594 245 594 c 0,23,24
 305 594 305 594 343.5 574 c 128,-1,25
 382 554 382 554 420 514 c 1,0,1
415 418 m 1,26,27
 383 464 383 464 345.5 494 c 128,-1,28
 308 524 308 524 256 524 c 0,29,30
 190 524 190 524 163.5 467.5 c 128,-1,31
 137 411 137 411 137 299 c 0,32,33
 137 237 137 237 140 190.5 c 128,-1,34
 143 144 143 144 157.5 114.5 c 128,-1,35
 172 85 172 85 201 70.5 c 128,-1,36
 230 56 230 56 281 56 c 0,37,38
 309 56 309 56 349.5 71.5 c 128,-1,39
 390 87 390 87 415 118 c 1,40,-1
 415 418 l 1,26,27
EndSplineSet
EndChar
StartChar: r
Encoding: 114 114 83
Width: 424
VWidth: 1473
Flags: W
HStem: 0 21G<87 184> 489 105<283.735 380.613>
VStem: 87 97<0 387.997 486 582>
Fore
336 489 m 256,0,1
 308 489 308 489 280.5 477.5 c 128,-1,2
 253 466 253 466 232 443.5 c 128,-1,3
 211 421 211 421 197.5 389 c 128,-1,4
 184 357 184 357 184 314 c 2,5,-1
 184 0 l 1,6,-1
 87 0 l 1,7,-1
 87 582 l 1,8,-1
 184 582 l 1,9,-1
 184 486 l 1,10,-1
 186 486 l 1,11,12
 209 541 209 541 253.5 567.5 c 128,-1,13
 298 594 298 594 354 594 c 0,14,15
 361 594 361 594 378 592.5 c 128,-1,16
 395 591 395 591 404 586 c 1,17,18
 408 576 408 576 407.5 557.5 c 128,-1,19
 407 539 407 539 403 520.5 c 128,-1,20
 399 502 399 502 394 489 c 128,-1,21
 389 476 389 476 386 476 c 1,22,23
 364 489 364 489 336 489 c 256,0,1
EndSplineSet
EndChar
StartChar: s
Encoding: 115 115 84
Width: 511
VWidth: 1473
Flags: W
HStem: -12 69<181.751 287.214> 526 68<193.294 296.211>
VStem: 44 97<389.481 483.949> 358 97<111.173 212.339>
Fore
253 -12 m 0,0,1
 186 -12 186 -12 127.5 16 c 128,-1,2
 69 44 69 44 28 106 c 1,3,4
 38 118 38 118 49 127 c 0,5,6
 57 134 57 134 65.5 142 c 128,-1,7
 74 150 74 150 80 153 c 0,8,9
 96 161 96 161 106 147 c 0,10,11
 144 99 144 99 182 78 c 128,-1,12
 220 57 220 57 258 57 c 0,13,14
 274 57 274 57 291.5 64 c 128,-1,15
 309 71 309 71 324 82.5 c 128,-1,16
 339 94 339 94 348.5 112.5 c 128,-1,17
 358 131 358 131 358 155 c 0,18,19
 358 193 358 193 334.5 214.5 c 128,-1,20
 311 236 311 236 276.5 250 c 128,-1,21
 242 264 242 264 201.5 275 c 128,-1,22
 161 286 161 286 126 304.5 c 128,-1,23
 91 323 91 323 67.5 353 c 128,-1,24
 44 383 44 383 44 435 c 0,25,26
 44 476 44 476 59.5 506 c 128,-1,27
 75 536 75 536 100 555.5 c 128,-1,28
 125 575 125 575 159 584.5 c 128,-1,29
 193 594 193 594 230 594 c 0,30,31
 292 594 292 594 345.5 566.5 c 128,-1,32
 399 539 399 539 430 489 c 1,33,34
 421 477 421 477 411 468 c 0,35,36
 402 461 402 461 392.5 453.5 c 128,-1,37
 383 446 383 446 373 443 c 0,38,39
 365 440 365 440 361.5 443 c 128,-1,40
 358 446 358 446 351 455 c 0,41,42
 324 489 324 489 294.5 507.5 c 128,-1,43
 265 526 265 526 227 526 c 0,44,45
 214 526 214 526 199 522.5 c 128,-1,46
 184 519 184 519 171 508.5 c 128,-1,47
 158 498 158 498 149.5 481 c 128,-1,48
 141 464 141 464 141 438 c 0,49,50
 141 405 141 405 165 387.5 c 128,-1,51
 189 370 189 370 223.5 357.5 c 128,-1,52
 258 345 258 345 298.5 332.5 c 128,-1,53
 339 320 339 320 373.5 299 c 128,-1,54
 408 278 408 278 431.5 244.5 c 128,-1,55
 455 211 455 211 455 155 c 0,56,57
 455 115 455 115 438 84 c 128,-1,58
 421 53 421 53 393 31.5 c 128,-1,59
 365 10 365 10 329 -1 c 128,-1,60
 293 -12 293 -12 253 -12 c 0,0,1
EndSplineSet
EndChar
StartChar: t
Encoding: 116 116 85
Width: 355
VWidth: 1473
Flags: W
HStem: -12 84<203.318 298.226 273.546 322.906> 514 68<12 99 194 324> 752 20G<99 194>
VStem: 12 326<53.5 514 476.5 494.906> 99 95<82.7426 91 91 514 582 772>
Fore
330 -3 m 1,0,1
 309 -9 309 -9 292 -9.5 c 128,-1,2
 275 -10 275 -10 255 -12 c 0,3,4
 183 -12 183 -12 141 12.5 c 128,-1,5
 99 37 99 37 99 91 c 2,6,-1
 99 514 l 1,7,-1
 12 514 l 1,8,-1
 12 582 l 1,9,-1
 99 582 l 1,10,-1
 99 772 l 1,11,-1
 194 772 l 1,12,-1
 194 582 l 1,13,-1
 324 582 l 1,14,-1
 324 514 l 1,15,-1
 194 514 l 1,16,-1
 194 131 l 2,17,18
 194 72 194 72 255 72 c 0,19,20
 289 72 289 72 324 88 c 0,21,22
 330 91 330 91 333.5 80 c 128,-1,23
 337 69 337 69 338 53.5 c 128,-1,24
 339 38 339 38 336.5 22 c 128,-1,25
 334 6 334 6 330 -3 c 1,0,1
EndSplineSet
EndChar
StartChar: u
Encoding: 117 117 86
Width: 652
VWidth: 1473
Flags: W
HStem: -12 69<228.325 339.446> 562 20G<93 189 463 560>
VStem: 93 96<96.4062 582> 463 97<169 582>
Fore
470 78 m 1,0,1
 455 56 455 56 431.5 40 c 128,-1,2
 408 24 408 24 381.5 12 c 128,-1,3
 355 0 355 0 328.5 -6 c 128,-1,4
 302 -12 302 -12 280 -12 c 0,5,6
 187 -12 187 -12 140 39 c 128,-1,7
 93 90 93 90 93 184 c 2,8,-1
 93 582 l 1,9,-1
 189 582 l 1,10,-1
 189 192 l 2,11,12
 189 119 189 119 217.5 88 c 128,-1,13
 246 57 246 57 292 57 c 0,14,15
 326 57 326 57 377.5 86 c 128,-1,16
 429 115 429 115 463 169 c 1,17,-1
 463 582 l 1,18,-1
 560 582 l 1,19,-1
 560 150 l 2,20,21
 560 110 560 110 567.5 68.5 c 128,-1,22
 575 27 575 27 579 12 c 1,23,24
 567 6 567 6 542 3 c 128,-1,25
 517 0 517 0 505 0 c 0,26,27
 499 0 499 0 491 2 c 128,-1,28
 483 4 483 4 479 12 c 0,29,30
 476 18 476 18 474.5 28 c 128,-1,31
 473 38 473 38 471 50 c 0,32,33
 470 63 470 63 470 78 c 1,0,1
EndSplineSet
EndChar
StartChar: v
Encoding: 118 118 87
Width: 525
VWidth: 1473
Flags: W
HStem: 0 21G<208.127 317.873> 562 20G<15 122.25 403.707 511>
VStem: 15 496<582 582 582 582>
Fore
15 582 m 1,0,-1
 116 582 l 1,1,-1
 261 118 l 1,2,-1
 264 118 l 1,3,-1
 410 582 l 1,4,-1
 511 582 l 1,5,-1
 311 0 l 1,6,-1
 215 0 l 1,7,-1
 15 582 l 1,0,-1
EndSplineSet
EndChar
StartChar: w
Encoding: 119 119 88
Width: 776
VWidth: 1473
Flags: W
HStem: 0 21G<165.433 258.841 511.248 603.842> 562 20G<9 110.088 333.779 441.044 663.823 768>
Fore
9 582 m 1,0,-1
 105 582 l 1,1,-1
 220 130 l 1,2,-1
 221 130 l 1,3,-1
 339 582 l 1,4,-1
 436 582 l 1,5,-1
 550 130 l 1,6,-1
 552 130 l 1,7,-1
 669 582 l 1,8,-1
 768 582 l 1,9,-1
 598 0 l 1,10,-1
 517 0 l 1,11,-1
 387 452 l 1,12,-1
 385 452 l 1,13,-1
 253 0 l 1,14,-1
 171 0 l 1,15,-1
 9 582 l 1,0,-1
EndSplineSet
EndChar
StartChar: x
Encoding: 120 120 89
Width: 527
VWidth: 1473
Flags: W
HStem: 0 21G<12 134.348 394.565 516> 562 20G<34 156.308 370.795 492>
Fore
122 0 m 1,0,-1
 12 0 l 1,1,-1
 209 309 l 1,2,-1
 34 582 l 1,3,-1
 144 582 l 1,4,-1
 264 387 l 1,5,-1
 383 582 l 1,6,-1
 492 582 l 1,7,-1
 318 309 l 1,8,-1
 516 0 l 1,9,-1
 407 0 l 1,10,-1
 264 230 l 1,11,-1
 122 0 l 1,0,-1
EndSplineSet
EndChar
StartChar: y
Encoding: 121 121 90
Width: 525
VWidth: 1473
Flags: W
HStem: -206 82<12.9784 126.281> 562 20G<15 122.577 404.378 514>
Fore
15 582 m 1,0,-1
 116 582 l 1,1,-1
 262 138 l 1,2,-1
 264 138 l 1,3,-1
 411 582 l 1,4,-1
 514 582 l 1,5,-1
 296 -43 l 2,6,7
 267 -127 267 -127 206.5 -166.5 c 128,-1,8
 146 -206 146 -206 66 -206 c 0,9,10
 31 -206 31 -206 -6 -196 c 1,11,12
 -10 -187 -10 -187 -12.5 -171.5 c 128,-1,13
 -15 -156 -15 -156 -14 -140.5 c 128,-1,14
 -13 -125 -13 -125 -9.5 -115 c 128,-1,15
 -6 -105 -6 -105 0 -108 c 0,16,17
 35 -124 35 -124 71 -124 c 0,18,19
 88 -124 88 -124 108 -120 c 128,-1,20
 128 -116 128 -116 148 -102 c 128,-1,21
 168 -88 168 -88 185.5 -61.5 c 128,-1,22
 203 -35 203 -35 215 9 c 1,23,-1
 15 582 l 1,0,-1
EndSplineSet
EndChar
StartChar: z
Encoding: 122 122 91
Width: 496
VWidth: 1473
Flags: W
HStem: 0 68<147 463> 514 68<55 334>
Fore
55 582 m 1,0,-1
 454 582 l 1,1,-1
 454 526 l 1,2,-1
 147 68 l 1,3,-1
 463 68 l 1,4,-1
 463 0 l 1,5,-1
 28 0 l 1,6,-1
 28 57 l 1,7,-1
 334 514 l 1,8,-1
 55 514 l 1,9,-1
 55 582 l 1,0,-1
EndSplineSet
EndChar
StartChar: braceleft
Encoding: 123 123 92
Width: 402
VWidth: 1473
Flags: W
HStem: -93 56<224.377 314> 337 53<49 99.5957> 765 56<224.377 314>
VStem: 49 265<390 821 323.27 659.07> 116 96<-23.0699 312.245 415.27 751.07>
Fore
49 390 m 1,0,1
 87 390 87 390 101.5 414.5 c 128,-1,2
 116 439 116 439 116 482 c 2,3,-1
 116 692 l 2,4,5
 116 754 116 754 142 787.5 c 128,-1,6
 168 821 168 821 215 821 c 2,7,-1
 314 821 l 1,8,-1
 314 765 l 1,9,-1
 258 765 l 2,10,11
 236 765 236 765 224 751.5 c 128,-1,12
 212 738 212 738 212 691 c 2,13,-1
 212 485 l 2,14,15
 212 429 212 429 191.5 402.5 c 128,-1,16
 171 376 171 376 133 365 c 1,17,-1
 133 362 l 1,18,19
 171 354 171 354 191.5 326.5 c 128,-1,20
 212 299 212 299 212 243 c 2,21,-1
 212 37 l 2,22,23
 212 -10 212 -10 224 -23.5 c 128,-1,24
 236 -37 236 -37 258 -37 c 2,25,-1
 314 -37 l 1,26,-1
 314 -93 l 1,27,-1
 215 -93 l 2,28,29
 168 -93 168 -93 142 -60 c 128,-1,30
 116 -27 116 -27 116 35 c 2,31,-1
 116 246 l 2,32,33
 116 289 116 289 101.5 313 c 128,-1,34
 87 337 87 337 49 337 c 1,35,-1
 49 390 l 1,0,1
EndSplineSet
EndChar
StartChar: bar
Encoding: 124 124 93
Width: 263
VWidth: 1473
Flags: W
HStem: -12 21G<87 177> 801 20G<87 177>
VStem: 87 90<-12 821>
Fore
87 821 m 1,0,-1
 177 821 l 1,1,-1
 177 -12 l 1,2,-1
 87 -12 l 1,3,-1
 87 821 l 1,0,-1
EndSplineSet
EndChar
StartChar: braceright
Encoding: 125 125 94
Width: 402
VWidth: 1473
Flags: W
HStem: -93 56<88 177.623> 337 53<302.408 354> 765 56<88 177.623>
VStem: 88 266<-93 337 79.2701 415.07> 190 96<-23.0699 312.245 415.27 751.07>
Fore
354 337 m 1,0,1
 315 337 315 337 300.5 313 c 128,-1,2
 286 289 286 289 286 246 c 2,3,-1
 286 35 l 2,4,5
 286 -27 286 -27 260 -60 c 128,-1,6
 234 -93 234 -93 187 -93 c 2,7,-1
 88 -93 l 1,8,-1
 88 -37 l 1,9,-1
 144 -37 l 2,10,11
 166 -37 166 -37 178 -23.5 c 128,-1,12
 190 -10 190 -10 190 37 c 2,13,-1
 190 243 l 2,14,15
 190 299 190 299 210.5 326.5 c 128,-1,16
 231 354 231 354 270 362 c 1,17,-1
 270 365 l 1,18,19
 231 376 231 376 210.5 402.5 c 128,-1,20
 190 429 190 429 190 485 c 2,21,-1
 190 691 l 2,22,23
 190 738 190 738 178 751.5 c 128,-1,24
 166 765 166 765 144 765 c 2,25,-1
 88 765 l 1,26,-1
 88 821 l 1,27,-1
 187 821 l 2,28,29
 234 821 234 821 260 787.5 c 128,-1,30
 286 754 286 754 286 692 c 2,31,-1
 286 482 l 2,32,33
 286 439 286 439 300.5 414.5 c 128,-1,34
 315 390 315 390 354 390 c 1,35,-1
 354 337 l 1,0,1
EndSplineSet
EndChar
StartChar: asciitilde
Encoding: 126 126 95
Width: 671
VWidth: 1473
Flags: W
HStem: 222 79<431.876 522.145> 296 78<149.922 240.222>
Fore
614 317 m 1,0,1
 595 281 595 281 560.5 251.5 c 128,-1,2
 526 222 526 222 463 222 c 0,3,4
 433 222 433 222 399 232.5 c 128,-1,5
 365 243 365 243 330 259 c 0,6,7
 296 273 296 273 263.5 284.5 c 128,-1,8
 231 296 231 296 206 296 c 0,9,10
 169 296 169 296 151.5 279 c 128,-1,11
 134 262 134 262 113 233 c 1,12,-1
 57 281 l 1,13,14
 77 315 77 315 112 344.5 c 128,-1,15
 147 374 147 374 209 374 c 0,16,17
 239 374 239 374 272.5 364 c 128,-1,18
 306 354 306 354 342 337 c 0,19,20
 376 324 376 324 408 312.5 c 128,-1,21
 440 301 440 301 466 301 c 0,22,23
 502 301 502 301 520 317.5 c 128,-1,24
 538 334 538 334 558 364 c 1,25,-1
 614 317 l 1,0,1
EndSplineSet
EndChar
StartChar: uni0E33.alt1
Encoding: 65537 -1 96
Width: 514
VWidth: 1473
Flags: W
HStem: 0 21G<334 424> 532 66<187.4 256.346> 688 59<-362.052 -309.948> 826 59<-362.052 -309.948>
VStem: -435 59<755.285 817.865> -296 59<755.285 817.865> 334 98<3.09668 59.1292> 334 90<60.8763 153.788 153.788 276.546 276.546 280.136 280.136 308 320 359.821> 342 88<317.443 475.696>
Fore
-237 787 m 256,0,1
 -237 745 -237 745 -266 716.5 c 128,-1,2
 -295 688 -295 688 -336 688 c 256,3,4
 -377 688 -377 688 -406 716.5 c 128,-1,5
 -435 745 -435 745 -435 787 c 256,6,7
 -435 828 -435 828 -406 856.5 c 128,-1,8
 -377 885 -377 885 -336 885 c 256,9,10
 -295 885 -295 885 -266 856.5 c 128,-1,11
 -237 828 -237 828 -237 787 c 256,0,1
-296 787 m 256,12,13
 -296 803 -296 803 -308 814.5 c 128,-1,14
 -320 826 -320 826 -336 826 c 256,15,16
 -352 826 -352 826 -364 814.5 c 128,-1,17
 -376 803 -376 803 -376 787 c 256,18,19
 -376 770 -376 770 -364 758.5 c 128,-1,20
 -352 747 -352 747 -336 747 c 256,21,22
 -320 747 -320 747 -308 758.5 c 128,-1,23
 -296 770 -296 770 -296 787 c 256,12,13
334 225 m 2,24,25
 334 273 334 273 338 308 c 128,-1,26
 342 343 342 343 342 395 c 0,27,28
 342 443 342 443 327 470.5 c 128,-1,29
 312 498 312 498 292.5 511 c 128,-1,30
 273 524 273 524 253.5 528 c 128,-1,31
 234 532 234 532 225 532 c 0,32,33
 199 532 199 532 179 525.5 c 128,-1,34
 159 519 159 519 141.5 505.5 c 128,-1,35
 124 492 124 492 107 474.5 c 128,-1,36
 90 457 90 457 71 435 c 0,37,38
 68 430 68 430 59 433 c 128,-1,39
 50 436 50 436 39 443.5 c 128,-1,40
 28 451 28 451 17.5 461 c 128,-1,41
 7 471 7 471 0 480 c 1,42,43
 13 499 13 499 38 520 c 128,-1,44
 63 541 63 541 93.5 558.5 c 128,-1,45
 124 576 124 576 156.5 587 c 128,-1,46
 189 598 189 598 217 598 c 0,47,48
 258 598 258 598 296 587.5 c 128,-1,49
 334 577 334 577 364.5 555 c 128,-1,50
 395 533 395 533 412.5 497 c 128,-1,51
 430 461 430 461 430 410 c 0,52,53
 430 362 430 362 427 320 c 128,-1,54
 424 278 424 278 424 233 c 0,55,56
 424 217 424 217 424 186 c 128,-1,57
 424 155 424 155 425.5 121.5 c 128,-1,58
 427 88 427 88 428.5 60 c 128,-1,59
 430 32 430 32 432 21 c 0,60,61
 435 6 435 6 431 3 c 128,-1,62
 427 0 427 0 421 0 c 2,63,-1
 334 0 l 1,64,-1
 334 225 l 2,24,25
EndSplineSet
EndChar
StartChar: exclamdown
Encoding: 161 161 100
Width: 279
VWidth: 1473
Flags: W
HStem: 467 115<77 203>
VStem: 77 126<-227 -140.295 467 582> 99 85<231.295 318>
Fore
77 -227 m 1,0,-1
 99 318 l 1,1,-1
 184 318 l 1,2,-1
 203 -227 l 1,3,-1
 77 -227 l 1,0,-1
203 582 m 1,4,-1
 203 467 l 1,5,-1
 77 467 l 1,6,-1
 77 582 l 1,7,-1
 203 582 l 1,4,-1
EndSplineSet
EndChar
StartChar: cent
Encoding: 162 162 101
Width: 623
VWidth: 1473
Flags: W
HStem: -3 61<247.922 264.708 264.708 274.485 269.596 352.959> 491 64<229 316.541>
VStem: 62 82<145.063 370.589>
Fore
330 482 m 1,0,1
 318 485 318 485 308 488 c 128,-1,2
 298 491 298 491 286 491 c 0,3,4
 255 491 255 491 228.5 481 c 128,-1,5
 202 471 202 471 183.5 447 c 128,-1,6
 165 423 165 423 154.5 380 c 128,-1,7
 144 337 144 337 144 273 c 0,8,9
 144 196 144 196 158 154 c 128,-1,10
 172 112 172 112 197 85 c 1,11,-1
 330 482 l 1,0,1
243 63 m 1,12,13
 252 60 252 60 263 58 c 128,-1,14
 274 56 274 56 286 56 c 0,15,16
 320 56 320 56 342 62 c 128,-1,17
 364 68 364 68 379.5 79.5 c 128,-1,18
 395 91 395 91 405 109 c 128,-1,19
 415 127 415 127 424 152 c 1,20,-1
 488 121 l 1,21,22
 466 66 466 66 418.5 28 c 128,-1,23
 371 -10 371 -10 286 -10 c 0,24,25
 255 -10 255 -10 228 -3 c 1,26,-1
 190 -119 l 1,27,-1
 137 -119 l 1,28,-1
 181 15 l 1,29,30
 122 47 122 47 92 106.5 c 128,-1,31
 62 166 62 166 62 273 c 0,32,33
 62 351 62 351 78 404.5 c 128,-1,34
 94 458 94 458 123.5 491 c 128,-1,35
 153 524 153 524 194.5 539.5 c 128,-1,36
 236 555 236 555 286 555 c 0,37,38
 317 555 317 555 345 547 c 1,39,-1
 380 653 l 1,40,-1
 433 653 l 1,41,-1
 390 526 l 1,42,43
 420 507 420 507 440.5 479.5 c 128,-1,44
 461 452 461 452 473 414 c 1,45,-1
 411 385 l 1,46,47
 404 405 404 405 395.5 422 c 128,-1,48
 387 439 387 439 373 454 c 1,49,-1
 243 63 l 1,12,13
EndSplineSet
EndChar
StartChar: sterling
Encoding: 163 163 102
Width: 581
VWidth: 1473
Flags: W
HStem: -10 66<264.146 393.708> 333 59<15 119 211 324> 659 67<235.21 380.914>
VStem: 111 84<393.185 456.5 459.5 494.354 494.354 497.354 495.854 610.596> 131 84<215.447 296.477 293.485 299.469 304.125 320.031 320.031 333> 446 70<531.274 616.395> 461 69<96.7606 178.352>
Fore
16 65 m 1,0,1
 53 78 53 78 76 99.5 c 128,-1,2
 99 121 99 121 110.5 147.5 c 128,-1,3
 122 174 122 174 126.5 204 c 128,-1,4
 131 234 131 234 131 267 c 0,5,6
 131 283 131 283 129 300 c 128,-1,7
 127 317 127 317 125 333 c 1,8,-1
 15 333 l 1,9,-1
 15 392 l 1,10,-1
 119 392 l 1,11,12
 116 430 116 430 111 459.5 c 128,-1,13
 106 489 106 489 106 526 c 0,14,15
 106 617 106 617 160 671.5 c 128,-1,16
 214 726 214 726 305 726 c 0,17,18
 390 726 390 726 445.5 677 c 128,-1,19
 501 628 501 628 516 544 c 1,20,-1
 446 517 l 1,21,22
 432 583 432 583 399.5 621 c 128,-1,23
 367 659 367 659 305 659 c 0,24,25
 252 659 252 659 221 624 c 128,-1,26
 190 589 190 589 190 523 c 0,27,28
 190 486 190 486 195 456.5 c 128,-1,29
 200 427 200 427 208 392 c 1,30,-1
 324 392 l 1,31,-1
 324 333 l 1,32,-1
 211 333 l 1,33,34
 214 321 214 321 214.5 307 c 128,-1,35
 215 293 215 293 215 280 c 0,36,37
 215 231 215 231 207.5 193.5 c 128,-1,38
 200 156 200 156 180 112 c 1,39,40
 215 90 215 90 248 73 c 128,-1,41
 281 56 281 56 324 56 c 0,42,43
 365 56 365 56 403.5 84 c 128,-1,44
 442 112 442 112 461 190 c 1,45,-1
 530 165 l 1,46,47
 514 81 514 81 465.5 35.5 c 128,-1,48
 417 -10 417 -10 334 -10 c 0,49,50
 299 -10 299 -10 272.5 -5.5 c 128,-1,51
 246 -1 246 -1 224 7 c 128,-1,52
 202 15 202 15 182 26.5 c 128,-1,53
 162 38 162 38 140 53 c 1,54,55
 119 27 119 27 84.5 12 c 128,-1,56
 50 -3 50 -3 16 -10 c 1,57,-1
 16 65 l 1,0,1
EndSplineSet
EndChar
StartChar: currency
Encoding: 164 164 103
Width: 623
VWidth: 1473
Flags: W
HStem: 82 80<231.326 391.224> 560 78<232.024 390.348>
VStem: 34 85<278.501 443.249> 504 85<278.501 443.249>
Fore
589 595 m 1,0,-1
 529 535 l 1,1,2
 561 496 561 496 575 452 c 128,-1,3
 589 408 589 408 589 361 c 256,4,5
 589 314 589 314 575 268 c 128,-1,6
 561 222 561 222 529 186 c 1,7,-1
 589 125 l 1,8,-1
 547 82 l 1,9,-1
 485 143 l 1,10,11
 408 82 408 82 311 82 c 0,12,13
 264 82 264 82 219.5 97.5 c 128,-1,14
 175 113 175 113 138 143 c 1,15,-1
 75 82 l 1,16,-1
 34 125 l 1,17,-1
 94 186 l 1,18,19
 62 222 62 222 48 268 c 128,-1,20
 34 314 34 314 34 361 c 256,21,22
 34 408 34 408 48 452 c 128,-1,23
 62 496 62 496 94 535 c 1,24,-1
 34 595 l 1,25,-1
 75 638 l 1,26,-1
 138 576 l 1,27,28
 175 607 175 607 219.5 622.5 c 128,-1,29
 264 638 264 638 311 638 c 0,30,31
 410 638 410 638 485 576 c 1,32,-1
 547 638 l 1,33,-1
 589 595 l 1,0,-1
311 162 m 256,34,35
 351 162 351 162 386 178 c 128,-1,36
 421 194 421 194 447.5 221.5 c 128,-1,37
 474 249 474 249 489 285 c 128,-1,38
 504 321 504 321 504 361 c 256,39,40
 504 401 504 401 489 437 c 128,-1,41
 474 473 474 473 447.5 500 c 128,-1,42
 421 527 421 527 386 543.5 c 128,-1,43
 351 560 351 560 311 560 c 256,44,45
 271 560 271 560 236.5 543.5 c 128,-1,46
 202 527 202 527 175.5 500 c 128,-1,47
 149 473 149 473 134 437 c 128,-1,48
 119 401 119 401 119 361 c 256,49,50
 119 321 119 321 134 285 c 128,-1,51
 149 249 149 249 175.5 221.5 c 128,-1,52
 202 194 202 194 236.5 178 c 128,-1,53
 271 162 271 162 311 162 c 256,34,35
EndSplineSet
EndChar
StartChar: yen
Encoding: 165 165 104
Width: 598
VWidth: 1473
Flags: W
HStem: 0 21G<249 342> 231 59<72 249 342 517> 376 60<72 184 408 517> 696 20G<37 138.03 460.179 561>
VStem: 249 93<0 231 290 303>
Fore
517 376 m 1,0,-1
 380 376 l 1,1,-1
 342 303 l 1,2,-1
 342 290 l 1,3,-1
 517 290 l 1,4,-1
 517 231 l 1,5,-1
 342 231 l 1,6,-1
 342 0 l 1,7,-1
 249 0 l 1,8,-1
 249 231 l 1,9,-1
 72 231 l 1,10,-1
 72 290 l 1,11,-1
 249 290 l 1,12,-1
 249 303 l 1,13,-1
 212 376 l 1,14,-1
 72 376 l 1,15,-1
 72 436 l 1,16,-1
 184 436 l 1,17,-1
 37 716 l 1,18,-1
 128 716 l 1,19,-1
 293 387 l 1,20,-1
 471 716 l 1,21,-1
 561 716 l 1,22,-1
 408 436 l 1,23,-1
 517 436 l 1,24,-1
 517 376 l 1,0,-1
EndSplineSet
EndChar
StartChar: brokenbar
Encoding: 166 166 105
Width: 278
VWidth: 1473
Flags: W
HStem: -12 21G<94 184>
VStem: 94 90<-12 287 433 732>
Fore
94 287 m 1,0,-1
 184 287 l 1,1,-1
 184 -12 l 1,2,-1
 94 -12 l 1,3,-1
 94 287 l 1,0,-1
94 732 m 1,4,-1
 184 732 l 1,5,-1
 184 433 l 1,6,-1
 94 433 l 1,7,-1
 94 732 l 1,4,-1
EndSplineSet
EndChar
StartChar: section
Encoding: 167 167 106
Width: 539
VWidth: 1473
Flags: W
HStem: -90 63<210.91 308.52> 426 57<174.564 203> 660 65<220.962 339.412>
VStem: 74 82<313.791 414.288> 134 71<554.449 643.979> 334 71<-8.80725 78.6428> 383 83<219.559 325.484>
Fore
390 572 m 1,0,1
 370 613 370 613 342 636.5 c 128,-1,2
 314 660 314 660 277 660 c 0,3,4
 239 660 239 660 222 642.5 c 128,-1,5
 205 625 205 625 205 600 c 0,6,7
 205 576 205 576 224 555.5 c 128,-1,8
 243 535 243 535 272.5 513.5 c 128,-1,9
 302 492 302 492 335 468.5 c 128,-1,10
 368 445 368 445 397.5 415.5 c 128,-1,11
 427 386 427 386 446.5 349 c 128,-1,12
 466 312 466 312 466 265 c 0,13,14
 466 208 466 208 430.5 180 c 128,-1,15
 395 152 395 152 343 147 c 1,16,17
 368 118 368 118 386.5 93 c 128,-1,18
 405 68 405 68 405 28 c 0,19,20
 405 -6 405 -6 392.5 -28 c 128,-1,21
 380 -50 380 -50 359.5 -64 c 128,-1,22
 339 -78 339 -78 312.5 -84 c 128,-1,23
 286 -90 286 -90 256 -90 c 0,24,25
 230 -90 230 -90 204 -82.5 c 128,-1,26
 178 -75 178 -75 154.5 -61 c 128,-1,27
 131 -47 131 -47 113.5 -28 c 128,-1,28
 96 -9 96 -9 85 15 c 1,29,-1
 146 59 l 1,30,31
 161 24 161 24 194 -1.5 c 128,-1,32
 227 -27 227 -27 256 -27 c 0,33,34
 303 -27 303 -27 318.5 -6 c 128,-1,35
 334 15 334 15 334 35 c 256,36,37
 334 56 334 56 315 77.5 c 128,-1,38
 296 99 296 99 266.5 122.5 c 128,-1,39
 237 146 237 146 204 172.5 c 128,-1,40
 171 199 171 199 141.5 230.5 c 128,-1,41
 112 262 112 262 93 298 c 128,-1,42
 74 334 74 334 74 377 c 0,43,44
 74 432 74 432 111.5 457.5 c 128,-1,45
 149 483 149 483 203 483 c 1,46,-1
 206 486 l 1,47,48
 177 507 177 507 155.5 535.5 c 128,-1,49
 134 564 134 564 134 608 c 0,50,51
 134 666 134 666 171.5 695.5 c 128,-1,52
 209 725 209 725 275 725 c 0,53,54
 333 725 333 725 378.5 695.5 c 128,-1,55
 424 666 424 666 449 614 c 1,56,-1
 390 572 l 1,0,1
217 426 m 256,57,58
 192 426 192 426 174 413.5 c 128,-1,59
 156 401 156 401 156 382 c 0,60,61
 156 348 156 348 174.5 316 c 128,-1,62
 193 284 193 284 219 259 c 128,-1,63
 245 234 245 234 272 219.5 c 128,-1,64
 299 205 299 205 318 205 c 0,65,66
 354 205 354 205 368.5 222 c 128,-1,67
 383 239 383 239 383 262 c 0,68,69
 383 293 383 293 366 322 c 128,-1,70
 349 351 349 351 324 374.5 c 128,-1,71
 299 398 299 398 270.5 412 c 128,-1,72
 242 426 242 426 217 426 c 256,57,58
EndSplineSet
EndChar
StartChar: dieresis
Encoding: 168 168 107
Width: 307
VWidth: 1473
Flags: W
HStem: 659 120<0 103 205 308>
VStem: 0 103<659 779> 205 103<659 779>
Fore
103 779 m 1,0,-1
 103 659 l 1,1,-1
 0 659 l 1,2,-1
 0 779 l 1,3,-1
 103 779 l 1,0,-1
308 779 m 1,4,-1
 308 659 l 1,5,-1
 205 659 l 1,6,-1
 205 779 l 1,7,-1
 308 779 l 1,4,-1
EndSplineSet
EndChar
StartChar: copyright
Encoding: 169 169 108
Width: 895
VWidth: 1473
Flags: W
HStem: -10 66<285.217 508.253> 137 62<337.184 467.256> 517 62<331.622 467.925> 660 66<285.217 508.253>
VStem: 28 74<242.877 474.679> 211 82<247.534 475.002> 496 80<229.845 287 432 487.661> 691 74<241.806 474.679>
Fore
396 726 m 256,0,1
 473 726 473 726 540 696.5 c 128,-1,2
 607 667 607 667 657 617 c 128,-1,3
 707 567 707 567 736 500 c 128,-1,4
 765 433 765 433 765 358 c 256,5,6
 765 283 765 283 736 216 c 128,-1,7
 707 149 707 149 657 99 c 128,-1,8
 607 49 607 49 540 19.5 c 128,-1,9
 473 -10 473 -10 396 -10 c 256,10,11
 320 -10 320 -10 253 19.5 c 128,-1,12
 186 49 186 49 135.5 99 c 128,-1,13
 85 149 85 149 56.5 216 c 128,-1,14
 28 283 28 283 28 358 c 256,15,16
 28 433 28 433 56.5 500 c 128,-1,17
 85 567 85 567 135.5 617 c 128,-1,18
 186 667 186 667 253 696.5 c 128,-1,19
 320 726 320 726 396 726 c 256,0,1
396 56 m 0,20,21
 460 56 460 56 513.5 79.5 c 128,-1,22
 567 103 567 103 607 144.5 c 128,-1,23
 647 186 647 186 669 240.5 c 128,-1,24
 691 295 691 295 691 358 c 256,25,26
 691 421 691 421 669 476.5 c 128,-1,27
 647 532 647 532 607 572.5 c 128,-1,28
 567 613 567 613 513.5 636.5 c 128,-1,29
 460 660 460 660 396 660 c 0,30,31
 334 660 334 660 280.5 636.5 c 128,-1,32
 227 613 227 613 187 572.5 c 128,-1,33
 147 532 147 532 124.5 476.5 c 128,-1,34
 102 421 102 421 102 358 c 256,35,36
 102 295 102 295 124.5 240.5 c 128,-1,37
 147 186 147 186 187 144.5 c 128,-1,38
 227 103 227 103 280.5 79.5 c 128,-1,39
 334 56 334 56 396 56 c 0,20,21
576 287 m 1,40,41
 569 256 569 256 557 229 c 128,-1,42
 545 202 545 202 525 181.5 c 128,-1,43
 505 161 505 161 476.5 149 c 128,-1,44
 448 137 448 137 408 137 c 0,45,46
 309 137 309 137 260 195 c 128,-1,47
 211 253 211 253 211 359 c 256,48,49
 211 466 211 466 258 522.5 c 128,-1,50
 305 579 305 579 404 579 c 0,51,52
 483 579 483 579 525 541.5 c 128,-1,53
 567 504 567 504 576 432 c 1,54,-1
 496 432 l 1,55,56
 489 473 489 473 468.5 495 c 128,-1,57
 448 517 448 517 405 517 c 0,58,59
 342 517 342 517 317.5 479.5 c 128,-1,60
 293 442 293 442 293 359 c 0,61,62
 293 280 293 280 319.5 239.5 c 128,-1,63
 346 199 346 199 408 199 c 0,64,65
 448 199 448 199 468.5 222 c 128,-1,66
 489 245 489 245 496 287 c 1,67,-1
 576 287 l 1,40,41
EndSplineSet
EndChar
StartChar: ordfeminine
Encoding: 170 170 109
Width: 335
VWidth: 1473
Flags: W
HStem: 460 54<98.8994 192.887> 719 21G<37.5217 91.5> 768 53<124.44 221.548>
VStem: 15 69<522.364 597.658> 227 71<481.833 482.577 482.577 499 499 503.644 563 642 697 761.5>
Fore
31 742 m 1,0,1
 56 785 56 785 90 803 c 128,-1,2
 124 821 124 821 177 821 c 0,3,4
 240 821 240 821 269 795 c 128,-1,5
 298 769 298 769 298 713 c 2,6,-1
 298 538 l 2,7,8
 298 513 298 513 299.5 499 c 128,-1,9
 301 485 301 485 305 466 c 1,10,-1
 240 466 l 1,11,-1
 234 504 l 1,12,13
 217 489 217 489 189.5 474.5 c 128,-1,14
 162 460 162 460 119 460 c 0,15,16
 74 460 74 460 44.5 483.5 c 128,-1,17
 15 507 15 507 15 550 c 0,18,19
 15 594 15 594 37.5 619.5 c 128,-1,20
 60 645 60 645 93.5 660 c 128,-1,21
 127 675 127 675 163.5 682 c 128,-1,22
 200 689 200 689 227 697 c 1,23,-1
 227 725 l 2,24,25
 227 768 227 768 171 768 c 0,26,27
 146 768 146 768 124 758 c 128,-1,28
 102 748 102 748 81 719 c 1,29,-1
 31 742 l 1,0,1
227 642 m 1,30,31
 203 636 203 636 178 631 c 128,-1,32
 153 626 153 626 131.5 617 c 128,-1,33
 110 608 110 608 97 594 c 128,-1,34
 84 580 84 580 84 557 c 0,35,36
 84 536 84 536 97 525 c 128,-1,37
 110 514 110 514 127 514 c 0,38,39
 187 514 187 514 227 563 c 1,40,-1
 227 642 l 1,30,31
EndSplineSet
EndChar
StartChar: guillemotleft
Encoding: 171 171 110
Width: 559
VWidth: 1473
Flags: W
HStem: 119 344<365 467 365 365>
VStem: 93 374<119 295 295 295>
Fore
357 295 m 1,0,-1
 467 119 l 1,1,-1
 365 119 l 1,2,-1
 258 295 l 1,3,-1
 365 463 l 1,4,-1
 467 463 l 1,5,-1
 357 295 l 1,0,-1
192 295 m 1,6,-1
 301 119 l 1,7,-1
 197 119 l 1,8,-1
 93 295 l 1,9,-1
 197 463 l 1,10,-1
 301 463 l 1,11,-1
 192 295 l 1,6,-1
EndSplineSet
EndChar
StartChar: logicalnot
Encoding: 172 172 111
Width: 671
VWidth: 1473
Flags: W
HStem: 358 77<44 538>
VStem: 538 90<149 358>
Fore
538 358 m 1,0,-1
 44 358 l 1,1,-1
 44 435 l 1,2,-1
 628 435 l 1,3,-1
 628 149 l 1,4,-1
 538 149 l 1,5,-1
 538 358 l 1,0,-1
EndSplineSet
EndChar
StartChar: registered
Encoding: 174 174 112
Width: 895
VWidth: 1473
Flags: W
HStem: -10 66<285.217 508.253> 321 61<346 398> 505 61<346 450.791> 660 66<285.217 508.253>
VStem: 28 74<242.877 474.679> 268 78<149 321 382 505> 483 78<402.441 496.873> 691 74<241.806 474.679>
Fore
346 149 m 1,0,-1
 268 149 l 1,1,-1
 268 566 l 1,2,-1
 427 566 l 2,3,4
 498 566 498 566 529.5 532.5 c 128,-1,5
 561 499 561 499 561 443 c 0,6,7
 561 389 561 389 531 359 c 128,-1,8
 501 329 501 329 466 321 c 1,9,-1
 567 149 l 1,10,-1
 483 149 l 1,11,-1
 398 321 l 1,12,-1
 346 321 l 1,13,-1
 346 149 l 1,0,-1
389 382 m 2,14,15
 410 382 410 382 426.5 382 c 128,-1,16
 443 382 443 382 455.5 387 c 128,-1,17
 468 392 468 392 475.5 405 c 128,-1,18
 483 418 483 418 483 445 c 0,19,20
 483 488 483 488 465.5 496.5 c 128,-1,21
 448 505 448 505 414 505 c 2,22,-1
 346 505 l 1,23,-1
 346 382 l 1,24,-1
 389 382 l 2,14,15
396 726 m 256,25,26
 473 726 473 726 540 696.5 c 128,-1,27
 607 667 607 667 657 617 c 128,-1,28
 707 567 707 567 736 500 c 128,-1,29
 765 433 765 433 765 358 c 256,30,31
 765 283 765 283 736 216 c 128,-1,32
 707 149 707 149 657 99 c 128,-1,33
 607 49 607 49 540 19.5 c 128,-1,34
 473 -10 473 -10 396 -10 c 256,35,36
 320 -10 320 -10 253 19.5 c 128,-1,37
 186 49 186 49 135.5 99 c 128,-1,38
 85 149 85 149 56.5 216 c 128,-1,39
 28 283 28 283 28 358 c 256,40,41
 28 433 28 433 56.5 500 c 128,-1,42
 85 567 85 567 135.5 617 c 128,-1,43
 186 667 186 667 253 696.5 c 128,-1,44
 320 726 320 726 396 726 c 256,25,26
396 56 m 0,45,46
 460 56 460 56 513.5 79.5 c 128,-1,47
 567 103 567 103 607 144.5 c 128,-1,48
 647 186 647 186 669 240.5 c 128,-1,49
 691 295 691 295 691 358 c 256,50,51
 691 421 691 421 669 476.5 c 128,-1,52
 647 532 647 532 607 572.5 c 128,-1,53
 567 613 567 613 513.5 636.5 c 128,-1,54
 460 660 460 660 396 660 c 0,55,56
 334 660 334 660 280.5 636.5 c 128,-1,57
 227 613 227 613 187 572.5 c 128,-1,58
 147 532 147 532 124.5 476.5 c 128,-1,59
 102 421 102 421 102 358 c 256,60,61
 102 295 102 295 124.5 240.5 c 128,-1,62
 147 186 147 186 187 144.5 c 128,-1,63
 227 103 227 103 280.5 79.5 c 128,-1,64
 334 56 334 56 396 56 c 0,45,46
EndSplineSet
EndChar
StartChar: macron
Encoding: 175 175 113
Width: 248
VWidth: 1473
Flags: W
HStem: 676 80<-43 290>
VStem: -43 333<676 756 676 756 676 676>
Fore
-43 756 m 1,0,-1
 290 756 l 1,1,-1
 290 676 l 1,2,-1
 -43 676 l 1,3,-1
 -43 756 l 1,0,-1
EndSplineSet
EndChar
StartChar: degree
Encoding: 176 176 114
Width: 447
VWidth: 1473
Flags: W
HStem: 492 66<161.366 286.634> 756 65<161.366 286.634>
VStem: 60 68<592.66 721.098> 320 67<592.66 721.098>
Fore
224 756 m 256,0,1
 181 756 181 756 154.5 728 c 128,-1,2
 128 700 128 700 128 657 c 256,3,4
 128 614 128 614 154.5 586 c 128,-1,5
 181 558 181 558 224 558 c 256,6,7
 267 558 267 558 293.5 586 c 128,-1,8
 320 614 320 614 320 657 c 256,9,10
 320 700 320 700 293.5 728 c 128,-1,11
 267 756 267 756 224 756 c 256,0,1
224 821 m 256,12,13
 259 821 259 821 288.5 807.5 c 128,-1,14
 318 794 318 794 340 772 c 128,-1,15
 362 750 362 750 374.5 720.5 c 128,-1,16
 387 691 387 691 387 657 c 256,17,18
 387 623 387 623 374.5 593 c 128,-1,19
 362 563 362 563 340 541 c 128,-1,20
 318 519 318 519 288.5 505.5 c 128,-1,21
 259 492 259 492 224 492 c 256,22,23
 189 492 189 492 159.5 505.5 c 128,-1,24
 130 519 130 519 107.5 541 c 128,-1,25
 85 563 85 563 72.5 593 c 128,-1,26
 60 623 60 623 60 657 c 256,27,28
 60 691 60 691 72.5 720.5 c 128,-1,29
 85 750 85 750 107.5 772 c 128,-1,30
 130 794 130 794 159.5 807.5 c 128,-1,31
 189 821 189 821 224 821 c 256,12,13
EndSplineSet
EndChar
StartChar: plusminus
Encoding: 177 177 115
Width: 671
VWidth: 1473
Flags: W
HStem: 0 75<44 628> 330 75<44 290 382 628>
VStem: 290 92<122 330 405 611>
Fore
290 611 m 1,0,-1
 382 611 l 1,1,-1
 382 405 l 1,2,-1
 628 405 l 1,3,-1
 628 330 l 1,4,-1
 382 330 l 1,5,-1
 382 122 l 1,6,-1
 290 122 l 1,7,-1
 290 330 l 1,8,-1
 44 330 l 1,9,-1
 44 405 l 1,10,-1
 290 405 l 1,11,-1
 290 611 l 1,0,-1
44 75 m 1,12,-1
 628 75 l 1,13,-1
 628 0 l 1,14,-1
 44 0 l 1,15,-1
 44 75 l 1,12,-1
EndSplineSet
EndChar
StartChar: twosuperior
Encoding: 178 178 116
Width: 340
VWidth: 1473
Flags: W
HStem: 289 60<97 317> 595 21G<28 102> 667 59<125.372 228.574>
VStem: 22 75<349 357.515 357.515 361.604 361.604 366 374.5 384.172 603 643.373> 245 73<558.23 648.867>
Fore
28 603 m 1,0,1
 40 661 40 661 80.5 693.5 c 128,-1,2
 121 726 121 726 183 726 c 256,3,4
 245 726 245 726 281.5 692.5 c 128,-1,5
 318 659 318 659 318 597 c 0,6,7
 318 566 318 566 305.5 541.5 c 128,-1,8
 293 517 293 517 273 498 c 128,-1,9
 253 479 253 479 229 463.5 c 128,-1,10
 205 448 205 448 181 435 c 0,11,12
 152 418 152 418 135 406.5 c 128,-1,13
 118 395 118 395 110 384.5 c 128,-1,14
 102 374 102 374 99.5 366 c 128,-1,15
 97 358 97 358 97 349 c 1,16,-1
 317 349 l 1,17,-1
 317 289 l 1,18,-1
 22 289 l 1,19,-1
 22 337 l 2,20,21
 22 357 22 357 25.5 374.5 c 128,-1,22
 29 392 29 392 40.5 409 c 128,-1,23
 52 426 52 426 73 443 c 128,-1,24
 94 460 94 460 128 477 c 0,25,26
 166 498 166 498 190 514 c 128,-1,27
 214 530 214 530 225.5 544 c 128,-1,28
 237 558 237 558 241 572 c 128,-1,29
 245 586 245 586 245 601 c 0,30,31
 245 626 245 626 228.5 646.5 c 128,-1,32
 212 667 212 667 186 667 c 0,33,34
 152 667 152 667 130 654 c 128,-1,35
 108 641 108 641 96 595 c 1,36,-1
 28 603 l 1,0,1
EndSplineSet
EndChar
StartChar: threesuperior
Encoding: 179 179 117
Width: 359
VWidth: 1473
Flags: W
HStem: 284 58<115.039 242.117> 488 59<118 228.366> 667 59<131.744 238.694>
VStem: 249 74<560.599 658.251> 264 73<360.169 471.239>
Fore
71 399 m 1,0,1
 93 373 93 373 119.5 357.5 c 128,-1,2
 146 342 146 342 181 342 c 0,3,4
 211 342 211 342 237.5 356.5 c 128,-1,5
 264 371 264 371 264 410 c 0,6,7
 264 455 264 455 242.5 471.5 c 128,-1,8
 221 488 221 488 161 488 c 2,9,-1
 118 488 l 1,10,-1
 118 547 l 1,11,-1
 153 547 l 2,12,13
 209 547 209 547 229 561 c 128,-1,14
 249 575 249 575 249 617 c 0,15,16
 249 647 249 647 234.5 657 c 128,-1,17
 220 667 220 667 186 667 c 0,18,19
 159 667 159 667 134.5 659 c 128,-1,20
 110 651 110 651 96 625 c 1,21,-1
 44 656 l 1,22,23
 72 694 72 694 109.5 710 c 128,-1,24
 147 726 147 726 190 726 c 0,25,26
 265 726 265 726 294 700.5 c 128,-1,27
 323 675 323 675 323 620 c 0,28,29
 323 583 323 583 310.5 559 c 128,-1,30
 298 535 298 535 256 519 c 1,31,32
 295 507 295 507 316 481 c 128,-1,33
 337 455 337 455 337 410 c 0,34,35
 337 284 337 284 178 284 c 0,36,37
 122 284 122 284 81.5 306.5 c 128,-1,38
 41 329 41 329 22 361 c 1,39,-1
 71 399 l 1,0,1
EndSplineSet
EndChar
StartChar: acute
Encoding: 180 180 118
Width: 248
VWidth: 1473
Flags: W
HStem: 647 154<125 265 265 265>
Fore
265 801 m 1,0,-1
 125 647 l 1,1,-1
 53 647 l 1,2,-1
 149 801 l 1,3,-1
 265 801 l 1,0,-1
EndSplineSet
EndChar
StartChar: mu
Encoding: 181 181 119
Width: 623
VWidth: 1473
Flags: W
HStem: -206 788<93 189 93 530 93 93> -12 69<235.043 347.801>
VStem: 93 96<-206 15 95.2837 582> 433 97<0 78 155 582>
Fore
530 582 m 1,0,-1
 530 0 l 1,1,-1
 433 0 l 1,2,-1
 433 78 l 1,3,4
 402 31 402 31 356.5 9.5 c 128,-1,5
 311 -12 311 -12 273 -12 c 0,6,7
 250 -12 250 -12 226 -6 c 128,-1,8
 202 0 202 0 189 15 c 1,9,-1
 189 -206 l 1,10,-1
 93 -206 l 1,11,-1
 93 582 l 1,12,-1
 189 582 l 1,13,-1
 189 192 l 2,14,15
 189 119 189 119 216 88 c 128,-1,16
 243 57 243 57 277 57 c 256,17,18
 311 57 311 57 350 80 c 128,-1,19
 389 103 389 103 433 155 c 1,20,-1
 433 582 l 1,21,-1
 530 582 l 1,0,-1
EndSplineSet
EndChar
StartChar: paragraph
Encoding: 182 182 120
Width: 559
VWidth: 1473
Flags: W
HStem: 744 65<334 423 508 563>
VStem: 18 316<507.704 695.185> 249 85<-90 377> 423 85<-90 744>
Fore
249 377 m 1,0,1
 200 377 200 377 158 394 c 128,-1,2
 116 411 116 411 84.5 439.5 c 128,-1,3
 53 468 53 468 35.5 506.5 c 128,-1,4
 18 545 18 545 18 589 c 0,5,6
 18 695 18 695 83.5 752 c 128,-1,7
 149 809 149 809 267 809 c 2,8,-1
 563 809 l 1,9,-1
 563 744 l 1,10,-1
 508 744 l 1,11,-1
 508 -90 l 1,12,-1
 423 -90 l 1,13,-1
 423 744 l 1,14,-1
 334 744 l 1,15,-1
 334 -90 l 1,16,-1
 249 -90 l 1,17,-1
 249 377 l 1,0,1
EndSplineSet
EndChar
StartChar: periodcentered
Encoding: 183 183 121
Width: 310
VWidth: 1473
Flags: W
HStem: 224 135<109.173 200.858>
VStem: 87 135<244.627 338.889>
Fore
155 359 m 0,0,1
 181 359 181 359 201.5 339.5 c 128,-1,2
 222 320 222 320 222 292 c 256,3,4
 222 264 222 264 201.5 244 c 128,-1,5
 181 224 181 224 155 224 c 0,6,7
 130 224 130 224 108.5 244 c 128,-1,8
 87 264 87 264 87 292 c 256,9,10
 87 320 87 320 108.5 339.5 c 128,-1,11
 130 359 130 359 155 359 c 0,0,1
EndSplineSet
EndChar
StartChar: cedilla
Encoding: 184 184 122
Width: 248
VWidth: 1473
Flags: W
HStem: -233 233<106 125 106 108 106 106> -233 46<60.7681 126.355> -97 45<83.4147 137.326>
VStem: 0 225<-211 -146 -211 -209> 155 70<-172.734 -106.222>
Fore
15 -171 m 1,0,1
 29 -175 29 -175 48.5 -181 c 128,-1,2
 68 -187 68 -187 81 -187 c 0,3,4
 119 -187 119 -187 137 -177.5 c 128,-1,5
 155 -168 155 -168 155 -143 c 256,6,7
 155 -118 155 -118 139.5 -107.5 c 128,-1,8
 124 -97 124 -97 105 -97 c 0,9,10
 77 -97 77 -97 56 -106 c 1,11,-1
 40 -93 l 1,12,-1
 106 0 l 1,13,-1
 149 0 l 1,14,-1
 100 -56 l 1,15,-1
 103 -59 l 1,16,17
 113 -52 113 -52 137 -52 c 0,18,19
 178 -52 178 -52 201.5 -77 c 128,-1,20
 225 -102 225 -102 225 -146 c 0,21,22
 225 -168 225 -168 213.5 -184 c 128,-1,23
 202 -200 202 -200 184 -211 c 128,-1,24
 166 -222 166 -222 145.5 -227.5 c 128,-1,25
 125 -233 125 -233 108 -233 c 0,26,27
 80 -233 80 -233 52.5 -227.5 c 128,-1,28
 25 -222 25 -222 0 -211 c 1,29,-1
 15 -171 l 1,0,1
EndSplineSet
EndChar
StartChar: onesuperior
Encoding: 185 185 123
Width: 387
VWidth: 1473
Flags: W
HStem: 289 60<91 159 234 306>
VStem: 81 225<349 642 785 857> 159 75<349 661>
Fore
91 289 m 1,0,-1
 91 349 l 1,1,-1
 159 349 l 1,2,-1
 159 661 l 1,3,-1
 81 642 l 1,4,-1
 81 692 l 1,5,-1
 171 726 l 1,6,-1
 234 726 l 1,7,-1
 234 349 l 1,8,-1
 306 349 l 1,9,-1
 306 289 l 1,10,-1
 91 289 l 1,0,-1
EndSplineSet
EndChar
StartChar: ordmasculine
Encoding: 186 186 124
Width: 304
VWidth: 1473
Flags: W
HStem: 407 66<101.245 205.347> 660 66<101.494 205.106>
VStem: 15 70<509.598 622.774> 221 69<509.598 622.774>
Fore
85 566 m 256,0,1
 85 519 85 519 100 496 c 128,-1,2
 115 473 115 473 153 473 c 256,3,4
 192 473 192 473 206.5 496 c 128,-1,5
 221 519 221 519 221 566 c 256,6,7
 221 613 221 613 206.5 636.5 c 128,-1,8
 192 660 192 660 153 660 c 256,9,10
 115 660 115 660 100 636.5 c 128,-1,11
 85 613 85 613 85 566 c 256,0,1
153 726 m 256,12,13
 193 726 193 726 219 713 c 128,-1,14
 245 700 245 700 261 678 c 128,-1,15
 277 656 277 656 283.5 626.5 c 128,-1,16
 290 597 290 597 290 566 c 256,17,18
 290 535 290 535 283.5 506 c 128,-1,19
 277 477 277 477 261 455 c 128,-1,20
 245 433 245 433 219 420 c 128,-1,21
 193 407 193 407 153 407 c 256,22,23
 113 407 113 407 86.5 420 c 128,-1,24
 60 433 60 433 44 455 c 128,-1,25
 28 477 28 477 21.5 506 c 128,-1,26
 15 535 15 535 15 566 c 256,27,28
 15 597 15 597 21.5 626.5 c 128,-1,29
 28 656 28 656 44 678 c 128,-1,30
 60 700 60 700 86.5 713 c 128,-1,31
 113 726 113 726 153 726 c 256,12,13
EndSplineSet
EndChar
StartChar: guillemotright
Encoding: 187 187 125
Width: 559
VWidth: 1473
Flags: W
HStem: 119 344<93 194 93 93>
VStem: 93 374<289 463 463 463>
Fore
203 289 m 1,0,-1
 93 463 l 1,1,-1
 194 463 l 1,2,-1
 302 289 l 1,3,-1
 194 119 l 1,4,-1
 93 119 l 1,5,-1
 203 289 l 1,0,-1
368 289 m 1,6,-1
 259 463 l 1,7,-1
 362 463 l 1,8,-1
 467 289 l 1,9,-1
 362 119 l 1,10,-1
 259 119 l 1,11,-1
 368 289 l 1,6,-1
EndSplineSet
EndChar
StartChar: onequarter
Encoding: 188 188 126
Width: 907
VWidth: 1473
Flags: W
HStem: -10 21G<196 279.522 681 756> 96 57<557 681 756 819> 289 60<91 159 234 306>
VStem: 159 75<349 661> 681 75<0 96 153 340>
Fore
620 726 m 1,0,-1
 692 726 l 1,1,-1
 268 -10 l 1,2,-1
 196 -10 l 1,3,-1
 620 726 l 1,0,-1
91 289 m 1,4,-1
 91 349 l 1,5,-1
 159 349 l 1,6,-1
 159 661 l 1,7,-1
 81 642 l 1,8,-1
 81 692 l 1,9,-1
 171 726 l 1,10,-1
 234 726 l 1,11,-1
 234 349 l 1,12,-1
 306 349 l 1,13,-1
 306 289 l 1,14,-1
 91 289 l 1,4,-1
557 153 m 1,15,-1
 681 153 l 1,16,-1
 681 340 l 1,17,-1
 678 340 l 1,18,-1
 557 153 l 1,15,-1
489 159 m 1,19,-1
 667 430 l 1,20,-1
 756 430 l 1,21,-1
 756 153 l 1,22,-1
 819 153 l 1,23,-1
 819 96 l 1,24,-1
 756 96 l 1,25,-1
 756 0 l 1,26,-1
 681 0 l 1,27,-1
 681 96 l 1,28,-1
 489 96 l 1,29,-1
 489 159 l 1,19,-1
EndSplineSet
Ligature2: "'frac' Diagonal Fractions in Latin lookup 1 subtable" one fraction four
Ligature2: "'frac' Diagonal Fractions in Latin lookup 1 subtable" one slash four
EndChar
StartChar: onehalf
Encoding: 189 189 127
Width: 903
VWidth: 1473
Flags: W
HStem: 0 60<594 813> 289 60<91 159 234 306> 379 59<621.372 724.873>
VStem: 159 75<349 661> 519 75<60 68.5154 68.5154 72.5509 72.5509 85.3365 314 354.62> 741 74<268.852 360.918>
Fore
608 726 m 1,0,-1
 679 726 l 1,1,-1
 256 -10 l 1,2,-1
 183 -10 l 1,3,-1
 608 726 l 1,0,-1
91 289 m 1,4,-1
 91 349 l 1,5,-1
 159 349 l 1,6,-1
 159 661 l 1,7,-1
 81 642 l 1,8,-1
 81 692 l 1,9,-1
 171 726 l 1,10,-1
 234 726 l 1,11,-1
 234 349 l 1,12,-1
 306 349 l 1,13,-1
 306 289 l 1,14,-1
 91 289 l 1,4,-1
524 314 m 1,15,16
 536 373 536 373 576.5 405.5 c 128,-1,17
 617 438 617 438 679 438 c 256,18,19
 741 438 741 438 778 404 c 128,-1,20
 815 370 815 370 815 308 c 0,21,22
 815 277 815 277 802.5 252.5 c 128,-1,23
 790 228 790 228 770 209 c 128,-1,24
 750 190 750 190 725.5 174.5 c 128,-1,25
 701 159 701 159 678 146 c 0,26,27
 648 130 648 130 631 118 c 128,-1,28
 614 106 614 106 606 95.5 c 128,-1,29
 598 85 598 85 596 77 c 128,-1,30
 594 69 594 69 594 60 c 1,31,-1
 813 60 l 1,32,-1
 813 0 l 1,33,-1
 519 0 l 1,34,-1
 519 49 l 2,35,36
 519 68 519 68 522.5 85.5 c 128,-1,37
 526 103 526 103 537 120 c 128,-1,38
 548 137 548 137 569.5 154 c 128,-1,39
 591 171 591 171 625 189 c 0,40,41
 663 209 663 209 686.5 225.5 c 128,-1,42
 710 242 710 242 722 256 c 128,-1,43
 734 270 734 270 737.5 284 c 128,-1,44
 741 298 741 298 741 312 c 0,45,46
 741 337 741 337 725 358 c 128,-1,47
 709 379 709 379 682 379 c 0,48,49
 648 379 648 379 626 365.5 c 128,-1,50
 604 352 604 352 592 306 c 1,51,-1
 524 314 l 1,15,16
EndSplineSet
Ligature2: "'frac' Diagonal Fractions in Latin lookup 1 subtable" one fraction two
Ligature2: "'frac' Diagonal Fractions in Latin lookup 1 subtable" one slash two
EndChar
StartChar: threequarters
Encoding: 190 190 128
Width: 906
VWidth: 1473
Flags: W
HStem: 0 21G<211 295.467 681 756> 96 57<557 681 756 818> 284 58<121.828 247.734> 488 59<125 235.882> 667 59<138.764 245.976>
VStem: 256 74<560.599 658.251> 271 74<360.169 471.239> 681 75<0 96 153 340>
Fore
557 153 m 1,0,-1
 681 153 l 1,1,-1
 681 340 l 1,2,-1
 678 340 l 1,3,-1
 557 153 l 1,0,-1
489 159 m 1,4,-1
 667 430 l 1,5,-1
 756 430 l 1,6,-1
 756 153 l 1,7,-1
 818 153 l 1,8,-1
 818 96 l 1,9,-1
 756 96 l 1,10,-1
 756 0 l 1,11,-1
 681 0 l 1,12,-1
 681 96 l 1,13,-1
 489 96 l 1,14,-1
 489 159 l 1,4,-1
635 726 m 1,15,-1
 706 726 l 1,16,-1
 284 -10 l 1,17,-1
 211 -10 l 1,18,-1
 635 726 l 1,15,-1
78 399 m 1,19,20
 100 373 100 373 126.5 357.5 c 128,-1,21
 153 342 153 342 189 342 c 0,22,23
 218 342 218 342 244.5 356.5 c 128,-1,24
 271 371 271 371 271 410 c 0,25,26
 271 455 271 455 249.5 471.5 c 128,-1,27
 228 488 228 488 168 488 c 2,28,-1
 125 488 l 1,29,-1
 125 547 l 1,30,-1
 161 547 l 2,31,32
 217 547 217 547 236.5 561 c 128,-1,33
 256 575 256 575 256 617 c 0,34,35
 256 647 256 647 241.5 657 c 128,-1,36
 227 667 227 667 193 667 c 0,37,38
 166 667 166 667 142 659 c 128,-1,39
 118 651 118 651 103 625 c 1,40,-1
 52 656 l 1,41,42
 80 694 80 694 117.5 710 c 128,-1,43
 155 726 155 726 197 726 c 0,44,45
 273 726 273 726 301.5 700.5 c 128,-1,46
 330 675 330 675 330 620 c 0,47,48
 330 583 330 583 317.5 559 c 128,-1,49
 305 535 305 535 264 519 c 1,50,51
 302 507 302 507 323.5 481 c 128,-1,52
 345 455 345 455 345 410 c 0,53,54
 345 284 345 284 186 284 c 0,55,56
 130 284 130 284 89.5 306.5 c 128,-1,57
 49 329 49 329 29 361 c 1,58,-1
 78 399 l 1,19,20
EndSplineSet
Ligature2: "'frac' Diagonal Fractions in Latin lookup 1 subtable" three fraction four
Ligature2: "'frac' Diagonal Fractions in Latin lookup 1 subtable" three slash four
EndChar
StartChar: questiondown
Encoding: 191 191 129
Width: 434
VWidth: 1473
Flags: W
HStem: -239 87<176.588 299.819> 458 122<206 354>
VStem: 34 107<-116.395 22.4202> 206 148<458 580> 222 108<207.499 333>
Fore
473 -91 m 1,0,1
 448 -159 448 -159 385.5 -199 c 128,-1,2
 323 -239 323 -239 245 -239 c 0,3,4
 200 -239 200 -239 162 -226.5 c 128,-1,5
 124 -214 124 -214 95 -189.5 c 128,-1,6
 66 -165 66 -165 50 -128 c 128,-1,7
 34 -91 34 -91 34 -44 c 0,8,9
 34 16 34 16 63.5 56.5 c 128,-1,10
 93 97 93 97 128.5 131 c 128,-1,11
 164 165 164 165 193 198 c 128,-1,12
 222 231 222 231 222 275 c 2,13,-1
 222 333 l 1,14,-1
 330 333 l 1,15,-1
 330 275 l 2,16,17
 330 218 330 218 300.5 179.5 c 128,-1,18
 271 141 271 141 235.5 106.5 c 128,-1,19
 200 72 200 72 170.5 34 c 128,-1,20
 141 -4 141 -4 141 -60 c 0,21,22
 141 -94 141 -94 168.5 -123 c 128,-1,23
 196 -152 196 -152 246 -152 c 0,24,25
 275 -152 275 -152 298 -142.5 c 128,-1,26
 321 -133 321 -133 337.5 -118 c 128,-1,27
 354 -103 354 -103 365 -84.5 c 128,-1,28
 376 -66 376 -66 383 -47 c 1,29,-1
 473 -91 l 1,0,1
354 580 m 1,30,-1
 354 458 l 1,31,-1
 206 458 l 1,32,-1
 206 580 l 1,33,-1
 354 580 l 1,30,-1
EndSplineSet
EndChar
StartChar: AE
Encoding: 198 198 136
Width: 956
VWidth: 1473
Flags: W
HStem: 0 77<608 922> 193 80<275 513> 336 76<608 882> 639 77<474 513 608 927>
VStem: 513 95<77 193 273 336 412 639>
Fore
608 77 m 1,0,-1
 922 77 l 1,1,-1
 922 0 l 1,2,-1
 513 0 l 1,3,-1
 513 193 l 1,4,-1
 245 193 l 1,5,-1
 146 0 l 1,6,-1
 29 0 l 1,7,-1
 426 716 l 1,8,-1
 927 716 l 1,9,-1
 927 639 l 1,10,-1
 608 639 l 1,11,-1
 608 412 l 1,12,-1
 882 412 l 1,13,-1
 882 336 l 1,14,-1
 608 336 l 1,15,-1
 608 77 l 1,0,-1
513 273 m 1,16,-1
 513 641 l 1,17,-1
 474 641 l 1,18,-1
 275 273 l 1,19,-1
 513 273 l 1,16,-1
EndSplineSet
EndChar
StartChar: Eth
Encoding: 208 208 146
Width: 687
VWidth: 1473
Flags: W
HStem: 0 77<192 438.964> 327 74<-29 88 192 385> 639 77<192 438.964>
VStem: 88 104<77 327 401 639> 526 103<228.077 476.032>
Fore
-29 327 m 1,0,-1
 -29 401 l 1,1,-1
 88 401 l 1,2,-1
 88 716 l 1,3,-1
 355 716 l 2,4,5
 433 716 433 716 486 693 c 128,-1,6
 539 670 539 670 571 623.5 c 128,-1,7
 603 577 603 577 616 508 c 128,-1,8
 629 439 629 439 629 348 c 0,9,10
 629 262 629 262 616 196.5 c 128,-1,11
 603 131 603 131 571 87.5 c 128,-1,12
 539 44 539 44 486 22 c 128,-1,13
 433 0 433 0 355 0 c 2,14,-1
 88 0 l 1,15,-1
 88 327 l 1,16,-1
 -29 327 l 1,0,-1
385 401 m 1,17,-1
 385 327 l 1,18,-1
 192 327 l 1,19,-1
 192 77 l 1,20,-1
 355 77 l 2,21,22
 407 77 407 77 440 91.5 c 128,-1,23
 473 106 473 106 492 137.5 c 128,-1,24
 511 169 511 169 518.5 221 c 128,-1,25
 526 273 526 273 526 348 c 0,26,27
 526 430 526 430 518.5 485.5 c 128,-1,28
 511 541 511 541 492 575.5 c 128,-1,29
 473 610 473 610 440 624.5 c 128,-1,30
 407 639 407 639 355 639 c 2,31,-1
 192 639 l 1,32,-1
 192 401 l 1,33,-1
 385 401 l 1,17,-1
EndSplineSet
EndChar
StartChar: multiply
Encoding: 215 215 153
Width: 565
VWidth: 1473
Flags: W
Fore
330 311 m 1,0,-1
 533 108 l 1,1,-1
 479 53 l 1,2,-1
 275 256 l 1,3,-1
 72 53 l 1,4,-1
 18 108 l 1,5,-1
 221 311 l 1,6,-1
 18 516 l 1,7,-1
 72 570 l 1,8,-1
 275 365 l 1,9,-1
 479 570 l 1,10,-1
 533 516 l 1,11,-1
 330 311 l 1,0,-1
EndSplineSet
EndChar
StartChar: Oslash
Encoding: 216 216 154
Width: 695
VWidth: 1473
Flags: W
HStem: -9 84<254.953 439.367> 639 81<253.999 420.915> 799 20G<568.769 656>
VStem: 59 106<229.487 485.631> 530 106<233.66 458.022 387.427 461.979>
Fore
68 -88 m 1,0,-1
 3 -88 l 1,1,-1
 118 93 l 1,2,3
 87 138 87 138 73 201.5 c 128,-1,4
 59 265 59 265 59 349 c 0,5,6
 59 533 59 533 124.5 626.5 c 128,-1,7
 190 720 190 720 348 720 c 0,8,9
 438 720 438 720 496 689 c 1,10,-1
 582 819 l 1,11,-1
 656 819 l 1,12,-1
 547 654 l 1,13,14
 594 607 594 607 615 531 c 128,-1,15
 636 455 636 455 636 349 c 0,16,17
 636 264 636 264 620.5 197 c 128,-1,18
 605 130 605 130 570.5 84 c 128,-1,19
 536 38 536 38 481 14.5 c 128,-1,20
 426 -9 426 -9 348 -9 c 0,21,22
 284 -9 284 -9 237 6 c 128,-1,23
 190 21 190 21 156 50 c 1,24,-1
 68 -88 l 1,0,-1
348 75 m 0,25,26
 399 75 399 75 433.5 90 c 128,-1,27
 468 105 468 105 489.5 138 c 128,-1,28
 511 171 511 171 520.5 222.5 c 128,-1,29
 530 274 530 274 530 349 c 0,30,31
 530 393 530 393 528 425.5 c 128,-1,32
 526 458 526 458 521 484.5 c 128,-1,33
 516 511 516 511 509 533 c 128,-1,34
 502 555 502 555 494 579 c 1,35,-1
 209 124 l 1,36,37
 234 99 234 99 264.5 87 c 128,-1,38
 295 75 295 75 348 75 c 0,25,26
348 639 m 0,39,40
 296 639 296 639 260.5 624.5 c 128,-1,41
 225 610 225 610 204 576 c 128,-1,42
 183 542 183 542 174 487 c 128,-1,43
 165 432 165 432 165 349 c 0,44,45
 165 289 165 289 169.5 244 c 128,-1,46
 174 199 174 199 177 175 c 1,47,-1
 446 617 l 1,48,49
 424 629 424 629 403.5 634 c 128,-1,50
 383 639 383 639 348 639 c 0,39,40
EndSplineSet
EndChar
StartChar: Thorn
Encoding: 222 222 160
Width: 685
VWidth: 1473
Flags: W
HStem: 0 21G<112 215> 190 75<215 440.496> 564 77<215 444.011> 789 20G<112 215>
VStem: 112 103<0 190 265 564 641 809> 526 105<355.307 475.428>
Fore
215 0 m 1,0,-1
 112 0 l 1,1,-1
 112 809 l 1,2,-1
 215 809 l 1,3,-1
 215 641 l 1,4,-1
 385 641 l 2,5,6
 457 641 457 641 504.5 624.5 c 128,-1,7
 552 608 552 608 580 579 c 128,-1,8
 608 550 608 550 619.5 508.5 c 128,-1,9
 631 467 631 467 631 415 c 0,10,11
 631 365 631 365 619.5 323 c 128,-1,12
 608 281 608 281 580 251.5 c 128,-1,13
 552 222 552 222 504.5 206 c 128,-1,14
 457 190 457 190 385 190 c 2,15,-1
 215 190 l 1,16,-1
 215 0 l 1,0,-1
215 265 m 1,17,-1
 385 265 l 2,18,19
 438 265 438 265 466.5 274 c 128,-1,20
 495 283 495 283 508.5 300.5 c 128,-1,21
 522 318 522 318 524 347 c 128,-1,22
 526 376 526 376 526 415 c 256,23,24
 526 455 526 455 524 483 c 128,-1,25
 522 511 522 511 508.5 529.5 c 128,-1,26
 495 548 495 548 466.5 556 c 128,-1,27
 438 564 438 564 385 564 c 2,28,-1
 215 564 l 1,29,-1
 215 265 l 1,17,-1
EndSplineSet
EndChar
StartChar: germandbls
Encoding: 223 223 161
Width: 559
VWidth: 1473
Flags: W
HStem: -12 77<303.613 394.92> 330 68<255 294.258> 644 76<211.605 330.012>
VStem: 85 439<72 261 0 181 1.53064e-18 1.53064e-18> 85 98<0 612.541> 377 97<465.325 596.123> 429 95<98.6191 239.212>
Fore
85 0 m 1,0,-1
 85 523 l 2,1,2
 85 619 85 619 134 669.5 c 128,-1,3
 183 720 183 720 283 720 c 0,4,5
 368 720 368 720 421 670 c 128,-1,6
 474 620 474 620 474 535 c 0,7,8
 474 424 474 424 373 374 c 1,9,10
 448 351 448 351 486 306 c 128,-1,11
 524 261 524 261 524 181 c 0,12,13
 524 72 524 72 475 30 c 128,-1,14
 426 -12 426 -12 333 -12 c 0,15,16
 309 -12 309 -12 280.5 -4.5 c 128,-1,17
 252 3 252 3 231 15 c 1,18,-1
 262 87 l 1,19,20
 278 78 278 78 297.5 71.5 c 128,-1,21
 317 65 317 65 337 65 c 0,22,23
 373 65 373 65 401 91.5 c 128,-1,24
 429 118 429 118 429 187 c 0,25,26
 429 211 429 211 420 236 c 128,-1,27
 411 261 411 261 391 282 c 128,-1,28
 371 303 371 303 338 316.5 c 128,-1,29
 305 330 305 330 255 330 c 1,30,-1
 255 398 l 1,31,32
 290 399 290 399 313.5 405.5 c 128,-1,33
 337 412 337 412 351 427.5 c 128,-1,34
 365 443 365 443 371 469.5 c 128,-1,35
 377 496 377 496 377 538 c 0,36,37
 377 572 377 572 369 592.5 c 128,-1,38
 361 613 361 613 347 624.5 c 128,-1,39
 333 636 333 636 314 640 c 128,-1,40
 295 644 295 644 271 644 c 0,41,42
 224 644 224 644 203.5 613.5 c 128,-1,43
 183 583 183 583 183 527 c 2,44,-1
 183 0 l 1,45,-1
 85 0 l 1,0,-1
EndSplineSet
EndChar
StartChar: ae
Encoding: 230 230 168
Width: 917
VWidth: 1473
Flags: W
HStem: -12 69<148.615 280.909 559.591 706.466> 281 70<284.313 385 480 773> 526 68<188.41 353.13 562.93 708.594>
VStem: 29 92<84.9958 219.964> 385 95<219.251 281 354 388.459>
Fore
480 281 m 1,0,1
 480 231 480 231 488 190 c 128,-1,2
 496 149 496 149 514.5 119.5 c 128,-1,3
 533 90 533 90 563.5 73.5 c 128,-1,4
 594 57 594 57 638 57 c 0,5,6
 666 57 666 57 689 61.5 c 128,-1,7
 712 66 712 66 731 78.5 c 128,-1,8
 750 91 750 91 767 112.5 c 128,-1,9
 784 134 784 134 800 168 c 1,10,-1
 862 131 l 1,11,12
 826 53 826 53 771 20.5 c 128,-1,13
 716 -12 716 -12 632 -12 c 0,14,15
 564 -12 564 -12 520 17 c 128,-1,16
 476 46 476 46 443 99 c 1,17,18
 417 71 417 71 392.5 50 c 128,-1,19
 368 29 368 29 340 15 c 128,-1,20
 312 1 312 1 279 -5.5 c 128,-1,21
 246 -12 246 -12 203 -12 c 0,22,23
 169 -12 169 -12 138.5 -1.5 c 128,-1,24
 108 9 108 9 83.5 30.5 c 128,-1,25
 59 52 59 52 44 83.5 c 128,-1,26
 29 115 29 115 29 156 c 0,27,28
 29 215 29 215 50 253.5 c 128,-1,29
 71 292 71 292 115 314 c 128,-1,30
 159 336 159 336 227 345 c 128,-1,31
 295 354 295 354 387 354 c 1,32,-1
 387 423 l 2,33,34
 387 482 387 482 354 504 c 128,-1,35
 321 526 321 526 268 526 c 0,36,37
 217 526 217 526 178.5 498 c 128,-1,38
 140 470 140 470 106 420 c 1,39,-1
 47 463 l 1,40,41
 91 533 91 533 151 563.5 c 128,-1,42
 211 594 211 594 271 594 c 0,43,44
 345 594 345 594 388.5 566 c 128,-1,45
 432 538 432 538 451 489 c 1,46,47
 480 533 480 533 522 563.5 c 128,-1,48
 564 594 564 594 631 594 c 0,49,50
 701 594 701 594 744.5 570.5 c 128,-1,51
 788 547 788 547 813 505 c 128,-1,52
 838 463 838 463 847 406 c 128,-1,53
 856 349 856 349 856 281 c 1,54,-1
 480 281 l 1,0,1
385 284 m 1,55,56
 287 284 287 284 233.5 274.5 c 128,-1,57
 180 265 180 265 155 248 c 128,-1,58
 130 231 130 231 125.5 207.5 c 128,-1,59
 121 184 121 184 121 158 c 0,60,61
 121 57 121 57 215 57 c 0,62,63
 261 57 261 57 303.5 75.5 c 128,-1,64
 346 94 346 94 385 138 c 1,65,-1
 385 284 l 1,55,56
773 351 m 1,66,67
 769 395 769 395 762.5 428 c 128,-1,68
 756 461 756 461 740.5 483 c 128,-1,69
 725 505 725 505 698.5 515.5 c 128,-1,70
 672 526 672 526 628 526 c 0,71,72
 595 526 595 526 568 511 c 128,-1,73
 541 496 541 496 521.5 472 c 128,-1,74
 502 448 502 448 491 416.5 c 128,-1,75
 480 385 480 385 480 351 c 1,76,-1
 773 351 l 1,66,67
EndSplineSet
EndChar
StartChar: eth
Encoding: 240 240 178
Width: 530
VWidth: 1473
Flags: W
HStem: -12 69<194.021 335.979> 438 67<195.471 317.929> 700 20G<173.276 235.5 379 431.545>
VStem: 41 96<149.643 344.734> 393 96<149.643 283.44 280.366 286.515 286.515 324.5 348.5 379.403>
Fore
265 438 m 256,0,1
 225 438 225 438 200 424 c 128,-1,2
 175 410 175 410 161 384.5 c 128,-1,3
 147 359 147 359 142 324.5 c 128,-1,4
 137 290 137 290 137 247 c 256,5,6
 137 205 137 205 142 169.5 c 128,-1,7
 147 134 147 134 161 109 c 128,-1,8
 175 84 175 84 200 70.5 c 128,-1,9
 225 57 225 57 265 57 c 256,10,11
 305 57 305 57 330 70.5 c 128,-1,12
 355 84 355 84 369 109 c 128,-1,13
 383 134 383 134 388 169.5 c 128,-1,14
 393 205 393 205 393 247 c 256,15,16
 393 290 393 290 388 324.5 c 128,-1,17
 383 359 383 359 369 384.5 c 128,-1,18
 355 410 355 410 330 424 c 128,-1,19
 305 438 305 438 265 438 c 256,0,1
225 720 m 1,20,21
 246 706 246 706 266 691 c 128,-1,22
 286 676 286 676 303 660 c 1,23,-1
 417 720 l 1,24,-1
 449 676 l 1,25,-1
 345 620 l 1,26,27
 389 575 389 575 417 530.5 c 128,-1,28
 445 486 445 486 461 441 c 128,-1,29
 477 396 477 396 483 348.5 c 128,-1,30
 489 301 489 301 489 247 c 0,31,32
 489 128 489 128 434.5 58 c 128,-1,33
 380 -12 380 -12 265 -12 c 256,34,35
 150 -12 150 -12 95.5 58 c 128,-1,36
 41 128 41 128 41 247 c 256,37,38
 41 367 41 367 95.5 436 c 128,-1,39
 150 505 150 505 265 505 c 0,40,41
 299 505 299 505 319 498.5 c 128,-1,42
 339 492 339 492 361 480 c 1,43,-1
 364 483 l 1,44,45
 348 511 348 511 322 539 c 128,-1,46
 296 567 296 567 273 592 c 1,47,-1
 159 532 l 1,48,-1
 127 576 l 1,49,-1
 231 631 l 1,50,51
 214 648 214 648 194 663 c 128,-1,52
 174 678 174 678 150 691 c 1,53,-1
 225 720 l 1,20,21
EndSplineSet
EndChar
StartChar: divide
Encoding: 247 247 185
Width: 565
VWidth: 1473
Flags: W
HStem: 21 128<237.596 327.889> 264 81<38 527 38 527 38 38> 460 128<237.596 327.889>
VStem: 218 130<40.5952 128.889 479.595 568.405>
CounterMasks: 1 e0
Fore
38 264 m 1,0,-1
 38 345 l 1,1,-1
 527 345 l 1,2,-1
 527 264 l 1,3,-1
 38 264 l 1,0,-1
283 588 m 256,4,5
 309 588 309 588 328.5 569 c 128,-1,6
 348 550 348 550 348 524 c 128,-1,7
 348 498 348 498 328.5 479 c 128,-1,8
 309 460 309 460 283 460 c 256,9,10
 256 460 256 460 237 479 c 128,-1,11
 218 498 218 498 218 524 c 128,-1,12
 218 550 218 550 237 569 c 128,-1,13
 256 588 256 588 283 588 c 256,4,5
283 149 m 256,14,15
 309 149 309 149 328.5 129.5 c 128,-1,16
 348 110 348 110 348 84 c 0,17,18
 348 59 348 59 328.5 40 c 128,-1,19
 309 21 309 21 283 21 c 256,20,21
 256 21 256 21 237 40 c 128,-1,22
 218 59 218 59 218 84 c 0,23,24
 218 110 218 110 237 129.5 c 128,-1,25
 256 149 256 149 283 149 c 256,14,15
EndSplineSet
EndChar
StartChar: oslash
Encoding: 248 248 186
Width: 559
VWidth: 1473
Flags: W
HStem: -12 69<234.73 365> 526 68<196.284 338.783>
VStem: 41 96<185.506 353.077 343.731 362.424> 420 99<220.796 240.027 230.411 397.812>
Fore
371 495 m 1,0,1
 352 511 352 511 333 518.5 c 128,-1,2
 314 526 314 526 280 526 c 0,3,4
 230 526 230 526 201 511 c 128,-1,5
 172 496 172 496 157.5 467.5 c 128,-1,6
 143 439 143 439 140 395 c 128,-1,7
 137 351 137 351 137 292 c 0,8,9
 137 237 137 237 141.5 201.5 c 128,-1,10
 146 166 146 166 150 134 c 1,11,-1
 371 495 l 1,0,1
183 91 m 1,12,13
 203 75 203 75 223 66 c 128,-1,14
 243 57 243 57 280 57 c 0,15,16
 331 57 331 57 359 71 c 128,-1,17
 387 85 387 85 402 114.5 c 128,-1,18
 417 144 417 144 420 188.5 c 128,-1,19
 423 233 423 233 423 292 c 0,20,21
 423 348 423 348 417.5 385.5 c 128,-1,22
 412 423 412 423 405 454 c 1,23,-1
 183 91 l 1,12,13
63 -88 m 1,24,-1
 3 -88 l 1,25,-1
 99 62 l 1,26,27
 68 100 68 100 54.5 158.5 c 128,-1,28
 41 217 41 217 41 292 c 0,29,30
 41 362 41 362 53 418 c 128,-1,31
 65 474 65 474 93 513 c 128,-1,32
 121 552 121 552 166.5 573 c 128,-1,33
 212 594 212 594 280 594 c 0,34,35
 364 594 364 594 418 560 c 1,36,-1
 499 687 l 1,37,-1
 560 687 l 1,38,-1
 457 526 l 1,39,40
 491 488 491 488 505 428 c 128,-1,41
 519 368 519 368 519 292 c 0,42,43
 519 221 519 221 507 165 c 128,-1,44
 495 109 495 109 467.5 69 c 128,-1,45
 440 29 440 29 394.5 8.5 c 128,-1,46
 349 -12 349 -12 280 -12 c 0,47,48
 233 -12 233 -12 197.5 -2.5 c 128,-1,49
 162 7 162 7 136 25 c 1,50,-1
 63 -88 l 1,24,-1
EndSplineSet
EndChar
StartChar: thorn
Encoding: 254 254 192
Width: 623
VWidth: 1473
Flags: W
HStem: -206 21G<103 200> -12 69<308.318 424.213> 526 68<278.339 430.026> 789 20G<103 200>
VStem: 103 97<-206 53 147 435 529 809> 486 96<139.953 404.411>
Fore
103 809 m 1,0,-1
 200 809 l 1,1,-1
 200 529 l 1,2,-1
 202 529 l 1,3,4
 228 551 228 551 271 572.5 c 128,-1,5
 314 594 314 594 371 594 c 0,6,7
 423 594 423 594 462 579 c 128,-1,8
 501 564 501 564 527.5 529 c 128,-1,9
 554 494 554 494 568 435 c 128,-1,10
 582 376 582 376 582 289 c 0,11,12
 582 196 582 196 566 138 c 128,-1,13
 550 80 550 80 522.5 46.5 c 128,-1,14
 495 13 495 13 458 0.5 c 128,-1,15
 421 -12 421 -12 382 -12 c 0,16,17
 334 -12 334 -12 283.5 3 c 128,-1,18
 233 18 233 18 200 53 c 1,19,-1
 200 -206 l 1,20,-1
 103 -206 l 1,21,-1
 103 809 l 1,0,-1
200 147 m 1,22,23
 209 133 209 133 226 116.5 c 128,-1,24
 243 100 243 100 265 87 c 128,-1,25
 287 74 287 74 313 65.5 c 128,-1,26
 339 57 339 57 364 57 c 0,27,28
 423 57 423 57 454.5 117.5 c 128,-1,29
 486 178 486 178 486 299 c 0,30,31
 486 345 486 345 481.5 386 c 128,-1,32
 477 427 477 427 464.5 458 c 128,-1,33
 452 489 452 489 428.5 507.5 c 128,-1,34
 405 526 405 526 367 526 c 0,35,36
 311 526 311 526 266 497 c 128,-1,37
 221 468 221 468 200 435 c 1,38,-1
 200 147 l 1,22,23
EndSplineSet
EndChar
StartChar: dotlessi
Encoding: 305 305 194
Width: 248
VWidth: 1473
Flags: W
HStem: 0 21G<77 172> 562 20G<77 172>
VStem: 77 95<0 582>
Fore
172 0 m 1,0,-1
 77 0 l 1,1,-1
 77 582 l 1,2,-1
 172 582 l 1,3,-1
 172 0 l 1,0,-1
EndSplineSet
EndChar
StartChar: Lslash
Encoding: 321 321 195
Width: 559
VWidth: 1473
Flags: W
HStem: 0 75<215 547> 789 20G<112 215>
VStem: 112 103<75 348 477 809>
Fore
215 393 m 1,0,-1
 215 75 l 1,1,-1
 547 75 l 1,2,-1
 547 0 l 1,3,-1
 112 0 l 1,4,-1
 112 348 l 1,5,-1
 18 309 l 1,6,-1
 18 395 l 1,7,-1
 112 433 l 1,8,-1
 112 809 l 1,9,-1
 215 809 l 1,10,-1
 215 477 l 1,11,-1
 407 554 l 1,12,-1
 407 468 l 1,13,-1
 215 393 l 1,0,-1
EndSplineSet
EndChar
StartChar: lslash
Encoding: 322 322 196
Width: 278
VWidth: 1473
Flags: W
HStem: 0 21G<91 187> 789 20G<91 187>
VStem: 91 96<0 359 480 809>
Fore
187 0 m 1,0,-1
 91 0 l 1,1,-1
 91 359 l 1,2,-1
 1 312 l 1,3,-1
 1 399 l 1,4,-1
 91 445 l 1,5,-1
 91 809 l 1,6,-1
 187 809 l 1,7,-1
 187 480 l 1,8,-1
 277 526 l 1,9,-1
 277 440 l 1,10,-1
 187 393 l 1,11,-1
 187 0 l 1,0,-1
EndSplineSet
EndChar
StartChar: OE
Encoding: 338 338 197
Width: 969
VWidth: 1473
Flags: W
HStem: -9 83<250.393 403.428 386.982 419.874 419.874 444.5 451.5 518.213> 0 77<622 935> 336 76<622 896> 641 75<255.959 410.082 393.635 426.53 622 940>
VStem: 59 103<179.868 484.597> 519 103<96 336 412 625>
Fore
519 625 m 1,0,1
 491 631 491 631 443 636 c 128,-1,2
 395 641 395 641 348 641 c 0,3,4
 296 641 296 641 260.5 626 c 128,-1,5
 225 611 225 611 203 576.5 c 128,-1,6
 181 542 181 542 171.5 487 c 128,-1,7
 162 432 162 432 162 349 c 0,8,9
 162 200 162 200 203.5 137 c 128,-1,10
 245 74 245 74 348 74 c 0,11,12
 395 74 395 74 444.5 79.5 c 128,-1,13
 494 85 494 85 519 96 c 1,14,-1
 519 625 l 1,0,1
940 639 m 1,15,-1
 622 639 l 1,16,-1
 622 412 l 1,17,-1
 896 412 l 1,18,-1
 896 336 l 1,19,-1
 622 336 l 1,20,-1
 622 77 l 1,21,-1
 935 77 l 1,22,-1
 935 0 l 1,23,-1
 519 0 l 2,24,25
 499 0 499 0 451.5 -4.5 c 128,-1,26
 404 -9 404 -9 348 -9 c 0,27,28
 192 -9 192 -9 125.5 84 c 128,-1,29
 59 177 59 177 59 349 c 0,30,31
 59 533 59 533 124.5 626.5 c 128,-1,32
 190 720 190 720 348 720 c 0,33,34
 390 720 390 720 439.5 718 c 128,-1,35
 489 716 489 716 519 716 c 2,36,-1
 940 716 l 1,37,-1
 940 639 l 1,15,-1
EndSplineSet
EndChar
StartChar: oe
Encoding: 339 339 198
Width: 932
VWidth: 1473
Flags: W
HStem: -12 77<587.312 736.63> -12 69<203.141 346.493> 281 70<519 790> 526 68<196.947 359.35 601.925 739.718>
VStem: 41 96<179.996 451.91> 421 98<150.385 281 351 421.483> 790 95<351 460.317>
Fore
137 292 m 0,0,1
 137 233 137 233 143 188.5 c 128,-1,2
 149 144 149 144 165 114.5 c 128,-1,3
 181 85 181 85 208.5 71 c 128,-1,4
 236 57 236 57 280 57 c 0,5,6
 361 57 361 57 391 114.5 c 128,-1,7
 421 172 421 172 421 292 c 256,8,9
 421 411 421 411 391 468.5 c 128,-1,10
 361 526 361 526 280 526 c 0,11,12
 193 526 193 526 165 468 c 128,-1,13
 137 410 137 410 137 292 c 0,0,1
519 281 m 1,14,15
 519 181 519 181 554 123 c 128,-1,16
 589 65 589 65 660 65 c 0,17,18
 694 65 694 65 736.5 85.5 c 128,-1,19
 779 106 779 106 822 174 c 1,20,-1
 893 131 l 1,21,22
 846 55 846 55 795 21.5 c 128,-1,23
 744 -12 744 -12 661 -12 c 0,24,25
 591 -12 591 -12 538.5 13 c 128,-1,26
 486 38 486 38 466 102 c 1,27,28
 460 80 460 80 449 60 c 128,-1,29
 438 40 438 40 416.5 23.5 c 128,-1,30
 395 7 395 7 362.5 -2.5 c 128,-1,31
 330 -12 330 -12 280 -12 c 0,32,33
 220 -12 220 -12 175 3 c 128,-1,34
 130 18 130 18 100.5 53 c 128,-1,35
 71 88 71 88 56 146.5 c 128,-1,36
 41 205 41 205 41 292 c 0,37,38
 41 443 41 443 94 518.5 c 128,-1,39
 147 594 147 594 280 594 c 0,40,41
 368 594 368 594 411.5 559 c 128,-1,42
 455 524 455 524 467 482 c 1,43,44
 476 504 476 504 488.5 524.5 c 128,-1,45
 501 545 501 545 524 560.5 c 128,-1,46
 547 576 547 576 581.5 585 c 128,-1,47
 616 594 616 594 667 594 c 0,48,49
 784 594 784 594 834.5 521.5 c 128,-1,50
 885 449 885 449 885 281 c 1,51,-1
 519 281 l 1,14,15
790 351 m 1,52,53
 790 440 790 440 760.5 483 c 128,-1,54
 731 526 731 526 666 526 c 0,55,56
 620 526 620 526 592 513.5 c 128,-1,57
 564 501 564 501 548.5 478 c 128,-1,58
 533 455 533 455 527.5 422.5 c 128,-1,59
 522 390 522 390 519 351 c 1,60,-1
 790 351 l 1,52,53
EndSplineSet
EndChar
StartChar: florin
Encoding: 402 402 204
Width: 564
VWidth: 1473
Flags: W
HStem: -199.5 80.5<56.7968 61.2115 59.0042 137.616> 408 66<96 242 351 480> 716 82<415.63 481.683 478.85 484.515 484.515 525.717>
Fore
480 408 m 1,0,-1
 343 408 l 1,1,-1
 281 -13 l 2,2,3
 275 -53 275 -53 262 -87 c 128,-1,4
 249 -121 249 -121 224 -146 c 128,-1,5
 199 -171 199 -171 162 -185.5 c 128,-1,6
 125 -200 125 -200 72 -200 c 0,7,8
 60 -200 60 -200 50.5 -199.5 c 128,-1,9
 41 -199 41 -199 29 -196 c 0,10,11
 25 -194 25 -194 20.5 -190.5 c 128,-1,12
 16 -187 16 -187 15.5 -178 c 128,-1,13
 15 -169 15 -169 19.5 -153 c 128,-1,14
 24 -137 24 -137 38 -110 c 1,15,16
 47 -113 47 -113 56.5 -116 c 128,-1,17
 66 -119 66 -119 75 -119 c 0,18,19
 127 -119 127 -119 150.5 -82.5 c 128,-1,20
 174 -46 174 -46 189 43 c 2,21,-1
 242 408 l 1,22,-1
 96 408 l 1,23,-1
 96 474 l 1,24,-1
 249 474 l 1,25,26
 253 519 253 519 264 575 c 128,-1,27
 275 631 275 631 298 681 c 128,-1,28
 321 731 321 731 359.5 764.5 c 128,-1,29
 398 798 398 798 457 798 c 0,30,31
 482 798 482 798 500.5 795.5 c 128,-1,32
 519 793 519 793 535 790 c 1,33,34
 539 784 539 784 543 768.5 c 128,-1,35
 547 753 547 753 547 739 c 128,-1,36
 547 725 547 725 542.5 714.5 c 128,-1,37
 538 704 538 704 526 706 c 1,38,39
 517 709 517 709 501 712.5 c 128,-1,40
 485 716 485 716 468 716 c 0,41,42
 435 716 435 716 415 694 c 128,-1,43
 395 672 395 672 382.5 637.5 c 128,-1,44
 370 603 370 603 364 560 c 128,-1,45
 358 517 358 517 351 474 c 1,46,-1
 480 474 l 1,47,-1
 480 408 l 1,0,-1
EndSplineSet
EndChar
StartChar: circumflex
Encoding: 710 710 205
Width: 248
VWidth: 1473
Flags: W
HStem: 647 154<87 290 87 87>
VStem: -43 333<647 647 647 647>
Fore
290 647 m 1,0,-1
 200 647 l 1,1,-1
 125 745 l 1,2,-1
 47 647 l 1,3,-1
 -43 647 l 1,4,-1
 87 801 l 1,5,-1
 162 801 l 1,6,-1
 290 647 l 1,0,-1
EndSplineSet
EndChar
StartChar: caron
Encoding: 711 711 206
Width: 248
VWidth: 1473
Flags: W
HStem: 647 154<-43 162 -43 -43>
VStem: -43 333<801 801 801 801>
Fore
-43 801 m 1,0,-1
 62 801 l 1,1,-1
 125 703 l 1,2,-1
 186 801 l 1,3,-1
 290 801 l 1,4,-1
 162 647 l 1,5,-1
 87 647 l 1,6,-1
 -43 801 l 1,0,-1
EndSplineSet
EndChar
StartChar: breve
Encoding: 728 728 207
Width: 248
VWidth: 1473
Flags: W
HStem: 653 75<60.7205 187.211> 774 20G<-37 44.5 204.5 286>
VStem: -37 80<737.132 787.957> 206 80<743.138 794>
Fore
125 728 m 0,0,1
 168 728 168 728 185.5 744 c 128,-1,2
 203 760 203 760 206 794 c 1,3,-1
 286 794 l 1,4,5
 281 728 281 728 243.5 690.5 c 128,-1,6
 206 653 206 653 125 653 c 0,7,8
 43 653 43 653 5.5 690.5 c 128,-1,9
 -32 728 -32 728 -37 794 c 1,10,-1
 43 794 l 1,11,12
 46 760 46 760 63 744 c 128,-1,13
 80 728 80 728 125 728 c 0,0,1
EndSplineSet
EndChar
StartChar: dotaccent
Encoding: 729 729 208
Width: 248
VWidth: 1473
Flags: W
HStem: 659 106<72 175>
VStem: 72 103<659 765>
Fore
175 765 m 1,0,-1
 175 659 l 1,1,-1
 72 659 l 1,2,-1
 72 765 l 1,3,-1
 175 765 l 1,0,-1
EndSplineSet
EndChar
StartChar: ring
Encoding: 730 730 209
Width: 248
VWidth: 1473
Flags: W
HStem: 642 59<84.5764 164.865> 807 59<83.9673 165.471>
VStem: 13 58<714.428 794.087> 178 59<714.428 794.71>
Fore
125 866 m 0,0,1
 169 866 169 866 203 833.5 c 128,-1,2
 237 801 237 801 237 754 c 256,3,4
 237 707 237 707 203 674.5 c 128,-1,5
 169 642 169 642 125 642 c 0,6,7
 80 642 80 642 46.5 674.5 c 128,-1,8
 13 707 13 707 13 754 c 256,9,10
 13 801 13 801 46.5 833.5 c 128,-1,11
 80 866 80 866 125 866 c 0,0,1
125 807 m 256,12,13
 103 807 103 807 87 792.5 c 128,-1,14
 71 778 71 778 71 754 c 0,15,16
 71 732 71 732 87 716.5 c 128,-1,17
 103 701 103 701 125 701 c 256,18,19
 147 701 147 701 162.5 716.5 c 128,-1,20
 178 732 178 732 178 754 c 0,21,22
 178 778 178 778 162.5 792.5 c 128,-1,23
 147 807 147 807 125 807 c 256,12,13
EndSplineSet
EndChar
StartChar: ogonek
Encoding: 731 731 210
Width: 248
VWidth: 1473
Flags: W
HStem: -231 70<91.1363 168.688>
VStem: 3 82<-149.321 -83.7966>
Fore
240 -3 m 1,0,1
 217 -10 217 -10 189.5 -22.5 c 128,-1,2
 162 -35 162 -35 139 -51.5 c 128,-1,3
 116 -68 116 -68 100.5 -87 c 128,-1,4
 85 -106 85 -106 85 -125 c 0,5,6
 85 -138 85 -138 93.5 -149.5 c 128,-1,7
 102 -161 102 -161 127 -161 c 0,8,9
 140 -161 140 -161 157 -155 c 128,-1,10
 174 -149 174 -149 191 -141 c 128,-1,11
 208 -133 208 -133 224 -124 c 128,-1,12
 240 -115 240 -115 250 -109 c 1,13,-1
 267 -172 l 1,14,15
 234 -193 234 -193 190 -212 c 128,-1,16
 146 -231 146 -231 108 -231 c 0,17,18
 65 -231 65 -231 34 -211.5 c 128,-1,19
 3 -192 3 -192 3 -141 c 0,20,21
 3 -100 3 -100 29 -70.5 c 128,-1,22
 55 -41 55 -41 91.5 -21 c 128,-1,23
 128 -1 128 -1 168.5 12 c 128,-1,24
 209 25 209 25 240 35 c 1,25,-1
 240 -3 l 1,0,1
EndSplineSet
EndChar
StartChar: tilde
Encoding: 732 732 211
Width: 248
VWidth: 1473
Flags: W
HStem: 664 124<-52 299 243 243> 664 70<175.386 229.669> 715 69<20.5032 74.2794>
Fore
-52 659 m 1,0,1
 -50 679 -50 679 -42.5 700.5 c 128,-1,2
 -35 722 -35 722 -22 741 c 128,-1,3
 -9 760 -9 760 8 772 c 128,-1,4
 25 784 25 784 47 784 c 0,5,6
 68 784 68 784 88 776 c 128,-1,7
 108 768 108 768 126 759 c 128,-1,8
 144 750 144 750 162 742 c 128,-1,9
 180 734 180 734 193 734 c 0,10,11
 217 734 217 734 228.5 751 c 128,-1,12
 240 768 240 768 243 788 c 1,13,-1
 299 788 l 1,14,15
 296 766 296 766 289.5 744 c 128,-1,16
 283 722 283 722 271 704.5 c 128,-1,17
 259 687 259 687 242 675.5 c 128,-1,18
 225 664 225 664 200 664 c 0,19,20
 183 664 183 664 163 672.5 c 0,21,-1
 123 689.5 l 0,22,23
 103 698 103 698 86 706.5 c 128,-1,24
 69 715 69 715 57 715 c 0,25,26
 34 715 34 715 21.5 697 c 128,-1,27
 9 679 9 679 6 659 c 1,28,-1
 -52 659 l 1,0,1
EndSplineSet
EndChar
StartChar: hungarumlaut
Encoding: 733 733 212
Width: 248
VWidth: 1473
Flags: W
HStem: 647 154<63 203 203 203>
Fore
203 801 m 1,0,-1
 63 647 l 1,1,-1
 -9 647 l 1,2,-1
 87 801 l 1,3,-1
 203 801 l 1,0,-1
368 801 m 1,4,-1
 199 647 l 1,5,-1
 127 647 l 1,6,-1
 252 801 l 1,7,-1
 368 801 l 1,4,-1
EndSplineSet
EndChar
StartChar: uni0E01
Encoding: 3585 3585 214
Width: 648
VWidth: 1473
Flags: W
HStem: 0 21G<97 186 479 567> 385 42<192 278> 532 66<264.076 397.676>
VStem: 97 89<0 343.18> 479 88<0 436.281>
Fore
340 598 m 0,0,1
 390 598 390 598 432 587.5 c 128,-1,2
 474 577 474 577 503.5 550.5 c 128,-1,3
 533 524 533 524 550 479.5 c 128,-1,4
 567 435 567 435 567 367 c 2,5,-1
 567 0 l 1,6,-1
 479 0 l 1,7,-1
 479 367 l 2,8,9
 479 424 479 424 472.5 456.5 c 128,-1,10
 466 489 466 489 450.5 506 c 128,-1,11
 435 523 435 523 408.5 527.5 c 128,-1,12
 382 532 382 532 340 532 c 0,13,14
 303 532 303 532 269.5 525.5 c 128,-1,15
 236 519 236 519 210 509 c 128,-1,16
 184 499 184 499 168.5 489.5 c 128,-1,17
 153 480 153 480 153 473 c 0,18,19
 153 468 153 468 157.5 461 c 128,-1,20
 162 454 162 454 168 446 c 128,-1,21
 174 438 174 438 180.5 432.5 c 128,-1,22
 187 427 187 427 192 427 c 0,23,24
 203 427 203 427 216.5 436.5 c 128,-1,25
 230 446 230 446 243 446 c 0,26,27
 247 446 247 446 255.5 436.5 c 128,-1,28
 264 427 264 427 271 415.5 c 128,-1,29
 278 404 278 404 281 394.5 c 128,-1,30
 284 385 284 385 278 385 c 0,31,32
 236 385 236 385 211 357.5 c 128,-1,33
 186 330 186 330 186 247 c 2,34,-1
 186 0 l 1,35,-1
 97 0 l 1,36,-1
 97 262 l 2,37,38
 97 318 97 318 108 344 c 128,-1,39
 119 370 119 370 144 395 c 1,40,41
 138 398 138 398 125.5 406.5 c 128,-1,42
 113 415 113 415 100 426.5 c 128,-1,43
 87 438 87 438 76.5 449.5 c 128,-1,44
 66 461 66 461 66 470 c 0,45,46
 66 483 66 483 89 505 c 128,-1,47
 112 527 112 527 150.5 548 c 128,-1,48
 189 569 189 569 238 583.5 c 128,-1,49
 287 598 287 598 340 598 c 0,0,1
EndSplineSet
EndChar
StartChar: uni0E02
Encoding: 3586 3586 215
Width: 617
VWidth: 1473
Flags: W
HStem: -9 66<259.46 420.225> 367 53<126.897 181.192> 532 63<178.414 258.062>
VStem: 59 60<434.707 501.52> 122 89<87.2876 263.73> 194 52<431.347 466> 292 72<390.883 512.852> 446 90<86.1777 194.181 194.181 256.15 256.15 589>
Fore
220 508 m 1,0,-1
 246 466 l 1,1,2
 246 421 246 421 221.5 394 c 128,-1,3
 197 367 197 367 153 367 c 256,4,5
 109 367 109 367 84 395.5 c 128,-1,6
 59 424 59 424 59 467 c 0,7,8
 59 496 59 496 72 520 c 128,-1,9
 85 544 85 544 106 560.5 c 128,-1,10
 127 577 127 577 155 586 c 128,-1,11
 183 595 183 595 211 595 c 0,12,13
 240 595 240 595 267.5 586 c 128,-1,14
 295 577 295 577 316 559.5 c 128,-1,15
 337 542 337 542 350.5 515 c 128,-1,16
 364 488 364 488 364 451 c 0,17,18
 364 404 364 404 340.5 372 c 128,-1,19
 317 340 317 340 288 315 c 128,-1,20
 259 290 259 290 235 266 c 128,-1,21
 211 242 211 242 211 209 c 2,22,-1
 211 159 l 2,23,24
 211 103 211 103 240.5 80 c 128,-1,25
 270 57 270 57 326 57 c 0,26,27
 393 57 393 57 421 79.5 c 128,-1,28
 449 102 449 102 449 166 c 0,29,30
 449 192 449 192 447.5 222.5 c 128,-1,31
 446 253 446 253 446 290 c 2,32,-1
 446 589 l 1,33,-1
 536 589 l 1,34,-1
 536 174 l 2,35,36
 536 77 536 77 476.5 34 c 128,-1,37
 417 -9 417 -9 324 -9 c 0,38,39
 284 -9 284 -9 247.5 0 c 128,-1,40
 211 9 211 9 183.5 28 c 128,-1,41
 156 47 156 47 139 77.5 c 128,-1,42
 122 108 122 108 122 149 c 2,43,-1
 122 206 l 2,44,45
 122 250 122 250 148.5 279.5 c 128,-1,46
 175 309 175 309 207 334 c 128,-1,47
 239 359 239 359 265.5 385.5 c 128,-1,48
 292 412 292 412 292 451 c 0,49,50
 292 494 292 494 271 513 c 128,-1,51
 250 532 250 532 205 532 c 0,52,53
 194 532 194 532 179.5 529.5 c 128,-1,54
 165 527 165 527 151.5 520.5 c 128,-1,55
 138 514 138 514 128.5 501 c 128,-1,56
 119 488 119 488 119 467 c 0,57,58
 119 448 119 448 128.5 434 c 128,-1,59
 138 420 138 420 156 420 c 0,60,61
 172 420 172 420 183 431 c 128,-1,62
 194 442 194 442 194 466 c 2,63,-1
 194 508 l 1,64,-1
 220 508 l 1,0,-1
EndSplineSet
EndChar
StartChar: uni0E03
Encoding: 3587 3587 216
Width: 637
VWidth: 1473
Flags: W
HStem: -9 66<275.239 441.225> 390 52<110.124 171.501> 542 52<110.957 164.431> 580 20<270 297.5 467 557>
VStem: 52 50<458.52 525.926> 143 88<78.1772 214 214 259.95> 308 69<418.514 497.033> 467 90<86.1777 194.181 194.181 256.15 256.15 589>
Fore
228 476 m 1,0,1
 211 494 211 494 199 507 c 128,-1,2
 187 520 187 520 179 527.5 c 128,-1,3
 171 535 171 535 163 538.5 c 128,-1,4
 155 542 155 542 143 542 c 0,5,6
 124 542 124 542 113 528 c 128,-1,7
 102 514 102 514 102 494 c 0,8,9
 102 471 102 471 112 456.5 c 128,-1,10
 122 442 122 442 144 442 c 0,11,12
 153 442 153 442 165 448.5 c 128,-1,13
 177 455 177 455 193 473 c 1,14,-1
 208 455 l 1,15,-1
 199 421 l 1,16,17
 172 390 172 390 143 390 c 0,18,19
 100 390 100 390 76 419.5 c 128,-1,20
 52 449 52 449 52 492 c 0,21,22
 53 544 53 544 81 569 c 128,-1,23
 109 594 109 594 143 594 c 0,24,25
 162 594 162 594 178 585.5 c 128,-1,26
 194 577 194 577 206 567 c 0,27,28
 221 555 221 555 231 541 c 1,29,-1
 290 600 l 1,30,31
 305 594 305 594 320.5 580 c 128,-1,32
 336 566 336 566 348.5 548 c 128,-1,33
 361 530 361 530 369 509.5 c 128,-1,34
 377 489 377 489 377 468 c 0,35,36
 377 426 377 426 366 398.5 c 128,-1,37
 355 371 355 371 339 352.5 c 128,-1,38
 323 334 323 334 304.5 321 c 128,-1,39
 286 308 286 308 269.5 293 c 128,-1,40
 253 278 253 278 242 260.5 c 128,-1,41
 231 243 231 243 231 214 c 2,42,-1
 231 144 l 2,43,44
 231 88 231 88 260.5 72.5 c 128,-1,45
 290 57 290 57 346 57 c 0,46,47
 414 57 414 57 442 79.5 c 128,-1,48
 470 102 470 102 470 166 c 0,49,50
 470 192 470 192 468.5 222.5 c 128,-1,51
 467 253 467 253 467 290 c 2,52,-1
 467 589 l 1,53,-1
 557 589 l 1,54,-1
 557 174 l 2,55,56
 557 77 557 77 497.5 34 c 128,-1,57
 438 -9 438 -9 345 -9 c 0,58,59
 305 -9 305 -9 268 -2.5 c 128,-1,60
 231 4 231 4 204 21 c 128,-1,61
 177 38 177 38 160 65.5 c 128,-1,62
 143 93 143 93 143 134 c 2,63,-1
 143 214 l 2,64,65
 143 249 143 249 155.5 272.5 c 128,-1,66
 168 296 168 296 185.5 313 c 128,-1,67
 203 330 203 330 225 343.5 c 128,-1,68
 247 357 247 357 265 373 c 128,-1,69
 283 389 283 389 295.5 411 c 128,-1,70
 308 433 308 433 308 466 c 0,71,72
 308 494 308 494 302 505.5 c 128,-1,73
 296 517 296 517 289 524 c 1,74,-1
 228 476 l 1,0,1
EndSplineSet
EndChar
StartChar: uni0E04
Encoding: 3588 3588 217
Width: 655
VWidth: 1473
Flags: W
HStem: 0 21G<100 183.5 489 575> 202 51<307.726 380.533> 355 57<291.742 381.696> 532 66<230.818 405.238>
VStem: 74 81<278.596 458.462> 93 90<3.09668 50.9542> 392 56<265.421 344.464> 489 86<0 399.845>
Fore
489 333 m 2,0,1
 489 390 489 390 481 428.5 c 128,-1,2
 473 467 473 467 454 490 c 128,-1,3
 435 513 435 513 405.5 522.5 c 128,-1,4
 376 532 376 532 331 532 c 0,5,6
 253 532 253 532 204 493 c 128,-1,7
 155 454 155 454 155 357 c 0,8,9
 155 326 155 326 158.5 296.5 c 128,-1,10
 162 267 162 267 171 245 c 1,11,12
 178 277 178 277 194.5 307 c 128,-1,13
 211 337 211 337 233 361 c 128,-1,14
 255 385 255 385 283 398.5 c 128,-1,15
 311 412 311 412 342 412 c 0,16,17
 387 412 387 412 416.5 384.5 c 128,-1,18
 446 357 446 357 448 305 c 0,19,20
 448 262 448 262 417.5 232 c 128,-1,21
 387 202 387 202 345 202 c 128,-1,22
 303 202 303 202 274 231 c 1,23,-1
 268 277 l 1,24,-1
 283 295 l 1,25,-1
 311 268 l 2,26,27
 324 253 324 253 343 253 c 0,28,29
 365 253 365 253 378.5 268.5 c 128,-1,30
 392 284 392 284 392 306 c 0,31,32
 392 327 392 327 379.5 341 c 128,-1,33
 367 355 367 355 342 355 c 0,34,35
 314 355 314 355 286.5 328.5 c 128,-1,36
 259 302 259 302 236.5 255 c 128,-1,37
 214 208 214 208 199 143 c 128,-1,38
 184 78 184 78 183 0 c 1,39,-1
 103 0 l 2,40,41
 97 0 97 0 95 3 c 128,-1,42
 93 6 93 6 93 21 c 0,43,44
 93 34 93 34 96.5 51.5 c 128,-1,45
 100 69 100 69 105 88.5 c 128,-1,46
 110 108 110 108 117 125.5 c 128,-1,47
 124 143 124 143 128 156 c 0,48,49
 137 180 137 180 128 190 c 0,50,51
 106 218 106 218 90 258.5 c 128,-1,52
 74 299 74 299 74 357 c 256,53,54
 74 414 74 414 93.5 459 c 128,-1,55
 113 504 113 504 147 535 c 128,-1,56
 181 566 181 566 227 582 c 128,-1,57
 273 598 273 598 324 598 c 0,58,59
 466 598 466 598 520.5 537 c 128,-1,60
 575 476 575 476 575 348 c 2,61,-1
 575 0 l 1,62,-1
 489 0 l 1,63,-1
 489 333 l 2,0,1
EndSplineSet
EndChar
StartChar: uni0E05
Encoding: 3589 3589 218
Width: 655
VWidth: 1473
Flags: W
HStem: 0 21G<100 183.5 489 575> 202 51<307.726 380.533> 355 57<291.742 381.696> 578 20G<196 266.645 391.231 464>
VStem: 74 81<278.596 472.877> 93 90<3.09668 50.9542> 392 56<265.421 344.464> 489 86<0 398.669 398.669 432 432 478.889>
Fore
171 245 m 1,0,1
 178 277 178 277 194.5 307 c 128,-1,2
 211 337 211 337 233 361 c 128,-1,3
 255 385 255 385 283 398.5 c 128,-1,4
 311 412 311 412 342 412 c 0,5,6
 387 412 387 412 416.5 384.5 c 128,-1,7
 446 357 446 357 448 305 c 0,8,9
 448 262 448 262 417.5 232 c 128,-1,10
 387 202 387 202 345 202 c 128,-1,11
 303 202 303 202 274 231 c 1,12,-1
 268 277 l 1,13,-1
 283 295 l 1,14,-1
 311 268 l 2,15,16
 324 253 324 253 343 253 c 0,17,18
 365 253 365 253 378.5 268.5 c 128,-1,19
 392 284 392 284 392 306 c 0,20,21
 392 327 392 327 379.5 341 c 128,-1,22
 367 355 367 355 342 355 c 0,23,24
 314 355 314 355 286.5 328.5 c 128,-1,25
 259 302 259 302 236.5 255 c 128,-1,26
 214 208 214 208 199 143 c 128,-1,27
 184 78 184 78 183 0 c 1,28,-1
 103 0 l 2,29,30
 97 0 97 0 95 3 c 128,-1,31
 93 6 93 6 93 21 c 0,32,33
 93 34 93 34 96.5 51.5 c 128,-1,34
 100 69 100 69 105 88.5 c 128,-1,35
 110 108 110 108 117 125.5 c 128,-1,36
 124 143 124 143 128 156 c 0,37,38
 137 180 137 180 128 190 c 0,39,40
 106 218 106 218 90 258.5 c 128,-1,41
 74 299 74 299 74 357 c 0,42,43
 74 451 74 451 115 510 c 128,-1,44
 156 569 156 569 236 598 c 1,45,-1
 331 536 l 1,46,-1
 418 601 l 1,47,48
 510 586 510 586 542.5 521.5 c 128,-1,49
 575 457 575 457 575 348 c 2,50,-1
 575 0 l 1,51,-1
 489 0 l 1,52,-1
 489 365 l 2,53,54
 489 404 489 404 487.5 432 c 128,-1,55
 486 460 486 460 479.5 479.5 c 128,-1,56
 473 499 473 499 458 511.5 c 128,-1,57
 443 524 443 524 415 532 c 1,58,-1
 331 470 l 1,59,-1
 242 530 l 1,60,61
 192 514 192 514 173.5 473 c 128,-1,62
 155 432 155 432 155 357 c 0,63,64
 155 326 155 326 158.5 296.5 c 128,-1,65
 162 267 162 267 171 245 c 1,0,1
EndSplineSet
EndChar
StartChar: uni0E06
Encoding: 3590 3590 219
Width: 721
VWidth: 1473
Flags: W
HStem: -3 53<170.782 221.392> 376 51<110.664 181.914> 535 59<112.408 176.256> 569 20<294.915 327 544 632>
VStem: 52 50<443.717 514.455> 106 53<63.6159 163.812> 230.5 80.5<57.7356 77.5 89.5 92.1808 92.1808 106.969 106.969 124 124 141 141 167.686> 324 83<408.98 493.264> 544.5 87.5<119.564 181.877 181.877 189.242 189.242 241.515 241.515 589>
Fore
407 468 m 0,0,1
 407 433 407 433 393 408 c 128,-1,2
 379 383 379 383 361 361 c 128,-1,3
 343 339 343 339 327 316 c 128,-1,4
 311 293 311 293 308 262 c 1,5,6
 383 258 383 258 444 221 c 128,-1,7
 505 184 505 184 548 119 c 1,8,9
 547 137 547 137 546 163 c 128,-1,10
 545 189 545 189 544.5 215.5 c 128,-1,11
 544 242 544 242 544 267.5 c 128,-1,12
 544 293 544 293 544 311 c 2,13,-1
 544 589 l 1,14,-1
 632 589 l 1,15,-1
 632 327 l 2,16,17
 632 278 632 278 632 228 c 128,-1,18
 632 178 632 178 633.5 136 c 128,-1,19
 635 94 635 94 636.5 63 c 128,-1,20
 638 32 638 32 639 21 c 0,21,22
 642 6 642 6 638.5 3 c 128,-1,23
 635 0 635 0 629 0 c 2,24,-1
 542 0 l 1,25,26
 519 97 519 97 459 148 c 128,-1,27
 399 199 399 199 308 205 c 1,28,-1
 311 146 l 2,29,30
 311 116 311 116 306.5 89.5 c 128,-1,31
 302 63 302 63 289.5 42.5 c 128,-1,32
 277 22 277 22 255.5 9.5 c 128,-1,33
 234 -3 234 -3 200 -3 c 0,34,35
 156 -3 156 -3 131 26.5 c 128,-1,36
 106 56 106 56 106 116 c 0,37,38
 106 183 106 183 143.5 217.5 c 128,-1,39
 181 252 181 252 228 261 c 1,40,41
 228 302 228 302 243.5 325.5 c 128,-1,42
 259 349 259 349 277 368 c 128,-1,43
 295 387 295 387 309.5 408.5 c 128,-1,44
 324 430 324 430 324 466 c 0,45,46
 324 491 324 491 315 503.5 c 128,-1,47
 306 516 306 516 302 523 c 1,48,-1
 243 468 l 1,49,50
 206 505 206 505 186 520 c 128,-1,51
 166 535 166 535 143 535 c 0,52,53
 124 535 124 535 113 517 c 128,-1,54
 102 499 102 499 102 479 c 0,55,56
 102 457 102 457 112 442 c 128,-1,57
 122 427 122 427 144 427 c 0,58,59
 165 427 165 427 178 440 c 2,60,-1
 205 468 l 1,61,-1
 220 451 l 1,62,-1
 212 408 l 1,63,64
 180 376 180 376 143 376 c 0,65,66
 100 376 100 376 76 405.5 c 128,-1,67
 52 435 52 435 52 477 c 0,68,69
 53 529 53 529 81 561.5 c 128,-1,70
 109 594 109 594 143 594 c 0,71,72
 162 594 162 594 180.5 585.5 c 128,-1,73
 199 577 199 577 214 567 c 0,74,75
 230 555 230 555 246 541 c 1,76,-1
 320 600 l 1,77,78
 334 594 334 594 349.5 580 c 128,-1,79
 365 566 365 566 377.5 548 c 128,-1,80
 390 530 390 530 398.5 509.5 c 128,-1,81
 407 489 407 489 407 468 c 0,0,1
230 141 m 128,-1,83
 230 158 230 158 229 168 c 128,-1,84
 228 178 228 178 228 202 c 1,85,86
 215 197 215 197 203.5 193 c 128,-1,87
 192 189 192 189 181.5 180 c 128,-1,88
 171 171 171 171 165 156 c 128,-1,89
 159 141 159 141 159 119 c 0,90,91
 159 87 159 87 171.5 68.5 c 128,-1,92
 184 50 184 50 200 50 c 0,93,94
 214 50 214 50 220.5 57.5 c 128,-1,95
 227 65 227 65 229 77.5 c 128,-1,96
 231 90 231 90 230.5 107 c 128,-1,82
 230 124 230 124 230 141 c 128,-1,83
EndSplineSet
EndChar
StartChar: uni0E07
Encoding: 3591 3591 220
Width: 565
VWidth: 1473
Flags: W
HStem: -2 57<284.954 347.562> 402 52<299.377 333> 545 53<298.017 372.162>
VStem: 234 53<471.133 534.365> 368 81.5<57.579 66 66 69.3486 69.3486 102.688 102.688 139.788 139.788 159 162.5 190.208> 396 89<334.529 344 365 385.415 385.415 388.168 388.168 491.848>
Fore
125 423 m 1,0,1
 166 382 166 382 204.5 291 c 128,-1,2
 243 200 243 200 270 65 c 0,3,4
 270 60 270 60 284.5 57.5 c 128,-1,5
 299 55 299 55 316.5 55 c 128,-1,6
 334 55 334 55 348 57.5 c 128,-1,7
 362 60 362 60 362 66 c 0,8,9
 362 113 362 113 368 162.5 c 128,-1,10
 374 212 374 212 380 257.5 c 128,-1,11
 386 303 386 303 391 344 c 128,-1,12
 396 385 396 385 396 414 c 0,13,14
 396 442 396 442 396 466.5 c 128,-1,15
 396 491 396 491 390.5 508.5 c 128,-1,16
 385 526 385 526 373 535.5 c 128,-1,17
 361 545 361 545 336 545 c 0,18,19
 315 545 315 545 301 532 c 128,-1,20
 287 519 287 519 287 499 c 0,21,22
 287 482 287 482 299 468 c 128,-1,23
 311 454 311 454 333 454 c 2,24,-1
 377 454 l 1,25,-1
 377 429 l 1,26,-1
 333 402 l 1,27,28
 289 402 289 402 261.5 428.5 c 128,-1,29
 234 455 234 455 234 499 c 0,30,31
 234 542 234 542 270 570 c 128,-1,32
 306 598 306 598 351 598 c 0,33,34
 420 598 420 598 452.5 548.5 c 128,-1,35
 485 499 485 499 485 424 c 0,36,37
 485 401 485 401 481 365 c 128,-1,38
 477 329 477 329 472.5 291 c 128,-1,39
 468 253 468 253 463 218 c 128,-1,40
 458 183 458 183 455 159 c 0,41,42
 454 141 454 141 452.5 120.5 c 128,-1,43
 451 100 451 100 449.5 80 c 128,-1,44
 448 60 448 60 448 44 c 128,-1,45
 448 28 448 28 448 19 c 0,46,47
 448 12 448 12 429.5 6.5 c 128,-1,48
 411 1 411 1 383 -1 c 128,-1,49
 355 -3 355 -3 322 -2 c 128,-1,50
 289 -1 289 -1 261 1 c 128,-1,51
 233 3 233 3 213.5 8 c 128,-1,52
 194 13 194 13 193 21 c 0,53,54
 181 91 181 91 169.5 138.5 c 128,-1,55
 158 186 158 186 141.5 222.5 c 128,-1,56
 125 259 125 259 103 291 c 128,-1,57
 81 323 81 323 47 361 c 0,58,59
 44 365 44 365 52 373.5 c 128,-1,60
 60 382 60 382 72.5 391.5 c 128,-1,61
 85 401 85 401 100 409.5 c 128,-1,62
 115 418 115 418 125 423 c 1,0,1
EndSplineSet
EndChar
StartChar: uni0E08
Encoding: 3592 3592 221
Width: 630
VWidth: 1473
Flags: W
HStem: 3 54.5<334.31 342 342 367 367 367.665 367.333 410.87 405.304 416.436 416.436 440.058> 187 52<156.377 190> 330 53<155.026 230.171> 526 71<235.581 352.594>
VStem: 91 53<256.452 319.155> 253 81<57.5787 85.947 85.947 136.5 136.5 225.444> 440 79<66 100.242 100.242 114.515 114.515 139.788 139.788 192.125> 456.5 89.5<323.088 331.5 351.5 366.206 366.206 373.391 369.799 469.159>
Fore
253 21 m 0,0,1
 256 81 256 81 257 136.5 c 128,-1,2
 258 192 258 192 252.5 235 c 128,-1,3
 247 278 247 278 233.5 304 c 128,-1,4
 220 330 220 330 193 330 c 0,5,6
 172 330 172 330 158 316.5 c 128,-1,7
 144 303 144 303 144 284 c 0,8,9
 144 268 144 268 156 253.5 c 128,-1,10
 168 239 168 239 190 239 c 2,11,-1
 234 239 l 1,12,-1
 234 214 l 1,13,-1
 190 187 l 1,14,15
 146 187 146 187 118.5 213.5 c 128,-1,16
 91 240 91 240 91 284 c 256,17,18
 91 329 91 329 120 356 c 128,-1,19
 149 383 149 383 193 383 c 0,20,21
 277 383 277 383 308.5 304 c 128,-1,22
 340 225 340 225 334 65 c 0,23,24
 334 60 334 60 349.5 57.5 c 128,-1,25
 365 55 365 55 386 55 c 256,26,27
 407 55 407 55 424.5 57.5 c 128,-1,28
 442 60 442 60 440 66 c 0,29,30
 438 115 438 115 440.5 163 c 128,-1,31
 443 211 443 211 447.5 253.5 c 128,-1,32
 452 296 452 296 456.5 331.5 c 128,-1,33
 461 367 461 367 461 393 c 0,34,35
 461 442 461 442 441 468.5 c 128,-1,36
 421 495 421 495 396 507.5 c 128,-1,37
 371 520 371 520 347.5 523 c 128,-1,38
 324 526 324 526 315 526 c 0,39,40
 247 526 247 526 200 498 c 128,-1,41
 153 470 153 470 116 426 c 0,42,43
 113 421 113 421 102 423.5 c 128,-1,44
 91 426 91 426 77 433 c 128,-1,45
 63 440 63 440 50 452 c 128,-1,46
 37 464 37 464 29 479 c 1,47,48
 44 498 44 498 73.5 518.5 c 128,-1,49
 103 539 103 539 140.5 557 c 128,-1,50
 178 575 178 575 221.5 586 c 128,-1,51
 265 597 265 597 306 597 c 0,52,53
 354 597 354 597 397 586.5 c 128,-1,54
 440 576 440 576 474 554 c 128,-1,55
 508 532 508 532 529 496 c 128,-1,56
 550 460 550 460 550 408 c 0,57,58
 550 385 550 385 546 351.5 c 128,-1,59
 542 318 542 318 537.5 282.5 c 128,-1,60
 533 247 533 247 528.5 215 c 128,-1,61
 524 183 524 183 522 159 c 0,62,63
 520 141 520 141 519.5 120.5 c 128,-1,64
 519 100 519 100 519 80 c 128,-1,65
 519 60 519 60 519.5 44 c 128,-1,66
 520 28 520 28 520 19 c 0,67,68
 520 7 520 7 480 2 c 128,-1,69
 440 -3 440 -3 392 -3 c 0,70,71
 367 -3 367 -3 342 -1.5 c 128,-1,72
 317 0 317 0 297 3 c 128,-1,73
 277 6 277 6 265 10.5 c 128,-1,74
 253 15 253 15 253 21 c 0,0,1
EndSplineSet
EndChar
StartChar: uni0E09
Encoding: 3593 3593 222
Width: 692
VWidth: 1473
Flags: W
HStem: -6 53<478.693 558.6> 161 50<139.893 171> 187 62<379.475 462.647> 320 51<139.18 214.518> 526 71<251.061 411.592>
VStem: 74 53<223.153 306.685> 227 71<177.796 236> 417 51<67.7806 136.539> 523 88<240.215 250.15 250.15 255 255 273.758 273.758 274.532 274.532 473.761> 567 81<54.229 152.32>
Fore
523 408 m 2,0,1
 523 451 523 451 501.5 474.5 c 128,-1,2
 480 498 480 498 453.5 510 c 128,-1,3
 427 522 427 522 401.5 524 c 128,-1,4
 376 526 376 526 367 526 c 0,5,6
 301 526 301 526 242.5 501 c 128,-1,7
 184 476 184 476 147 432 c 0,8,9
 143 427 143 427 134 431 c 128,-1,10
 125 435 125 435 114 443.5 c 128,-1,11
 103 452 103 452 90.5 465.5 c 128,-1,12
 78 479 78 479 68 494 c 1,13,14
 119 536 119 536 197 566.5 c 128,-1,15
 275 597 275 597 367 597 c 0,16,17
 418 597 418 597 463 586.5 c 128,-1,18
 508 576 508 576 541.5 554 c 128,-1,19
 575 532 575 532 593 496 c 128,-1,20
 611 460 611 460 611 408 c 2,21,-1
 611 287 l 2,22,23
 611 274 611 274 605.5 255 c 128,-1,24
 600 236 600 236 588 224 c 1,25,26
 617 208 617 208 632.5 175.5 c 128,-1,27
 648 143 648 143 648 105 c 0,28,29
 648 46 648 46 611.5 20 c 128,-1,30
 575 -6 575 -6 530 -6 c 256,31,32
 486 -6 486 -6 451.5 19 c 128,-1,33
 417 44 417 44 417 97 c 0,34,35
 417 131 417 131 431 151 c 128,-1,36
 445 171 445 171 463 186 c 1,37,38
 457 187 457 187 448 187 c 0,39,40
 412 187 412 187 383 171.5 c 128,-1,41
 354 156 354 156 333 131 c 128,-1,42
 312 106 312 106 301 72 c 128,-1,43
 290 38 290 38 290 0 c 1,44,-1
 218 0 l 2,45,46
 212 0 212 0 208.5 3 c 128,-1,47
 205 6 205 6 208 21 c 0,48,49
 212 44 212 44 219.5 83 c 128,-1,50
 227 122 227 122 227 194 c 2,51,-1
 227 245 l 2,52,53
 227 278 227 278 214.5 299 c 128,-1,54
 202 320 202 320 180 320 c 0,55,56
 155 320 155 320 141 303.5 c 128,-1,57
 127 287 127 287 127 265 c 256,58,59
 127 243 127 243 139.5 227 c 128,-1,60
 152 211 152 211 175 211 c 2,61,-1
 212 211 l 1,62,-1
 212 184 l 1,63,-1
 171 161 l 1,64,65
 128 161 128 161 101 191 c 128,-1,66
 74 221 74 221 74 265 c 256,67,68
 74 309 74 309 105 340 c 128,-1,69
 136 371 136 371 180 371 c 0,70,71
 237 371 237 371 271 334.5 c 128,-1,72
 305 298 305 298 301 236 c 2,73,-1
 298 194 l 2,74,75
 298 187 298 187 296.5 177.5 c 128,-1,76
 295 168 295 168 292 158 c 0,77,78
 286 134 l 1,79,80
 311 190 311 190 361 219.5 c 128,-1,81
 411 249 411 249 460 249 c 0,82,83
 480 249 480 249 495.5 246 c 128,-1,84
 511 243 511 243 519 240 c 1,85,86
 522 247 522 247 522.5 260.5 c 128,-1,87
 523 274 523 274 523 287 c 2,88,-1
 523 408 l 2,0,1
567 108 m 0,89,90
 567 131 567 131 551.5 149.5 c 128,-1,91
 536 168 536 168 517 174 c 1,92,93
 492 158 492 158 480 139.5 c 128,-1,94
 468 121 468 121 468 105 c 0,95,96
 468 81 468 81 479.5 64 c 128,-1,97
 491 47 491 47 516 47 c 0,98,99
 567 47 567 47 567 108 c 0,89,90
EndSplineSet
EndChar
StartChar: uni0E0A
Encoding: 3594 3594 223
Width: 629
VWidth: 1473
Flags: W
HStem: -9 66<262.233 406.852> 371 55<109.395 168.092> 539 56<123.245 254.481>
VStem: 44 58<440.298 523.812> 125 89<83.5939 141 141 276.733> 181 52<436.316 470> 275 64<390.766 520.008> 460.5 87.5<86.0349 203.392 203.392 246.604 246.604 385.778>
Fore
498 625 m 1,0,1
 516 622 516 622 532 616 c 0,2,3
 545 611 545 611 557.5 606 c 128,-1,4
 570 601 570 601 577 594 c 0,5,6
 582 589 582 589 582 585 c 0,7,8
 582 582 582 582 580.5 579.5 c 128,-1,9
 579 577 579 577 577 575 c 0,10,11
 557 542 557 542 532.5 513.5 c 128,-1,12
 508 485 508 485 480 466 c 1,13,14
 489 460 489 460 500 451.5 c 128,-1,15
 511 443 511 443 522 430.5 c 128,-1,16
 533 418 533 418 540.5 399 c 128,-1,17
 548 380 548 380 548 354 c 2,18,-1
 548 166 l 2,19,20
 548 118 548 118 531 85 c 128,-1,21
 514 52 514 52 485.5 30.5 c 128,-1,22
 457 9 457 9 417 0 c 128,-1,23
 377 -9 377 -9 330 -9 c 0,24,25
 290 -9 290 -9 253.5 -1 c 128,-1,26
 217 7 217 7 188 25 c 128,-1,27
 159 43 159 43 142 71.5 c 128,-1,28
 125 100 125 100 125 141 c 2,29,-1
 125 206 l 2,30,31
 125 253 125 253 148.5 282.5 c 128,-1,32
 172 312 172 312 200 337 c 128,-1,33
 228 362 228 362 251.5 388.5 c 128,-1,34
 275 415 275 415 275 458 c 256,35,36
 275 501 275 501 254 520 c 128,-1,37
 233 539 233 539 187 539 c 0,38,39
 155 539 155 539 128.5 526.5 c 128,-1,40
 102 514 102 514 102 471 c 0,41,42
 102 452 102 452 111.5 439 c 128,-1,43
 121 426 121 426 141 426 c 0,44,45
 158 426 158 426 169.5 436 c 128,-1,46
 181 446 181 446 181 470 c 2,47,-1
 181 513 l 1,48,-1
 206 513 l 1,49,-1
 233 470 l 1,50,51
 233 426 233 426 209.5 398.5 c 128,-1,52
 186 371 186 371 141 371 c 256,53,54
 97 371 97 371 70.5 400 c 128,-1,55
 44 429 44 429 44 471 c 0,56,57
 44 524 44 524 84.5 559.5 c 128,-1,58
 125 595 125 595 193 595 c 0,59,60
 264 595 264 595 301.5 559.5 c 128,-1,61
 339 524 339 524 339 463 c 0,62,63
 339 417 339 417 319 385.5 c 128,-1,64
 299 354 299 354 276 328 c 128,-1,65
 253 302 253 302 233.5 277.5 c 128,-1,66
 214 253 214 253 214 221 c 2,67,-1
 214 152 l 2,68,69
 214 96 214 96 244.5 76.5 c 128,-1,70
 275 57 275 57 331 57 c 0,71,72
 399 57 399 57 430 75.5 c 128,-1,73
 461 94 461 94 461 159 c 0,74,75
 461 172 461 172 461 186 c 128,-1,76
 461 200 461 200 460.5 221 c 128,-1,77
 460 242 460 242 460 272.5 c 128,-1,78
 460 303 460 303 460 351 c 256,79,80
 460 398 460 398 444.5 413.5 c 128,-1,81
 429 429 429 429 415 429 c 0,82,83
 407 429 407 429 403 425 c 128,-1,84
 399 421 399 421 389 421 c 0,85,86
 385 421 385 421 378 429.5 c 128,-1,87
 371 438 371 438 364.5 447.5 c 128,-1,88
 358 457 358 457 356 465 c 128,-1,89
 354 473 354 473 358 474 c 0,90,91
 383 480 383 480 398.5 487 c 128,-1,92
 414 494 414 494 429 507 c 0,93,94
 448 523 448 523 460.5 543.5 c 128,-1,95
 473 564 473 564 482 582 c 0,96,97
 492 603 492 603 498 625 c 1,0,1
EndSplineSet
EndChar
StartChar: uni0E0B
Encoding: 3595 3595 224
Width: 637
VWidth: 1473
Flags: W
HStem: -9 66<270.883 415.852> 389 51<102.83 163.342> 539 55<102.497 152.869>
VStem: 44 50<457.081 523.817> 134 88<84.2814 278.763> 278 62<399.195 497.04 478.85 507.781> 470 87<86.0349 159 159 203.392 203.392 246.604 246.604 385.778>
Fore
134 214 m 2,0,1
 134 267 134 267 157 297 c 128,-1,2
 180 327 180 327 206.5 350 c 128,-1,3
 233 373 233 373 255.5 398 c 128,-1,4
 278 423 278 423 278 466 c 0,5,6
 278 482 278 482 277.5 491.5 c 128,-1,7
 277 501 277 501 275 508 c 256,8,9
 274 516 274 516 271 520 c 1,10,-1
 218 476 l 1,11,12
 181 513 181 513 164 526 c 128,-1,13
 147 539 147 539 136 539 c 0,14,15
 116 539 116 539 105 526 c 128,-1,16
 94 513 94 513 94 492 c 0,17,18
 94 470 94 470 104.5 455 c 128,-1,19
 115 440 115 440 137 440 c 0,20,21
 146 440 146 440 157.5 447 c 128,-1,22
 169 454 169 454 186 471 c 1,23,-1
 200 454 l 1,24,-1
 192 420 l 1,25,26
 165 389 165 389 136 389 c 0,27,28
 93 389 93 389 68.5 418.5 c 128,-1,29
 44 448 44 448 44 491 c 0,30,31
 46 542 46 542 74 568 c 128,-1,32
 102 594 102 594 136 594 c 0,33,34
 155 594 155 594 170.5 585.5 c 128,-1,35
 186 577 186 577 197 566 c 0,36,37
 211 552 211 552 221 536 c 1,38,-1
 295 600 l 1,39,40
 321 579 321 579 330.5 544.5 c 128,-1,41
 340 510 340 510 340 468 c 0,42,43
 340 417 340 417 321 384.5 c 128,-1,44
 302 352 302 352 279 327.5 c 128,-1,45
 256 303 256 303 238.5 279.5 c 128,-1,46
 221 256 221 256 222 221 c 2,47,-1
 222 152 l 2,48,49
 222 96 222 96 253 76.5 c 128,-1,50
 284 57 284 57 340 57 c 0,51,52
 408 57 408 57 439 75.5 c 128,-1,53
 470 94 470 94 470 159 c 0,54,55
 470 172 470 172 470 186 c 128,-1,56
 470 200 470 200 469 221 c 128,-1,57
 468 242 468 242 468 272.5 c 128,-1,58
 468 303 468 303 468 351 c 256,59,60
 468 398 468 398 453 413.5 c 128,-1,61
 438 429 438 429 424 429 c 0,62,63
 415 429 415 429 411.5 425 c 128,-1,64
 408 421 408 421 398 421 c 0,65,66
 393 421 393 421 386.5 429.5 c 128,-1,67
 380 438 380 438 373.5 447.5 c 128,-1,68
 367 457 367 457 364.5 465 c 128,-1,69
 362 473 362 473 367 474 c 0,70,71
 392 480 392 480 407.5 487 c 128,-1,72
 423 494 423 494 438 507 c 0,73,74
 457 523 457 523 469.5 543.5 c 128,-1,75
 482 564 482 564 491 582 c 0,76,77
 501 603 501 603 507 625 c 1,78,79
 524 622 524 622 541 616 c 0,80,81
 554 611 554 611 566.5 606 c 128,-1,82
 579 601 579 601 586 594 c 0,83,84
 591 589 591 589 591 585 c 0,85,86
 591 582 591 582 589.5 579.5 c 128,-1,87
 588 577 588 577 586 575 c 0,88,89
 566 542 566 542 541.5 513.5 c 128,-1,90
 517 485 517 485 489 466 c 1,91,92
 498 460 498 460 509 451.5 c 128,-1,93
 520 443 520 443 531 430.5 c 128,-1,94
 542 418 542 418 549.5 399 c 128,-1,95
 557 380 557 380 557 354 c 2,96,-1
 557 166 l 2,97,98
 557 118 557 118 540 85 c 128,-1,99
 523 52 523 52 494.5 30.5 c 128,-1,100
 466 9 466 9 426 0 c 128,-1,101
 386 -9 386 -9 339 -9 c 0,102,103
 299 -9 299 -9 262 -1 c 128,-1,104
 225 7 225 7 196.5 25 c 128,-1,105
 168 43 168 43 151 71.5 c 128,-1,106
 134 100 134 100 134 141 c 2,107,-1
 134 214 l 2,0,1
EndSplineSet
EndChar
StartChar: uni0E0C
Encoding: 3596 3596 225
Width: 978
VWidth: 1473
Flags: W
HStem: -9 52<201.656 276.219 444.782 495.392> 150 52<239 273.107> 205 57<586.034 685.894> 532 66<251.449 385.539>
VStem: 97 89<71.3304 311.499> 286 53<55.5574 138.121> 380 53<63.6159 178.999> 494.5 87.5<283.984 356.638 356.638 455.478> 504.5 80.5<57.7356 77.5 89.5 92.1808 92.1808 106.969 106.969 124 124 164.11 262 283.017> 798 98<0 49.0401> 800.5 87.5<119.564 181.877 181.877 189.242 189.242 241.515 241.515 589>
Fore
504 141 m 0,0,1
 504 152 504 152 502.5 164.5 c 128,-1,2
 501 177 501 177 499 202 c 1,3,4
 474 194 474 194 453.5 179 c 128,-1,5
 433 164 433 164 433 119 c 0,6,7
 433 87 433 87 445.5 68.5 c 128,-1,8
 458 50 458 50 474 50 c 0,9,10
 488 50 488 50 494.5 57.5 c 128,-1,11
 501 65 501 65 503 77.5 c 128,-1,12
 505 90 505 90 504.5 107 c 128,-1,13
 504 124 504 124 504 141 c 0,0,1
186 113 m 2,14,15
 186 80 186 80 199 61.5 c 128,-1,16
 212 43 212 43 234 43 c 0,17,18
 259 43 259 43 272.5 59 c 128,-1,19
 286 75 286 75 286 97 c 256,20,21
 286 119 286 119 273.5 134.5 c 128,-1,22
 261 150 261 150 239 150 c 2,23,-1
 197 150 l 1,24,-1
 197 174 l 1,25,-1
 239 202 l 1,26,27
 281 202 281 202 310 171.5 c 128,-1,28
 339 141 339 141 339 97 c 256,29,30
 339 53 339 53 308.5 22 c 128,-1,31
 278 -9 278 -9 234 -9 c 0,32,33
 209 -9 209 -9 185 0 c 128,-1,34
 161 9 161 9 141 26.5 c 128,-1,35
 121 44 121 44 109 70.5 c 128,-1,36
 97 97 97 97 97 133 c 2,37,-1
 97 262 l 2,38,39
 97 318 97 318 108 344 c 128,-1,40
 119 370 119 370 144 395 c 1,41,42
 138 398 138 398 125.5 406.5 c 128,-1,43
 113 415 113 415 100 426.5 c 128,-1,44
 87 438 87 438 76.5 449.5 c 128,-1,45
 66 461 66 461 66 470 c 0,46,47
 66 483 66 483 87 505 c 128,-1,48
 108 527 108 527 143 548 c 128,-1,49
 178 569 178 569 225.5 583.5 c 128,-1,50
 273 598 273 598 326 598 c 0,51,52
 376 598 376 598 422 587.5 c 128,-1,53
 468 577 468 577 503.5 550.5 c 128,-1,54
 539 524 539 524 560.5 479.5 c 128,-1,55
 582 435 582 435 582 367 c 2,56,-1
 582 262 l 1,57,58
 657 258 657 258 715 226 c 128,-1,59
 773 194 773 194 804 119 c 1,60,61
 803 137 803 137 802 163 c 128,-1,62
 801 189 801 189 800.5 215.5 c 128,-1,63
 800 242 800 242 800 267.5 c 128,-1,64
 800 293 800 293 800 311 c 2,65,-1
 800 589 l 1,66,-1
 888 589 l 1,67,-1
 888 327 l 2,68,69
 888 278 888 278 888 228 c 128,-1,70
 888 178 888 178 889.5 136 c 128,-1,71
 891 94 891 94 892.5 63 c 128,-1,72
 894 32 894 32 896 21 c 0,73,74
 899 6 899 6 895 3 c 128,-1,75
 891 0 891 0 885 0 c 2,76,-1
 798 0 l 1,77,78
 775 97 775 97 725 147 c 128,-1,79
 675 197 675 197 583 205 c 1,80,-1
 585 146 l 2,81,82
 585 116 585 116 580.5 89.5 c 128,-1,83
 576 63 576 63 563.5 42.5 c 128,-1,84
 551 22 551 22 529.5 9.5 c 128,-1,85
 508 -3 508 -3 474 -3 c 0,86,87
 430 -3 430 -3 405 26.5 c 128,-1,88
 380 56 380 56 380 116 c 0,89,90
 380 181 380 181 416 215.5 c 128,-1,91
 452 250 452 250 498 259 c 1,92,93
 498 268 498 268 497 283.5 c 128,-1,94
 496 299 496 299 495.5 315 c 128,-1,95
 495 331 495 331 494.5 346 c 128,-1,96
 494 361 494 361 494 367 c 0,97,98
 494 424 494 424 482.5 456.5 c 128,-1,99
 471 489 471 489 450 506 c 128,-1,100
 429 523 429 523 398 527.5 c 128,-1,101
 367 532 367 532 326 532 c 0,102,103
 289 532 289 532 258 525.5 c 128,-1,104
 227 519 227 519 203.5 509 c 128,-1,105
 180 499 180 499 166.5 489.5 c 128,-1,106
 153 480 153 480 153 473 c 0,107,108
 153 468 153 468 158.5 461 c 128,-1,109
 164 454 164 454 172 446 c 128,-1,110
 180 438 180 438 187 432.5 c 128,-1,111
 194 427 194 427 199 427 c 0,112,113
 211 427 211 427 224 436.5 c 128,-1,114
 237 446 237 446 250 446 c 0,115,116
 255 446 255 446 263 436.5 c 128,-1,117
 271 427 271 427 278.5 415.5 c 128,-1,118
 286 404 286 404 289 394.5 c 128,-1,119
 292 385 292 385 286 385 c 0,120,121
 264 385 264 385 245.5 381 c 128,-1,122
 227 377 227 377 213.5 364.5 c 128,-1,123
 200 352 200 352 193 327.5 c 128,-1,124
 186 303 186 303 186 262 c 2,125,-1
 186 113 l 2,14,15
EndSplineSet
EndChar
StartChar: uni0E0D
Encoding: 3597 3597 226
Width: 976
VWidth: 1473
Flags: W
HStem: -277 59<566.367 730.509> -109 49<546.567 600.956> -9 66<617.734 747.051> -9 52<198.235 274.508> 150 52<239 273.107> 532 66<238.306 369.998>
VStem: 97 89<71.3304 311.499> 286 53<55.5574 138.121> 471 88.5<97.47 110.5 110.5 149.499 149.499 159.148 159.148 206.119 206.119 255.785 255.785 351.665 351.665 426.05> 488 56<-198.821 -111.167> 610 47<-146 -117.253> 807 89<129.734 203.45 203.45 279.365 279.365 589>
Fore
197 150 m 1,0,-1
 197 174 l 1,1,-1
 239 202 l 1,2,3
 281 202 281 202 310 171.5 c 128,-1,4
 339 141 339 141 339 97 c 256,5,6
 339 53 339 53 308.5 22 c 128,-1,7
 278 -9 278 -9 234 -9 c 0,8,9
 209 -9 209 -9 185 0 c 128,-1,10
 161 9 161 9 141 26.5 c 128,-1,11
 121 44 121 44 109 70.5 c 128,-1,12
 97 97 97 97 97 133 c 2,13,-1
 97 262 l 2,14,15
 97 318 97 318 108 344 c 128,-1,16
 119 370 119 370 144 395 c 1,17,18
 138 398 138 398 125.5 406.5 c 128,-1,19
 113 415 113 415 100 426.5 c 128,-1,20
 87 438 87 438 76.5 449.5 c 128,-1,21
 66 461 66 461 66 470 c 0,22,23
 66 483 66 483 84.5 505 c 128,-1,24
 103 527 103 527 135.5 548 c 128,-1,25
 168 569 168 569 213 583.5 c 128,-1,26
 258 598 258 598 311 598 c 0,27,28
 361 598 361 598 406 587.5 c 128,-1,29
 451 577 451 577 485.5 550.5 c 128,-1,30
 520 524 520 524 540 479.5 c 128,-1,31
 560 435 560 435 560 367 c 0,32,33
 560 349 560 349 559.5 336.5 c 0,34,-1
 558 286.5 l 0,35,36
 557 249 557 249 556 225.5 c 128,-1,37
 555 202 555 202 555 187 c 0,38,39
 555 152 555 152 559 132 c 128,-1,40
 563 112 563 112 575 97 c 0,41,42
 610 57 610 57 682 57 c 256,43,44
 754 57 754 57 790 97 c 0,45,46
 801 112 801 112 805.5 126 c 128,-1,47
 810 140 810 140 810 169 c 0,48,49
 810 194 810 194 808.5 238.5 c 128,-1,50
 807 283 807 283 807 320 c 2,51,-1
 807 589 l 1,52,-1
 896 589 l 1,53,-1
 896 194 l 2,54,55
 896 138 896 138 890 106.5 c 128,-1,56
 884 75 884 75 863 52 c 0,57,58
 846 32 846 32 823 19.5 c 128,-1,59
 800 7 800 7 775 1.5 c 128,-1,60
 750 -4 750 -4 726.5 -6.5 c 128,-1,61
 703 -9 703 -9 682 -9 c 0,62,63
 663 -9 663 -9 638.5 -6.5 c 128,-1,64
 614 -4 614 -4 589 1.5 c 128,-1,65
 564 7 564 7 541.5 19.5 c 128,-1,66
 519 32 519 32 501 52 c 0,67,68
 482 74 482 74 476.5 110.5 c 128,-1,69
 471 147 471 147 471 194 c 2,70,-1
 471 367 l 2,71,72
 471 424 471 424 461.5 456.5 c 128,-1,73
 452 489 452 489 432 506 c 128,-1,74
 412 523 412 523 382 527.5 c 128,-1,75
 352 532 352 532 311 532 c 0,76,77
 274 532 274 532 245.5 525.5 c 128,-1,78
 217 519 217 519 196 509 c 128,-1,79
 175 499 175 499 164 489.5 c 128,-1,80
 153 480 153 480 153 473 c 0,81,82
 153 468 153 468 158.5 461 c 128,-1,83
 164 454 164 454 172 446 c 128,-1,84
 180 438 180 438 187 432.5 c 128,-1,85
 194 427 194 427 199 427 c 0,86,87
 211 427 211 427 224 436.5 c 128,-1,88
 237 446 237 446 250 446 c 0,89,90
 255 446 255 446 263 436.5 c 128,-1,91
 271 427 271 427 278.5 415.5 c 128,-1,92
 286 404 286 404 289 394.5 c 128,-1,93
 292 385 292 385 286 385 c 0,94,95
 264 385 264 385 245.5 381 c 128,-1,96
 227 377 227 377 213.5 364.5 c 128,-1,97
 200 352 200 352 193 327.5 c 128,-1,98
 186 303 186 303 186 262 c 2,99,-1
 186 113 l 2,100,101
 186 80 186 80 199 61.5 c 128,-1,102
 212 43 212 43 234 43 c 0,103,104
 259 43 259 43 272.5 59 c 128,-1,105
 286 75 286 75 286 97 c 256,106,107
 286 119 286 119 273.5 134.5 c 128,-1,108
 261 150 261 150 239 150 c 2,109,-1
 197 150 l 1,0,-1
882 -71 m 1,110,111
 882 -113 882 -113 869.5 -151 c 128,-1,112
 857 -189 857 -189 830.5 -217 c 128,-1,113
 804 -245 804 -245 762 -261 c 128,-1,114
 720 -277 720 -277 661 -277 c 0,115,116
 569 -277 569 -277 528.5 -238.5 c 128,-1,117
 488 -200 488 -200 488 -149 c 0,118,119
 488 -105 488 -105 517.5 -82.5 c 128,-1,120
 547 -60 547 -60 579 -60 c 0,121,122
 613 -60 613 -60 635 -81.5 c 128,-1,123
 657 -103 657 -103 657 -146 c 1,124,-1
 633 -189 l 1,125,-1
 610 -189 l 1,126,-1
 610 -146 l 2,127,128
 610 -125 610 -125 600.5 -117 c 128,-1,129
 591 -109 591 -109 579 -109 c 0,130,131
 544 -109 544 -109 544 -149 c 0,132,133
 544 -186 544 -186 569.5 -202 c 128,-1,134
 595 -218 595 -218 657 -218 c 0,135,136
 695 -218 695 -218 721.5 -211.5 c 128,-1,137
 748 -205 748 -205 764.5 -188 c 128,-1,138
 781 -171 781 -171 788.5 -142 c 128,-1,139
 796 -113 796 -113 796 -71 c 1,140,-1
 882 -71 l 1,110,111
EndSplineSet
Substitution2: "Single Substitution lookup 27 subtable" uni0E0D.alt1
Substitution2: "Single Substitution lookup 27 subtable" uni0E0D.alt1
EndChar
StartChar: uni0E0E
Encoding: 3598 3598 227
Width: 713
VWidth: 1473
Flags: W
HStem: -268 60<248.037 343.403> -128 59<256.948 329.726 325.031 334.422 334.422 346.5 356 381.376> -9 52<108.637 186.562> 152 48<106.8 138> 532 66<303.177 435.618>
VStem: 44 53<55.5574 134.305> 178 87<251.096 318.43 307.942 328.917 328.917 332.5 347 360.685> 186 60<-204.973 -136.923> 200 74<56.8018 153.055> 544.5 87.5<-183 -88.4614 -88.4614 36.9309 36.9309 455.478>
Fore
376 532 m 0,0,1
 339 532 339 532 310 525.5 c 128,-1,2
 281 519 281 519 260.5 509 c 128,-1,3
 240 499 240 499 229 489.5 c 128,-1,4
 218 480 218 480 218 473 c 0,5,6
 218 468 218 468 223 459.5 c 128,-1,7
 228 451 228 451 236.5 443 c 128,-1,8
 245 435 245 435 252 428 c 128,-1,9
 259 421 259 421 264 421 c 0,10,11
 275 421 275 421 288.5 430.5 c 128,-1,12
 302 440 302 440 315 440 c 0,13,14
 320 440 320 440 326.5 430.5 c 128,-1,15
 333 421 333 421 339 409.5 c 128,-1,16
 345 398 345 398 347 388.5 c 128,-1,17
 349 379 349 379 343 379 c 0,18,19
 317 379 317 379 300.5 375 c 128,-1,20
 284 371 284 371 277 361 c 128,-1,21
 270 351 270 351 267.5 332.5 c 128,-1,22
 265 314 265 314 265 283 c 0,23,24
 265 258 265 258 266 248 c 0,25,-1
 269 208 l 0,26,27
 271 178 271 178 272.5 157 c 128,-1,28
 274 136 274 136 274 108 c 0,29,30
 274 52 274 52 241 21.5 c 128,-1,31
 208 -9 208 -9 156 -9 c 256,32,33
 105 -9 105 -9 74.5 22 c 128,-1,34
 44 53 44 53 44 97 c 256,35,36
 44 141 44 141 70.5 170.5 c 128,-1,37
 97 200 97 200 138 200 c 1,38,-1
 172 175 l 1,39,-1
 172 152 l 1,40,-1
 138 152 l 2,41,42
 116 152 116 152 106.5 135.5 c 128,-1,43
 97 119 97 119 97 97 c 256,44,45
 97 75 97 75 110.5 59 c 128,-1,46
 124 43 124 43 149 43 c 0,47,48
 171 43 171 43 185.5 60 c 128,-1,49
 200 77 200 77 200 110 c 0,50,51
 200 127 200 127 196.5 150.5 c 128,-1,52
 193 174 193 174 189.5 199.5 c 128,-1,53
 186 225 186 225 182 250 c 128,-1,54
 178 275 178 275 178 295 c 0,55,56
 178 323 178 323 182 347 c 128,-1,57
 186 371 186 371 209 395 c 1,58,59
 203 398 203 398 190.5 406.5 c 128,-1,60
 178 415 178 415 165 426.5 c 128,-1,61
 152 438 152 438 141.5 449.5 c 128,-1,62
 131 461 131 461 131 470 c 0,63,64
 131 483 131 483 149.5 505 c 128,-1,65
 168 527 168 527 200.5 548 c 128,-1,66
 233 569 233 569 278 583.5 c 128,-1,67
 323 598 323 598 376 598 c 0,68,69
 426 598 426 598 472.5 587.5 c 128,-1,70
 519 577 519 577 554 550.5 c 128,-1,71
 589 524 589 524 610.5 479.5 c 128,-1,72
 632 435 632 435 632 367 c 2,73,-1
 632 -265 l 1,74,-1
 532 -265 l 1,75,76
 520 -246 520 -246 495.5 -216.5 c 128,-1,77
 471 -187 471 -187 435 -166 c 1,78,79
 417 -205 417 -205 378 -236.5 c 128,-1,80
 339 -268 339 -268 289 -268 c 0,81,82
 246 -268 246 -268 216 -246.5 c 128,-1,83
 186 -225 186 -225 186 -169 c 0,84,85
 186 -69 186 -69 305 -69 c 0,86,87
 333 -69 333 -69 356 -75 c 128,-1,88
 379 -81 379 -81 401 -90 c 1,89,90
 405 -80 405 -80 407.5 -70 c 128,-1,91
 410 -60 410 -60 412 -53 c 0,92,93
 415 -44 415 -44 415 -35 c 1,94,-1
 439 -41 l 0,95,96
 449 -44 449 -44 458.5 -47 c 128,-1,97
 468 -50 468 -50 474 -55 c 0,98,99
 477 -57 477 -57 477 -62.5 c 128,-1,100
 477 -68 477 -68 476 -72 c 0,101,102
 473 -78 473 -78 467 -92 c 128,-1,103
 461 -106 461 -106 457 -116 c 1,104,105
 485 -133 485 -133 508.5 -149.5 c 128,-1,106
 532 -166 532 -166 545 -183 c 1,107,108
 545 -165 545 -165 545 -134 c 128,-1,109
 545 -103 545 -103 544.5 -42 c 128,-1,110
 544 19 544 19 544 117 c 128,-1,111
 544 215 544 215 544 367 c 0,112,113
 544 424 544 424 533 456.5 c 128,-1,114
 522 489 522 489 500.5 506 c 128,-1,115
 479 523 479 523 448 527.5 c 128,-1,116
 417 532 417 532 376 532 c 0,0,1
287 -208 m 0,117,118
 321 -208 321 -208 343 -188.5 c 128,-1,119
 365 -169 365 -169 382 -143 c 1,120,121
 362 -136 362 -136 346.5 -132 c 128,-1,122
 331 -128 331 -128 311 -128 c 0,123,124
 275 -128 275 -128 260.5 -138.5 c 128,-1,125
 246 -149 246 -149 246 -172 c 0,126,127
 246 -208 246 -208 287 -208 c 0,117,118
EndSplineSet
Substitution2: "Single Substitution lookup 27 subtable" uni0E0E.alt1
Substitution2: "Single Substitution lookup 27 subtable" uni0E0E.alt1
EndChar
StartChar: uni0E0F
Encoding: 3599 3599 228
Width: 713
VWidth: 1473
Flags: W
HStem: -274 60<211.279 292.204> -131 60<215.506 277.213> -9 52<108.637 186.562> 152 48<106.8 138> 532 66<303.177 435.618>
VStem: 44 53<55.5574 134.305> 147 61<-211.219 -133.55> 178 87<251.096 318.43 307.942 328.917 328.917 332.5 347 360.685> 200 74<56.8018 153.055> 544.5 86.5<-197 -97.7037 -97.7037 32.6886 32.6886 455.478>
Fore
309 -172 m 1,0,1
 290 -152 290 -152 277 -141.5 c 128,-1,2
 264 -131 264 -131 246 -131 c 0,3,4
 208 -131 208 -131 208 -172 c 256,5,6
 208 -214 208 -214 247 -214 c 0,7,8
 280 -214 280 -214 309 -172 c 1,0,1
376 598 m 0,9,10
 426 598 426 598 472.5 587.5 c 128,-1,11
 519 577 519 577 554 550.5 c 128,-1,12
 589 524 589 524 610.5 479.5 c 128,-1,13
 632 435 632 435 632 367 c 2,14,-1
 631 -280 l 1,15,-1
 538 -280 l 1,16,-1
 466 -228 l 1,17,-1
 396 -277 l 1,18,-1
 343 -221 l 1,19,20
 320 -246 320 -246 296.5 -260 c 128,-1,21
 273 -274 273 -274 243 -274 c 0,22,23
 205 -274 205 -274 176 -249.5 c 128,-1,24
 147 -225 147 -225 147 -174 c 0,25,26
 147 -141 147 -141 156 -121.5 c 128,-1,27
 165 -102 165 -102 179 -91 c 128,-1,28
 193 -80 193 -80 210 -75.5 c 128,-1,29
 227 -71 227 -71 243 -71 c 0,30,31
 273 -71 273 -71 295.5 -87 c 128,-1,32
 318 -103 318 -103 331 -116 c 1,33,34
 337 -103 337 -103 340 -81.5 c 128,-1,35
 343 -60 343 -60 343 -49 c 1,36,37
 355 -49 355 -49 365 -50 c 0,38,39
 374 -52 374 -52 384.5 -54.5 c 128,-1,40
 395 -57 395 -57 401 -60 c 256,41,42
 407 -63 407 -63 407 -68.5 c 128,-1,43
 407 -74 407 -74 405 -81 c 0,44,45
 404 -91 404 -91 398.5 -105 c 128,-1,46
 393 -119 393 -119 389 -133 c 0,47,48
 383 -149 383 -149 377 -164 c 1,49,-1
 402 -194 l 1,50,-1
 464 -153 l 1,51,-1
 545 -197 l 1,52,53
 545 -180 545 -180 545 -146 c 128,-1,54
 545 -112 545 -112 544.5 -48.5 c 128,-1,55
 544 15 544 15 544 115 c 128,-1,56
 544 215 544 215 544 367 c 0,57,58
 544 424 544 424 533 456.5 c 128,-1,59
 522 489 522 489 500.5 506 c 128,-1,60
 479 523 479 523 448 527.5 c 128,-1,61
 417 532 417 532 376 532 c 0,62,63
 339 532 339 532 310 525.5 c 128,-1,64
 281 519 281 519 260.5 509 c 128,-1,65
 240 499 240 499 229 489.5 c 128,-1,66
 218 480 218 480 218 473 c 0,67,68
 218 468 218 468 223 459.5 c 128,-1,69
 228 451 228 451 236.5 443 c 128,-1,70
 245 435 245 435 252 428 c 128,-1,71
 259 421 259 421 264 421 c 0,72,73
 275 421 275 421 288.5 430.5 c 128,-1,74
 302 440 302 440 315 440 c 0,75,76
 320 440 320 440 326.5 430.5 c 128,-1,77
 333 421 333 421 339 409.5 c 128,-1,78
 345 398 345 398 347 388.5 c 128,-1,79
 349 379 349 379 343 379 c 0,80,81
 317 379 317 379 300.5 375 c 128,-1,82
 284 371 284 371 277 361 c 128,-1,83
 270 351 270 351 267.5 332.5 c 128,-1,84
 265 314 265 314 265 283 c 0,85,86
 265 258 265 258 266 248 c 0,87,-1
 269 208 l 0,88,89
 271 178 271 178 272.5 157 c 128,-1,90
 274 136 274 136 274 108 c 0,91,92
 274 52 274 52 241 21.5 c 128,-1,93
 208 -9 208 -9 156 -9 c 256,94,95
 105 -9 105 -9 74.5 22 c 128,-1,96
 44 53 44 53 44 97 c 256,97,98
 44 141 44 141 70.5 170.5 c 128,-1,99
 97 200 97 200 138 200 c 1,100,-1
 172 175 l 1,101,-1
 172 152 l 1,102,-1
 138 152 l 2,103,104
 116 152 116 152 106.5 135.5 c 128,-1,105
 97 119 97 119 97 97 c 256,106,107
 97 75 97 75 110.5 59 c 128,-1,108
 124 43 124 43 149 43 c 0,109,110
 171 43 171 43 185.5 60 c 128,-1,111
 200 77 200 77 200 110 c 0,112,113
 200 127 200 127 196.5 150.5 c 128,-1,114
 193 174 193 174 189.5 199.5 c 128,-1,115
 186 225 186 225 182 250 c 128,-1,116
 178 275 178 275 178 295 c 0,117,118
 178 323 178 323 182 347 c 128,-1,119
 186 371 186 371 209 395 c 1,120,121
 203 398 203 398 190.5 406.5 c 128,-1,122
 178 415 178 415 165 426.5 c 128,-1,123
 152 438 152 438 141.5 449.5 c 128,-1,124
 131 461 131 461 131 470 c 0,125,126
 131 483 131 483 149.5 505 c 128,-1,127
 168 527 168 527 200.5 548 c 128,-1,128
 233 569 233 569 278 583.5 c 128,-1,129
 323 598 323 598 376 598 c 0,9,10
EndSplineSet
Substitution2: "Single Substitution lookup 27 subtable" uni0E0F.alt1
Substitution2: "Single Substitution lookup 27 subtable" uni0E0F.alt1
EndChar
StartChar: uni0E10
Encoding: 3600 3600 229
Width: 602
VWidth: 1473
Flags: W
HStem: -290 56<139.977 193.778> -159 57<146.008 215.309> -85 41<409.415 467.914> -2 57<360.344 410.625> 112 52<185.862 220> 255 53<185.157 265.878> 374 77<271.729 391.035> 508 76<312 315.25 316.749 356.788 336.769 410.722 388.454 432.989 432.989 463.5 463.5 467.28> 519 84<466.683 520.418> 523 66<172.624 241.697 464.853 468 468 483.75>
VStem: 71 56<-227.244 -166.013> 78 83<438.037 511.798> 121 53<181.215 244.415> 283 66<35.2894 103.526 90.8676 116.185 116.185 124.5 124.5 190.879> 368 40<-137.414 -86.2352> 449 89<243.792 323.371> 474 56<-155.111 -97.7405>
Fore
231 -196 m 1,0,1
 197 -159 197 -159 168 -159 c 0,2,3
 152 -159 152 -159 139.5 -168.5 c 128,-1,4
 127 -178 127 -178 127 -197 c 256,5,6
 127 -217 127 -217 140 -225.5 c 128,-1,7
 153 -234 153 -234 169 -234 c 256,8,9
 186 -234 186 -234 202 -227.5 c 128,-1,10
 218 -221 218 -221 231 -196 c 1,0,1
264 138 m 1,11,-1
 220 112 l 1,12,13
 175 112 175 112 148 138.5 c 128,-1,14
 121 165 121 165 121 209 c 256,15,16
 121 253 121 253 149.5 280.5 c 128,-1,17
 178 308 178 308 222 308 c 0,18,19
 270 308 270 308 296.5 291.5 c 128,-1,20
 323 275 323 275 335.5 243.5 c 128,-1,21
 348 212 348 212 350 167 c 128,-1,22
 352 122 352 122 349 65 c 0,23,24
 349 60 349 60 360 57.5 c 128,-1,25
 371 55 371 55 385 55 c 128,-1,26
 399 55 399 55 411 57.5 c 128,-1,27
 423 60 423 60 423 66 c 0,28,29
 429 133 429 133 439 186.5 c 128,-1,30
 449 240 449 240 449 292 c 0,31,32
 449 306 449 306 444.5 321 c 128,-1,33
 440 336 440 336 426 347.5 c 128,-1,34
 412 359 412 359 383.5 366.5 c 128,-1,35
 355 374 355 374 306 374 c 0,36,37
 261 374 261 374 221 368 c 128,-1,38
 181 362 181 362 152 362 c 0,39,40
 109 362 109 362 93.5 394 c 128,-1,41
 78 426 78 426 78 466 c 0,42,43
 78 526 78 526 111 557.5 c 128,-1,44
 144 589 144 589 199 589 c 0,45,46
 209 589 209 589 227.5 587.5 c 128,-1,47
 246 586 246 586 269 584 c 128,-1,48
 292 582 292 582 316 580.5 c 128,-1,49
 340 579 340 579 361 579 c 0,50,51
 387 579 387 579 416 582.5 c 128,-1,52
 445 586 445 586 468 591 c 0,53,54
 522 603 l 1,55,56
 524 588 524 588 529 575 c 0,57,58
 536 550 536 550 536 533 c 0,59,60
 536 524 536 524 523 519 c 1,61,62
 507 514 507 514 463.5 509.5 c 128,-1,63
 420 505 420 505 377 505 c 0,64,65
 358 505 358 505 336.5 508 c 128,-1,66
 315 511 315 511 294.5 514 c 128,-1,67
 274 517 274 517 257 520 c 128,-1,68
 240 523 240 523 231 523 c 0,69,70
 189 523 189 523 175 509.5 c 128,-1,71
 161 496 161 496 161 463 c 0,72,73
 161 446 161 446 168 438 c 128,-1,74
 175 430 175 430 205 430 c 256,75,76
 234 430 234 430 280 440.5 c 128,-1,77
 326 451 326 451 377 451 c 0,78,79
 415 451 415 451 445.5 437.5 c 128,-1,80
 476 424 476 424 496.5 403 c 128,-1,81
 517 382 517 382 527.5 355.5 c 128,-1,82
 538 329 538 329 538 301 c 0,83,84
 538 280 538 280 533.5 248.5 c 128,-1,85
 529 217 529 217 522.5 179 c 128,-1,86
 516 141 516 141 510 100 c 128,-1,87
 504 59 504 59 501 19 c 0,88,89
 501 12 501 12 484 6.5 c 128,-1,90
 467 1 467 1 442.5 -1 c 128,-1,91
 418 -3 418 -3 390 -2 c 128,-1,92
 362 -1 362 -1 338 1 c 128,-1,93
 314 3 314 3 298.5 8 c 128,-1,94
 283 13 283 13 283 21 c 0,95,96
 286 81 286 81 286.5 124.5 c 128,-1,97
 287 168 287 168 282 197.5 c 128,-1,98
 277 227 277 227 263 241 c 128,-1,99
 249 255 249 255 222 255 c 0,100,101
 202 255 202 255 188 241.5 c 128,-1,102
 174 228 174 228 174 209 c 0,103,104
 174 193 174 193 185.5 178.5 c 128,-1,105
 197 164 197 164 220 164 c 2,106,-1
 264 164 l 1,107,-1
 264 138 l 1,11,-1
252 -150 m 1,108,109
 258 -137 258 -137 258 -120 c 128,-1,110
 258 -103 258 -103 258 -91 c 1,111,112
 268 -91 268 -91 278 -93 c 0,113,114
 287 -94 287 -94 296 -96.5 c 128,-1,115
 305 -99 305 -99 311 -102 c 256,116,117
 317 -105 317 -105 317 -110 c 128,-1,118
 317 -115 317 -115 315 -122 c 0,119,120
 314 -133 314 -133 311.5 -139.5 c 0,121,-1
 301 -172 l 2,122,-1
 290 -203 l 1,123,-1
 311 -224 l 1,124,-1
 367 -193 l 1,125,-1
 440 -231 l 1,126,127
 440 -217 440 -217 445.5 -204.5 c 128,-1,128
 451 -192 451 -192 457.5 -180 c 128,-1,129
 464 -168 464 -168 469 -156 c 128,-1,130
 474 -144 474 -144 474 -128 c 256,131,132
 474 -112 474 -112 466 -98.5 c 128,-1,133
 458 -85 458 -85 440 -85 c 0,134,135
 408 -85 408 -85 408 -119 c 0,136,137
 408 -131 408 -131 413 -137.5 c 128,-1,138
 418 -144 418 -144 424 -149 c 2,139,-1
 443 -164 l 1,140,-1
 432 -180 l 1,141,-1
 398 -174 l 1,142,143
 386 -164 386 -164 377 -150.5 c 128,-1,144
 368 -137 368 -137 368 -122 c 0,145,146
 368 -85 368 -85 389.5 -64.5 c 128,-1,147
 411 -44 411 -44 443 -44 c 0,148,149
 486 -44 486 -44 508 -70.5 c 128,-1,150
 530 -97 530 -97 530 -127 c 0,151,152
 530 -153 530 -153 517.5 -196.5 c 128,-1,153
 505 -240 505 -240 505 -289 c 1,154,-1
 424 -289 l 1,155,-1
 368 -255 l 1,156,-1
 305 -292 l 1,157,-1
 256 -242 l 1,158,159
 236 -268 236 -268 214.5 -279 c 128,-1,160
 193 -290 193 -290 166 -290 c 0,161,162
 131 -290 131 -290 101 -268.5 c 128,-1,163
 71 -247 71 -247 71 -197 c 0,164,165
 71 -169 71 -169 79.5 -151 c 128,-1,166
 88 -133 88 -133 103 -121.5 c 128,-1,167
 118 -110 118 -110 135 -106 c 128,-1,168
 152 -102 152 -102 166 -102 c 0,169,170
 193 -102 193 -102 216 -119 c 128,-1,171
 239 -136 239 -136 252 -150 c 1,108,109
EndSplineSet
Substitution2: "Single Substitution lookup 27 subtable" uni0E10.alt1
Substitution2: "Single Substitution lookup 27 subtable" uni0E10.alt1
EndChar
StartChar: uni0E11
Encoding: 3601 3601 230
Width: 715
VWidth: 1473
Flags: W
HStem: 0 21G<162 245.4 547 635> 393 49<102.729 166.406> 504 90<468.281 536.768> 542 52<100.859 162.788>
VStem: 44 47<454.412 531.189> 155 90<3.09668 21 21 44.9339 44.9339 50 199.3 253 253 335.418> 267 59<446.085 520.701> 547 88<0 495.744>
Fore
200 454 m 1,0,-1
 192 423 l 1,1,2
 166 393 166 393 136 393 c 0,3,4
 96 393 96 393 70 422.5 c 128,-1,5
 44 452 44 452 44 492 c 0,6,7
 44 544 44 544 73 569 c 128,-1,8
 102 594 102 594 133 594 c 0,9,10
 152 594 152 594 166.5 586.5 c 128,-1,11
 181 579 181 579 192 569 c 0,12,13
 203 557 203 557 212 542 c 1,14,-1
 273 600 l 1,15,16
 295 583 295 583 310.5 556.5 c 128,-1,17
 326 530 326 530 326 494 c 0,18,19
 326 460 326 460 313.5 438.5 c 128,-1,20
 301 417 301 417 285.5 395 c 128,-1,21
 270 373 270 373 257.5 342 c 128,-1,22
 245 311 245 311 245 256 c 2,23,-1
 240 175 l 1,24,25
 261 231 261 231 292.5 303.5 c 128,-1,26
 324 376 324 376 361.5 440.5 c 128,-1,27
 399 505 399 505 442 549.5 c 128,-1,28
 485 594 485 594 526 594 c 0,29,30
 586 592 586 592 610.5 565.5 c 128,-1,31
 635 539 635 539 635 467 c 2,32,-1
 635 0 l 1,33,-1
 547 0 l 1,34,-1
 547 454 l 2,35,36
 547 488 547 488 537 496 c 128,-1,37
 527 504 527 504 513 504 c 0,38,39
 491 504 491 504 465.5 482 c 128,-1,40
 440 460 440 460 416 422.5 c 128,-1,41
 392 385 392 385 367.5 337.5 c 128,-1,42
 343 290 343 290 321 239.5 c 128,-1,43
 299 189 299 189 280 139.5 c 128,-1,44
 261 90 261 90 246 50 c 1,45,-1
 245 0 l 1,46,-1
 165 0 l 2,47,48
 159 0 159 0 155.5 3 c 128,-1,49
 152 6 152 6 155 21 c 0,50,51
 159 44 159 44 160.5 99.5 c 128,-1,52
 162 155 162 155 162 253 c 0,53,54
 162 302 162 302 178 336.5 c 128,-1,55
 194 371 194 371 214 398.5 c 128,-1,56
 234 426 234 426 250.5 449.5 c 128,-1,57
 267 473 267 473 267 499 c 0,58,59
 267 510 267 510 264 519 c 0,60,61
 262 523 262 523 261 523 c 1,62,-1
 208 479 l 1,63,64
 183 514 183 514 169.5 528 c 128,-1,65
 156 542 156 542 138 542 c 0,66,67
 116 542 116 542 103.5 528 c 128,-1,68
 91 514 91 514 91 494 c 128,-1,69
 91 474 91 474 104.5 458 c 128,-1,70
 118 442 118 442 140 442 c 0,71,72
 149 442 149 442 159 448 c 128,-1,73
 169 454 169 454 186 471 c 1,74,-1
 200 454 l 1,0,-1
EndSplineSet
EndChar
StartChar: uni0E12
Encoding: 3602 3602 231
Width: 985
VWidth: 1473
Flags: W
HStem: -3 53<452.504 502.454> 205 62<595.12 697.536> 376 51<280.984 351.567> 578 20<181 255.839 401 478.5 807 896>
VStem: 74 73<291.863 478.149> 217 51<286.975 363.016> 370 51<285.662 356.718> 387 53<64.2891 178.481> 499 90<307 478.834> 512 80<57.7356 77.5 89.5 92.1808 92.1808 106.969 106.969 124 124 141 141 164.11 164.894 202> 807 89<121.887 136 136 181.877 181.877 189.727 189.727 242.031 242.031 589>
Fore
292 247 m 1,0,-1
 246 253 l 1,1,2
 217 283 217 283 217 324 c 0,3,4
 217 367 217 367 247 397 c 128,-1,5
 277 427 277 427 320 427 c 0,6,7
 345 427 345 427 364 417.5 c 128,-1,8
 383 408 383 408 395.5 394 c 128,-1,9
 408 380 408 380 414.5 363 c 128,-1,10
 421 346 421 346 421 329 c 0,11,12
 421 289 421 289 407 259.5 c 128,-1,13
 393 230 393 230 361 206 c 0,14,15
 330 183 330 183 300.5 162 c 128,-1,16
 271 141 271 141 248 118.5 c 128,-1,17
 225 96 225 96 211 67 c 128,-1,18
 197 38 197 38 197 0 c 1,19,-1
 125 0 l 2,20,21
 119 0 119 0 115.5 3 c 128,-1,22
 112 6 112 6 115 21 c 0,23,24
 119 44 119 44 130 69 c 128,-1,25
 141 94 141 94 156 115 c 0,26,27
 165 128 165 128 159 136 c 0,28,29
 147 147 147 147 132.5 161 c 128,-1,30
 118 175 118 175 104.5 198.5 c 128,-1,31
 91 222 91 222 82.5 260 c 128,-1,32
 74 298 74 298 74 357 c 0,33,34
 74 451 74 451 107.5 510 c 128,-1,35
 141 569 141 569 221 598 c 1,36,-1
 329 536 l 1,37,-1
 433 601 l 1,38,39
 524 586 524 586 556.5 521.5 c 128,-1,40
 589 457 589 457 589 348 c 2,41,-1
 589 267 l 1,42,43
 664 262 664 262 722.5 229 c 128,-1,44
 781 196 781 196 812 121 c 1,45,46
 810 138 810 138 809.5 163.5 c 128,-1,47
 809 189 809 189 808 216 c 128,-1,48
 807 243 807 243 807 268 c 128,-1,49
 807 293 807 293 807 311 c 2,50,-1
 807 589 l 1,51,-1
 896 589 l 1,52,-1
 896 327 l 2,53,54
 896 278 896 278 896 228 c 128,-1,55
 896 178 896 178 897.5 136 c 128,-1,56
 899 94 899 94 900.5 63 c 128,-1,57
 902 32 902 32 903 21 c 0,58,59
 906 6 906 6 902.5 3 c 128,-1,60
 899 0 899 0 893 0 c 2,61,-1
 806 0 l 1,62,63
 782 97 782 97 732 147 c 128,-1,64
 682 197 682 197 591 205 c 1,65,-1
 592 146 l 2,66,67
 592 116 592 116 587.5 89.5 c 128,-1,68
 583 63 583 63 570.5 42.5 c 128,-1,69
 558 22 558 22 537 9.5 c 128,-1,70
 516 -3 516 -3 482 -3 c 0,71,72
 438 -3 438 -3 412.5 26.5 c 128,-1,73
 387 56 387 56 387 116 c 0,74,75
 387 183 387 183 423.5 219 c 128,-1,76
 460 255 460 255 505 264 c 1,77,78
 504 283 504 283 502.5 307 c 128,-1,79
 501 331 501 331 499 365 c 0,80,81
 498 443 498 443 484 480 c 128,-1,82
 470 517 470 517 430 532 c 1,83,-1
 329 470 l 1,84,-1
 227 530 l 1,85,86
 177 514 177 514 162 473 c 128,-1,87
 147 432 147 432 147 357 c 0,88,89
 147 302 147 302 154.5 270.5 c 128,-1,90
 162 239 162 239 172.5 220.5 c 128,-1,91
 183 202 183 202 194 191 c 128,-1,92
 205 180 205 180 214 166 c 1,93,94
 220 175 220 175 236 188.5 c 128,-1,95
 252 202 252 202 271 215 c 128,-1,96
 290 228 290 228 307 240 c 128,-1,97
 324 252 324 252 333 258 c 0,98,99
 355 274 355 274 362.5 290 c 128,-1,100
 370 306 370 306 370 321 c 0,101,102
 370 346 370 346 356 361 c 128,-1,103
 342 376 342 376 321 376 c 0,104,105
 299 376 299 376 283.5 360.5 c 128,-1,106
 268 345 268 345 268 323 c 0,107,108
 268 303 268 303 283 290 c 2,109,-1
 309 262 l 1,110,-1
 292 247 l 1,0,-1
507 202 m 1,111,112
 482 194 482 194 461 179 c 128,-1,113
 440 164 440 164 440 119 c 0,114,115
 440 87 440 87 453 68.5 c 128,-1,116
 466 50 466 50 482 50 c 0,117,118
 495 50 495 50 501.5 57.5 c 128,-1,119
 508 65 508 65 510.5 77.5 c 128,-1,120
 513 90 513 90 512 107 c 128,-1,121
 511 124 511 124 511 141 c 0,122,123
 511 152 511 152 509.5 164.5 c 128,-1,124
 508 177 508 177 507 202 c 1,111,112
EndSplineSet
EndChar
StartChar: uni0E13
Encoding: 3603 3603 232
Width: 970
VWidth: 1473
Flags: W
HStem: -9 52<196.855 275.545 750.584 836.975> 152 51<239 273.107> 202 62<644.01 736.807 728.669 744.945> 532 66<238.306 369.457>
VStem: 97 89<64.1439 311.499> 286 53<56.1322 139.825> 466 86<23.291 39.8105 164 212.84 212.84 314.608 314.608 427.371> 691 51<58.1912 145.772> 801 89<252.242 589> 850 84<72.1105 160.698>
Fore
850 112 m 0,0,1
 850 161 850 161 788 184 c 1,2,3
 763 168 763 168 752.5 148 c 128,-1,4
 742 128 742 128 742 112 c 0,5,6
 742 50 742 50 794 50 c 0,7,8
 819 50 819 50 834.5 65 c 128,-1,9
 850 80 850 80 850 112 c 0,0,1
186 118 m 2,10,11
 186 84 186 84 198.5 63.5 c 128,-1,12
 211 43 211 43 233 43 c 0,13,14
 258 43 258 43 272 59 c 128,-1,15
 286 75 286 75 286 97 c 256,16,17
 286 119 286 119 273.5 135.5 c 128,-1,18
 261 152 261 152 239 152 c 2,19,-1
 197 152 l 1,20,-1
 197 175 l 1,21,-1
 239 203 l 1,22,23
 281 203 281 203 310 172 c 128,-1,24
 339 141 339 141 339 97 c 256,25,26
 339 53 339 53 308 22 c 128,-1,27
 277 -9 277 -9 233 -9 c 0,28,29
 177 -9 177 -9 137 23.5 c 128,-1,30
 97 56 97 56 97 118 c 2,31,-1
 97 262 l 2,32,33
 97 318 97 318 108 344 c 128,-1,34
 119 370 119 370 144 395 c 1,35,36
 138 398 138 398 125.5 406.5 c 128,-1,37
 113 415 113 415 100 426.5 c 128,-1,38
 87 438 87 438 76.5 449.5 c 128,-1,39
 66 461 66 461 66 470 c 0,40,41
 66 483 66 483 84.5 505 c 128,-1,42
 103 527 103 527 135.5 548 c 128,-1,43
 168 569 168 569 213 583.5 c 128,-1,44
 258 598 258 598 311 598 c 0,45,46
 361 598 361 598 405 587.5 c 128,-1,47
 449 577 449 577 481.5 550.5 c 128,-1,48
 514 524 514 524 533 479.5 c 128,-1,49
 552 435 552 435 552 367 c 2,50,-1
 552 261 l 1,51,-1
 550 164 l 1,52,53
 585 220 585 220 633.5 242 c 128,-1,54
 682 264 682 264 731 264 c 0,55,56
 751 264 751 264 763.5 261 c 128,-1,57
 776 258 776 258 797 250 c 1,58,59
 801 264 801 264 801 287 c 2,60,-1
 801 589 l 1,61,-1
 890 589 l 1,62,-1
 890 273 l 2,63,64
 890 246 890 246 866 220 c 1,65,66
 896 203 896 203 915 175 c 128,-1,67
 934 147 934 147 934 109 c 0,68,69
 934 80 934 80 923 58.5 c 128,-1,70
 912 37 912 37 893.5 23.5 c 128,-1,71
 875 10 875 10 853 3.5 c 128,-1,72
 831 -3 831 -3 809 -3 c 0,73,74
 765 -3 765 -3 728 24.5 c 128,-1,75
 691 52 691 52 691 105 c 0,76,77
 691 138 691 138 709.5 161 c 128,-1,78
 728 184 728 184 745 199 c 1,79,80
 734 202 734 202 712 202 c 0,81,82
 676 202 676 202 646 184 c 128,-1,83
 616 166 616 166 595.5 138 c 128,-1,84
 575 110 575 110 563 74 c 128,-1,85
 551 38 551 38 551 0 c 1,86,-1
 471 0 l 2,87,88
 466 0 466 0 462 3 c 128,-1,89
 458 6 458 6 461 21 c 0,90,91
 464 32 464 32 465 69 c 128,-1,92
 466 106 466 106 466 156 c 128,-1,93
 466 206 466 206 465 262 c 128,-1,94
 464 318 464 318 464 367 c 0,95,96
 464 424 464 424 455 456.5 c 128,-1,97
 446 489 446 489 428 506 c 128,-1,98
 410 523 410 523 381 527.5 c 128,-1,99
 352 532 352 532 311 532 c 0,100,101
 274 532 274 532 245.5 525.5 c 128,-1,102
 217 519 217 519 196 509 c 128,-1,103
 175 499 175 499 164 489.5 c 128,-1,104
 153 480 153 480 153 473 c 0,105,106
 153 468 153 468 158.5 461 c 128,-1,107
 164 454 164 454 172 446 c 128,-1,108
 180 438 180 438 187 432.5 c 128,-1,109
 194 427 194 427 199 427 c 0,110,111
 211 427 211 427 224 436.5 c 128,-1,112
 237 446 237 446 250 446 c 0,113,114
 255 446 255 446 263 436.5 c 128,-1,115
 271 427 271 427 278.5 415.5 c 128,-1,116
 286 404 286 404 289 394.5 c 128,-1,117
 292 385 292 385 286 385 c 0,118,119
 264 385 264 385 245.5 381 c 128,-1,120
 227 377 227 377 213.5 364.5 c 128,-1,121
 200 352 200 352 193 327.5 c 128,-1,122
 186 303 186 303 186 262 c 2,123,-1
 186 118 l 2,10,11
EndSplineSet
EndChar
StartChar: uni0E14
Encoding: 3604 3604 233
Width: 655
VWidth: 1473
Flags: W
HStem: 0 21G<122 197 486 575> 376 56<287.984 365.281> 532 66<225.735 415.169>
VStem: 74 73<291.863 458.462> 224 51<286.975 362.783> 377 59<286.268 363.81> 486 89<0 427.292>
Fore
74 357 m 0,0,1
 74 414 74 414 93.5 459 c 128,-1,2
 113 504 113 504 147 535 c 128,-1,3
 181 566 181 566 227 582 c 128,-1,4
 273 598 273 598 324 598 c 0,5,6
 466 598 466 598 520.5 537 c 128,-1,7
 575 476 575 476 575 348 c 2,8,-1
 575 0 l 1,9,-1
 486 0 l 1,10,-1
 486 333 l 2,11,12
 486 390 486 390 483 428.5 c 128,-1,13
 480 467 480 467 464.5 490 c 128,-1,14
 449 513 449 513 417 522.5 c 128,-1,15
 385 532 385 532 324 532 c 0,16,17
 246 532 246 532 196.5 493 c 128,-1,18
 147 454 147 454 147 357 c 0,19,20
 147 302 147 302 154.5 270.5 c 128,-1,21
 162 239 162 239 172.5 220.5 c 128,-1,22
 183 202 183 202 194 191 c 128,-1,23
 205 180 205 180 214 166 c 1,24,25
 220 175 220 175 237.5 188.5 c 128,-1,26
 255 202 255 202 275 216 c 128,-1,27
 295 230 295 230 313 241.5 c 128,-1,28
 331 253 331 253 340 259 c 0,29,30
 362 275 362 275 369.5 290.5 c 128,-1,31
 377 306 377 306 377 321 c 0,32,33
 377 346 377 346 363 361 c 128,-1,34
 349 376 349 376 329 376 c 0,35,36
 306 376 306 376 290.5 360.5 c 128,-1,37
 275 345 275 345 275 323 c 0,38,39
 275 303 275 303 290 290 c 2,40,-1
 317 262 l 1,41,-1
 299 247 l 1,42,-1
 253 253 l 1,43,44
 224 283 224 283 224 324 c 0,45,46
 224 367 224 367 254 399.5 c 128,-1,47
 284 432 284 432 327 432 c 0,48,49
 379 430 379 430 407.5 399 c 128,-1,50
 436 368 436 368 436 329 c 256,51,52
 436 289 436 289 418.5 259.5 c 128,-1,53
 401 230 401 230 368 206 c 0,54,55
 337 183 337 183 306 162 c 128,-1,56
 275 141 275 141 251 118.5 c 128,-1,57
 227 96 227 96 212 67 c 128,-1,58
 197 38 197 38 197 0 c 1,59,-1
 125 0 l 2,60,61
 119 0 119 0 115.5 3 c 128,-1,62
 112 6 112 6 115 21 c 0,63,64
 119 44 119 44 130 69 c 128,-1,65
 141 94 141 94 156 115 c 0,66,67
 165 128 165 128 159 136 c 0,68,69
 147 147 147 147 132.5 161 c 128,-1,70
 118 175 118 175 104.5 198.5 c 128,-1,71
 91 222 91 222 82.5 260 c 128,-1,72
 74 298 74 298 74 357 c 0,0,1
EndSplineSet
EndChar
StartChar: uni0E15
Encoding: 3605 3605 234
Width: 670
VWidth: 1473
Flags: W
HStem: 0 21G<122 205 501 589> 376 54<287.984 365.281> 578 20G<181 256.484 401.615 478.5>
VStem: 74 81<293.014 477.112> 224 51<286.975 362.65> 377 59<286.529 363.744> 501 88<0 398.669 398.669 432 432 478.889>
Fore
331 470 m 1,0,-1
 227 530 l 1,1,2
 189 514 189 514 172 473 c 128,-1,3
 155 432 155 432 155 357 c 0,4,5
 155 308 155 308 162 275 c 128,-1,6
 169 242 169 242 179.5 221 c 128,-1,7
 190 200 190 200 201 190 c 128,-1,8
 212 180 212 180 221 174 c 1,9,10
 230 183 230 183 247 195.5 c 128,-1,11
 264 208 264 208 281.5 219.5 c 128,-1,12
 299 231 299 231 315 242 c 128,-1,13
 331 253 331 253 340 259 c 0,14,15
 362 275 362 275 369.5 290.5 c 128,-1,16
 377 306 377 306 377 321 c 0,17,18
 377 346 377 346 363 361 c 128,-1,19
 349 376 349 376 329 376 c 0,20,21
 306 376 306 376 290.5 360.5 c 128,-1,22
 275 345 275 345 275 323 c 0,23,24
 275 303 275 303 290 290 c 2,25,-1
 317 262 l 1,26,-1
 299 247 l 1,27,-1
 253 253 l 1,28,29
 224 283 224 283 224 324 c 0,30,31
 224 367 224 367 254 398.5 c 128,-1,32
 284 430 284 430 327 430 c 0,33,34
 379 429 379 429 407.5 398.5 c 128,-1,35
 436 368 436 368 436 329 c 256,36,37
 436 289 436 289 414.5 257 c 128,-1,38
 393 225 393 225 361 202 c 0,39,40
 330 178 330 178 301.5 158 c 128,-1,41
 273 138 273 138 251.5 116 c 128,-1,42
 230 94 230 94 217.5 66 c 128,-1,43
 205 38 205 38 205 0 c 1,44,-1
 125 0 l 2,45,46
 119 0 119 0 115.5 3 c 128,-1,47
 112 6 112 6 115 21 c 0,48,49
 119 44 119 44 130 69 c 128,-1,50
 141 94 141 94 156 115 c 0,51,52
 165 128 165 128 159 136 c 0,53,54
 147 147 147 147 132.5 161 c 128,-1,55
 118 175 118 175 104.5 198.5 c 128,-1,56
 91 222 91 222 82.5 260 c 128,-1,57
 74 298 74 298 74 357 c 0,58,59
 74 451 74 451 107.5 510 c 128,-1,60
 141 569 141 569 221 598 c 1,61,-1
 331 536 l 1,62,-1
 433 601 l 1,63,64
 524 586 524 586 556.5 521.5 c 128,-1,65
 589 457 589 457 589 348 c 2,66,-1
 589 0 l 1,67,-1
 501 0 l 1,68,-1
 501 365 l 2,69,70
 501 404 501 404 499.5 432 c 128,-1,71
 498 460 498 460 491.5 479.5 c 128,-1,72
 485 499 485 499 470 511.5 c 128,-1,73
 455 524 455 524 430 532 c 1,74,-1
 331 470 l 1,0,-1
EndSplineSet
EndChar
StartChar: uni0E16
Encoding: 3606 3606 235
Width: 662
VWidth: 1473
Flags: W
HStem: -9 52<198.235 274.508> 150 52<239 273.107> 532 66<257.577 392.189>
VStem: 97 89<71.3304 312.414> 286 53<55.5574 138.121> 494 88<0 424.718>
Fore
153 473 m 0,0,1
 153 468 153 468 157.5 461 c 128,-1,2
 162 454 162 454 168 446 c 128,-1,3
 174 438 174 438 180.5 432.5 c 128,-1,4
 187 427 187 427 192 427 c 0,5,6
 203 427 203 427 216.5 436.5 c 128,-1,7
 230 446 230 446 243 446 c 0,8,9
 247 446 247 446 255.5 436.5 c 128,-1,10
 264 427 264 427 271 415.5 c 128,-1,11
 278 404 278 404 281 394.5 c 128,-1,12
 284 385 284 385 278 385 c 0,13,14
 256 385 256 385 239 381 c 128,-1,15
 222 377 222 377 210.5 364.5 c 128,-1,16
 199 352 199 352 192.5 327.5 c 128,-1,17
 186 303 186 303 186 262 c 2,18,-1
 186 113 l 2,19,20
 186 80 186 80 199 61.5 c 128,-1,21
 212 43 212 43 234 43 c 0,22,23
 259 43 259 43 272.5 59 c 128,-1,24
 286 75 286 75 286 97 c 256,25,26
 286 119 286 119 273.5 134.5 c 128,-1,27
 261 150 261 150 239 150 c 2,28,-1
 197 150 l 1,29,-1
 197 174 l 1,30,-1
 239 202 l 1,31,32
 281 202 281 202 310 171.5 c 128,-1,33
 339 141 339 141 339 97 c 256,34,35
 339 53 339 53 308.5 22 c 128,-1,36
 278 -9 278 -9 234 -9 c 0,37,38
 209 -9 209 -9 185 0 c 128,-1,39
 161 9 161 9 141 26.5 c 128,-1,40
 121 44 121 44 109 70.5 c 128,-1,41
 97 97 97 97 97 133 c 2,42,-1
 97 262 l 2,43,44
 97 318 97 318 108 344 c 128,-1,45
 119 370 119 370 144 395 c 1,46,47
 138 398 138 398 125.5 406.5 c 128,-1,48
 113 415 113 415 100 426.5 c 128,-1,49
 87 438 87 438 76.5 449.5 c 128,-1,50
 66 461 66 461 66 470 c 0,51,52
 66 483 66 483 88 505 c 128,-1,53
 110 527 110 527 146.5 548 c 128,-1,54
 183 569 183 569 231.5 583.5 c 128,-1,55
 280 598 280 598 333 598 c 0,56,57
 383 598 383 598 428 587.5 c 128,-1,58
 473 577 473 577 507.5 550.5 c 128,-1,59
 542 524 542 524 562 479.5 c 128,-1,60
 582 435 582 435 582 367 c 2,61,-1
 582 0 l 1,62,-1
 494 0 l 1,63,-1
 494 367 l 2,64,65
 494 424 494 424 484 456.5 c 128,-1,66
 474 489 474 489 454.5 506 c 128,-1,67
 435 523 435 523 404.5 527.5 c 128,-1,68
 374 532 374 532 333 532 c 0,69,70
 296 532 296 532 263.5 525.5 c 128,-1,71
 231 519 231 519 207 509 c 128,-1,72
 183 499 183 499 168 489.5 c 128,-1,73
 153 480 153 480 153 473 c 0,0,1
EndSplineSet
EndChar
